<svg width="534" height="475" viewBox="0 0 534 475" fill="none" xmlns="http://www.w3.org/2000/svg">
<path opacity="0.1" d="M359.024 63.7832C319.162 44.9606 282.082 19.3992 239.671 7.31562C198.187 -4.30322 152.995 -2.21183 113.133 14.5193C73.5036 31.2504 39.6676 62.1565 20.6638 100.963C0.964789 141.165 -2.74327 187.64 1.66005 232.256C7.22213 287.33 25.5307 342.635 62.843 383.301C95.0567 418.622 139.09 440.698 184.05 455.57C232.023 471.604 283.704 480.202 333.531 471.604C387.066 462.542 436.893 433.495 472.351 392.131C507.81 350.768 528.899 297.787 533.302 243.41C537.01 196.006 526.35 144.65 491.355 112.582C456.824 80.7467 403.289 84.6971 359.024 63.7832Z" fill="#71BA44"/>
</svg>
