<svg width="506" height="495" viewBox="0 0 506 495" fill="none" xmlns="http://www.w3.org/2000/svg">
<path opacity="0.05" d="M93.5371 438.754C21.9467 361.486 -11.989 251.27 3.8167 147.318C9.86004 108.336 23.3413 68.6582 51.931 41.5101C92.1424 2.99225 153.273 -3.73676 208.825 1.60005C241.366 4.84854 275.999 12.7377 298.313 36.6373C320.86 60.769 326.671 96.9664 349.682 121.098C375.482 148.246 417.088 153.351 448.235 174.466C473.105 191.173 490.538 217.857 499.138 246.629C517.501 306.726 497.744 375.176 454.975 421.351C412.207 467.526 349.217 492.122 286.227 494.442C223.236 496.531 146.3 495.603 93.5371 438.754Z" fill="white"/>
</svg>
