<svg width="526" height="480" viewBox="0 0 526 480" fill="none" xmlns="http://www.w3.org/2000/svg">
<path opacity="0.1" d="M211.544 109.316C159.659 148.967 82.8159 147.434 36.1849 193.219C7.72461 221.259 -4.31626 263.977 1.37579 303.628C7.06784 343.28 28.9603 379.426 58.5152 406.59C88.0701 433.535 124.631 451.937 162.723 463.986C239.128 488.083 325.823 486.769 395.441 447.775C453.018 415.572 495.489 358.833 514.317 295.523C533.144 232.213 528.547 162.987 505.341 100.991C488.265 55.6443 456.302 10.2974 408.576 1.53471C370.702 -5.47544 332.39 12.4881 301.741 35.9283C271.529 59.1494 243.069 85.2184 211.544 109.316Z" fill="#71BA44"/>
</svg>
