<svg width="31" height="36" viewBox="0 0 31 36" fill="none" xmlns="http://www.w3.org/2000/svg">
<path d="M27.6593 11.6941C26.3042 11.6941 25.2079 12.7904 25.2079 14.1436V22.8261C25.2079 23.4762 25.4662 24.0998 25.9259 24.5595C26.3856 25.0192 27.0092 25.2775 27.6593 25.2775C28.3095 25.2775 28.933 25.0192 29.3927 24.5595C29.8525 24.0998 30.1107 23.4762 30.1107 22.8261V14.1436C30.1107 12.7904 29.0144 11.6941 27.6593 11.6941ZM3.34067 11.6941C1.98558 11.6941 0.889248 12.7904 0.889248 14.1436V22.8261C0.889248 23.4762 1.14752 24.0998 1.60725 24.5595C2.06698 25.0192 2.69051 25.2775 3.34067 25.2775C3.99082 25.2775 4.61435 25.0192 5.07408 24.5595C5.53381 24.0998 5.79208 23.4762 5.79208 22.8261V14.1436C5.79233 13.8217 5.72908 13.5029 5.60596 13.2055C5.48283 12.908 5.30224 12.6378 5.07453 12.4103C4.84681 12.1827 4.57646 12.0024 4.27893 11.8795C3.98141 11.7566 3.66257 11.6936 3.34067 11.6941ZM20.3779 4.39349L21.8499 1.73316C21.8929 1.65742 21.9205 1.57389 21.931 1.48741C21.9414 1.40093 21.9346 1.31324 21.9109 1.22942C21.8872 1.14561 21.847 1.06734 21.7928 0.999172C21.7386 0.931002 21.6713 0.874288 21.595 0.832325C21.5189 0.789407 21.435 0.762046 21.3482 0.751833C21.2614 0.741621 21.1735 0.74876 21.0895 0.772836C21.0055 0.796911 20.9271 0.837444 20.8589 0.892077C20.7907 0.94671 20.7341 1.01435 20.6922 1.09108L19.18 3.81274C18.053 3.36233 16.811 3.10741 15.5 3.10741C14.189 3.10741 12.947 3.36041 11.82 3.81083L10.3077 1.09299C10.2659 1.01627 10.2093 0.948626 10.1411 0.893994C10.0729 0.839361 9.9945 0.798828 9.91051 0.774753C9.82651 0.750677 9.73856 0.743538 9.65178 0.75375C9.565 0.763963 9.48111 0.791323 9.405 0.834242C9.32904 0.876581 9.26218 0.933487 9.20824 1.0017C9.1543 1.06992 9.11435 1.1481 9.09067 1.23178C9.06699 1.31546 9.06005 1.40298 9.07025 1.48934C9.08044 1.57571 9.10757 1.65921 9.15008 1.73507L10.6221 4.39541C7.97133 5.90574 6.20033 8.60632 6.20033 11.6941C6.20033 11.7152 6.20033 11.7343 6.20417 11.7592C6.20033 11.7707 6.20033 11.7842 6.20033 11.7957V11.7976H24.7977V11.6941C24.7997 8.60632 23.0287 5.90766 20.3779 4.39349ZM11.2067 8.16549C11.1195 8.16486 11.0332 8.14706 10.9529 8.1131C10.8725 8.07915 10.7997 8.0297 10.7385 7.96759C10.6148 7.84214 10.5461 7.67271 10.5473 7.49658C10.5486 7.32044 10.6198 7.15202 10.7452 7.02837C10.8707 6.90472 11.0401 6.83597 11.2162 6.83724C11.3924 6.83851 11.5608 6.9097 11.6845 7.03515C11.8081 7.16059 11.8769 7.33002 11.8756 7.50616C11.8743 7.6823 11.8031 7.85071 11.6777 7.97436C11.5522 8.09801 11.3828 8.16676 11.2067 8.16549ZM19.7933 8.16549C19.6262 8.15277 19.47 8.07739 19.356 7.95442C19.242 7.83145 19.1787 7.66998 19.1787 7.50232C19.1787 7.33467 19.242 7.1732 19.356 7.05023C19.47 6.92726 19.6262 6.85188 19.7933 6.83916C19.9692 6.83916 20.1379 6.90903 20.2623 7.0334C20.3866 7.15776 20.4565 7.32644 20.4565 7.50232C20.4565 7.67821 20.3866 7.84689 20.2623 7.97125C20.1379 8.09562 19.9692 8.16549 19.7933 8.16549ZM6.20033 25.8966C6.20033 27.1347 7.20658 28.141 8.4505 28.141H9.57367V32.7429C9.57367 33.3931 9.83194 34.0166 10.2917 34.4763C10.7514 34.9361 11.3749 35.1943 12.0251 35.1943C12.6752 35.1943 13.2988 34.9361 13.7585 34.4763C14.2182 34.0166 14.4765 33.3931 14.4765 32.7429V28.141H16.5197V32.7429C16.5197 34.098 17.616 35.1924 18.9672 35.1924C20.3262 35.1924 21.4225 34.098 21.4225 32.7429V28.141H22.5457C23.7877 28.141 24.7958 27.1367 24.7958 25.8966V12.3036H6.20033V25.8966Z" fill="black"/>
</svg>
