<svg width="32" height="37" viewBox="0 0 32 37" fill="none" xmlns="http://www.w3.org/2000/svg">
<path d="M30.6912 28.4386C30.1605 29.6758 29.5048 30.8556 28.7343 31.9595C27.7051 33.4296 26.8598 34.4454 26.212 35.0109C25.2057 35.9347 24.1247 36.41 22.969 36.4369C22.141 36.4369 21.1405 36.2011 19.9752 35.7219C18.806 35.2447 17.7327 35.0109 16.7494 35.0109C15.7202 35.0109 14.6162 35.2447 13.4336 35.7219C12.2529 36.2011 11.2984 36.4522 10.5682 36.4752C9.46224 36.5231 8.35632 36.0363 7.25423 35.0109C6.55082 34.3975 5.67107 33.3434 4.61498 31.8522C3.48415 30.2633 2.55457 28.4137 1.82623 26.3111C1.04615 24.036 0.655151 21.8357 0.655151 19.7044C0.655151 17.2644 1.18224 15.158 2.23832 13.3947C3.03709 12.0098 4.17904 10.854 5.55415 10.0386C6.91013 9.22531 8.45807 8.78739 10.0392 8.76978C10.9208 8.76978 12.0766 9.04195 13.5083 9.57862C14.9401 10.1153 15.8601 10.3874 16.2607 10.3874C16.5635 10.3874 17.5812 10.0674 19.3139 9.43295C20.9488 8.84453 22.3288 8.60112 23.4597 8.69695C26.5263 8.9442 28.8282 10.1517 30.3597 12.329C27.6188 13.9908 26.2637 16.3157 26.2906 19.2999C26.3136 21.6249 27.1588 23.5588 28.8148 25.094C29.5469 25.7946 30.4012 26.3552 31.3352 26.7481C31.1321 27.3365 30.9174 27.8981 30.6912 28.4386ZM23.6628 0.7792C23.6628 2.60003 22.9958 4.30203 21.6714 5.87562C20.0691 7.74628 18.1332 8.8292 16.0345 8.65862C16.007 8.42965 15.9936 8.19922 15.9942 7.96862C15.9942 6.2187 16.7532 4.34803 18.1083 2.81662C18.783 2.04228 19.6416 1.39637 20.6824 0.8827C21.7212 0.3767 22.7026 0.0968669 23.6264 0.0489502C23.6513 0.294284 23.6628 0.5377 23.6628 0.7792Z" fill="black"/>
</svg>
