<svg width="93" height="93" viewBox="0 0 93 93" fill="none" xmlns="http://www.w3.org/2000/svg">
<path fill-rule="evenodd" clip-rule="evenodd" d="M48.2212 23.8931C47.4751 22.1898 50.1572 22.4262 50.8772 21.2061C52.8393 22.6626 52.6065 23.8813 50.912 25.104C50.1877 25.8368 49.1914 23.4033 48.2212 23.8931Z" fill="#71BA44"/>
<path fill-rule="evenodd" clip-rule="evenodd" d="M47.7602 26.8178C49.9594 27.5427 49.718 27.787 51.9302 29.9736C50.4989 33.3883 47.8168 33.1519 44.3886 31.2121C46.5791 30.9626 45.0912 28.0431 47.7602 26.8178Z" fill="#71BA44"/>
<path fill-rule="evenodd" clip-rule="evenodd" d="M57.0441 29.7161C57.7728 29.4706 58.5015 29.225 59.4716 28.7351C59.9632 29.221 58.9931 29.7109 58.756 30.4424C59.0018 30.6854 59.489 30.684 59.7305 30.4398C59.9763 30.6827 59.9806 31.17 59.7392 31.4142C59.4977 31.6585 59.2563 31.9028 59.0148 32.1471C57.0571 31.1779 58.2687 30.4437 57.0441 29.7161Z" fill="#71BA44"/>
<path fill-rule="evenodd" clip-rule="evenodd" d="M32.9815 8.82938C34.9479 10.7731 41.5368 11.9734 37.6822 16.8563C38.6698 18.3154 39.1483 17.3396 40.1315 18.3114C38.6785 19.2899 39.6573 19.7745 38.6915 20.7516C38.1956 19.7784 35.7506 18.8105 36.7164 17.8334C34.2801 17.84 31.8482 18.3338 29.6664 19.5578C31.6242 20.527 32.5943 20.0372 30.9085 22.2343C33.832 22.2264 36.0704 27.3365 34.6303 29.7767C35.1176 29.7753 36.0965 30.2599 36.8339 30.9888C35.8724 32.4532 36.1269 33.6706 35.8942 34.8894C34.6913 36.598 33.2077 34.1657 31.9961 34.8999C31.0129 33.928 31.4915 32.9522 31.4828 31.9778C30.7454 31.2489 29.7752 31.7388 29.0552 32.9588C27.3389 31.7453 27.8175 30.7695 27.563 29.5521C26.3601 31.2607 25.3855 31.2633 24.4197 32.2405C21.4788 30.2994 23.1646 28.1022 19.2579 27.1383C19.4732 23.9706 22.3707 21.0392 25.044 20.3012C24.0217 14.9442 27.389 10.0626 32.9815 8.82938Z" fill="#71BA44"/>
<path fill-rule="evenodd" clip-rule="evenodd" d="M62.4561 35.5484C61.7318 36.2812 61.7361 36.7685 61.9863 37.4987C63.9396 37.9807 65.6255 35.7835 67.5745 35.7782C67.829 36.9957 69.0449 36.7488 69.5496 38.6964C71.2441 37.4737 70.5067 36.7448 71.714 35.5234C74.2024 41.3637 86.6296 41.5738 83.2754 47.9171C92.7965 50.084 79.969 59.62 79.7754 65.2239C77.6067 67.9096 75.8991 67.6706 73.7174 68.8946C71.5008 66.2207 68.1074 68.1789 64.912 65.0204C65.1447 63.8016 65.6233 62.8258 64.6357 61.3667C67.0633 60.3857 67.507 55.512 69.2364 58.1872C69.9564 56.9671 70.1891 55.7484 68.9601 54.5336C67.2482 53.8073 68.003 56.4852 66.5456 56.9763C64.8337 56.2501 62.889 56.7426 62.1342 54.0648C67.6963 49.4209 60.1199 46.7614 59.3651 44.0836C58.6364 44.3292 56.2175 46.2847 55.019 48.4806C50.8621 46.7864 52.289 42.8846 52.0215 40.2054C50.5466 38.7477 49.1066 41.1878 47.6275 39.2428C48.1452 42.6521 43.7555 42.1767 42.0871 46.3229C39.1375 43.4073 40.5949 42.9161 38.1325 39.9993C41.0299 37.068 42.2502 37.3083 43.9187 33.1622C45.6219 32.914 47.3251 32.6657 49.2959 35.0967C50.2617 34.1196 51.2275 33.1425 51.9518 32.4096C56.3458 33.3723 61.7361 36.7685 63.87 30.1848C66.302 29.691 67.531 30.9058 69.5017 33.3368C69.0319 35.287 64.9054 37.0035 62.4561 35.5484Z" fill="#71BA44"/>
<path fill-rule="evenodd" clip-rule="evenodd" d="M45.5653 26.5802C44.8192 24.8768 47.5013 25.1132 48.2213 23.8931C50.1834 25.3496 49.9506 26.5683 48.2561 27.791C47.5317 28.5238 46.5355 26.0903 45.5653 26.5802Z" fill="#71BA44"/>
<path fill-rule="evenodd" clip-rule="evenodd" d="M45.1043 29.5048C47.3035 30.2297 47.062 30.474 49.2742 32.6607C47.8429 36.0753 45.1608 35.8389 41.7327 33.8991C43.9231 33.6496 42.4353 30.7301 45.1043 29.5048Z" fill="#71BA44"/>
<path fill-rule="evenodd" clip-rule="evenodd" d="M54.6294 32.159C55.3581 31.9134 56.0868 31.6678 57.057 31.1779C57.5486 31.6638 56.5785 32.1537 56.3414 32.8852C56.5872 33.1282 57.0744 33.1269 57.3159 32.8826C57.5617 33.1255 57.566 33.6128 57.3246 33.8571C57.0831 34.1013 56.8417 34.3456 56.6002 34.5899C54.6425 33.6207 55.6126 33.1308 54.6294 32.159Z" fill="#71BA44"/>
<path fill-rule="evenodd" clip-rule="evenodd" d="M30.3255 11.5165C32.2919 13.4602 38.8807 14.6606 35.0262 19.5435C36.0137 21.0025 36.4923 20.0268 37.4755 20.9986C36.0224 21.977 37.0013 22.4616 36.0355 23.4387C35.5395 22.4656 33.0946 21.4977 34.0604 20.5206C31.6241 20.5271 29.438 21.2639 27.0104 22.245C28.9681 23.2142 29.9383 22.7243 28.2525 24.9215C31.176 24.9136 33.4143 30.0237 31.9743 32.4638C32.2201 32.7068 33.199 33.1914 33.9364 33.9203C33.2164 35.1403 33.4709 36.3578 33.4796 37.3322C32.0352 39.2851 30.5517 36.8529 29.3401 37.587C28.3569 36.6152 28.8354 35.6394 28.8267 34.6649C28.0893 33.936 27.1192 34.4259 26.3992 35.646C24.6829 34.4325 25.4029 33.2124 24.9069 32.2392C23.9455 33.7036 22.7295 33.9505 22.0052 34.6833C19.0642 32.7423 20.75 30.5451 16.8433 29.5811C17.0586 26.4134 19.9561 23.4821 22.6295 22.744C21.3656 17.6313 24.7329 12.7497 30.3255 11.5165Z" fill="#71BA44"/>
<path fill-rule="evenodd" clip-rule="evenodd" d="M59.8 38.2358C59.0756 38.9686 59.08 39.4559 59.3301 40.1861C61.2835 40.668 62.9693 38.4709 64.9183 38.4656C65.1728 39.683 66.3888 39.4361 66.8934 41.3838C68.588 40.1611 67.8505 39.4322 69.0578 38.2108C71.5463 44.0511 83.9735 44.2612 80.6192 50.6045C90.1403 52.7714 77.3129 62.3074 77.1193 67.9113C74.9506 70.597 73.243 70.358 71.0612 71.582C68.8446 68.9081 65.4513 70.8662 62.2558 67.7077C62.4886 66.489 62.9671 65.5132 61.9796 64.0541C64.6486 62.8288 65.3338 57.7108 67.0631 60.386C67.7831 59.166 68.0159 57.9472 66.7869 56.7324C65.0749 56.0062 65.8297 58.684 64.3723 59.1752C62.6604 58.4489 60.7157 58.9414 59.9609 56.2636C65.523 51.6197 57.9467 48.9603 57.1918 46.2824C56.2217 46.7723 53.5614 48.9721 52.6042 50.9237C48.6932 49.4725 49.8743 45.3277 49.6068 42.6485C48.1319 41.1908 46.6919 43.6309 45.2128 41.6859C45.489 45.3395 41.0994 44.8641 39.4309 49.0102C36.4813 46.0947 37.9387 45.6035 35.4763 42.6867C38.3738 39.7553 39.5941 39.9957 41.2625 35.8496C42.9657 35.6013 44.9104 35.1088 46.6397 37.784C47.6055 36.8069 48.5713 35.8298 49.2957 35.097C53.6897 36.0596 59.08 39.4559 61.2139 32.8722C63.6458 32.3784 64.8748 33.5932 66.8456 36.0242C66.3757 37.9744 62.4907 39.4466 59.8 38.2358Z" fill="#71BA44"/>
<path fill-rule="evenodd" clip-rule="evenodd" d="M42.9094 29.2672C42.1633 27.5638 44.8454 27.8002 45.5654 26.5801C47.5275 28.0366 47.2947 29.2553 45.6002 30.478C45.1173 30.9666 44.121 28.533 42.9094 29.2672Z" fill="#71BA44"/>
<path fill-rule="evenodd" clip-rule="evenodd" d="M42.6898 31.9475C44.889 32.6725 44.6475 32.9168 46.8597 35.1034C45.4284 38.518 42.7464 38.2816 39.3182 36.3419C41.2672 36.3366 39.7793 33.4171 42.6898 31.9475Z" fill="#71BA44"/>
<path fill-rule="evenodd" clip-rule="evenodd" d="M51.9735 34.846C52.7022 34.6004 53.4309 34.3548 54.4011 33.8649C54.8927 34.3508 53.9225 34.8407 53.6854 35.5722C53.9312 35.8152 54.4185 35.8139 54.66 35.5696C54.9058 35.8125 54.9101 36.2998 54.6687 36.5441C54.4272 36.7883 54.1857 37.0326 53.9443 37.2769C51.9866 36.3077 52.9567 35.8178 51.9735 34.846Z" fill="#71BA44"/>
<path fill-rule="evenodd" clip-rule="evenodd" d="M27.6696 14.2035C29.636 16.1472 36.2248 17.3476 32.3703 22.2305C33.3579 23.6896 33.8364 22.7138 34.8196 23.6856C33.608 24.4198 34.5912 25.3916 33.3796 26.1257C32.8837 25.1526 30.4387 24.1847 31.4045 23.2076C28.9682 23.2141 26.7821 23.9509 24.3545 24.932C26.3122 25.9012 27.2824 25.4113 25.5966 27.6085C28.5201 27.6006 30.7584 32.7107 29.3184 35.1508C29.8057 35.1495 30.5431 35.8784 31.2805 36.6073C30.8019 37.5831 30.815 39.0448 30.8237 40.0192C29.3793 41.9721 28.1373 39.2956 26.9257 40.0298C25.9424 39.0579 26.421 38.0821 26.4123 37.1077C25.6749 36.3788 24.7047 36.8686 23.9847 38.0887C22.2685 36.8752 22.747 35.8994 22.2511 34.9263C21.2896 36.3906 20.3151 36.3932 19.3493 37.3703C16.4083 35.4293 18.0942 33.2321 14.1874 32.2681C14.4028 29.1004 17.0544 25.9262 19.9736 25.431C18.7098 20.3183 22.3185 15.1925 27.6696 14.2035Z" fill="#71BA44"/>
<path fill-rule="evenodd" clip-rule="evenodd" d="M57.144 40.9227C56.4197 41.6555 56.424 42.1427 56.6742 42.8729C58.6276 43.3549 60.3134 41.1578 62.2624 41.1525C62.5169 42.3699 63.7329 42.123 64.2375 44.0707C65.932 42.848 65.1946 42.1191 66.4019 40.8977C68.8904 46.738 81.3176 46.9481 77.9633 53.2914C87.4844 55.4583 74.657 64.9943 74.4634 70.5982C72.2946 73.2839 70.5871 73.0449 68.4053 74.2689C66.1887 71.595 62.7953 73.5531 59.5999 70.3946C59.8327 69.1759 60.3112 68.2001 59.3236 66.741C61.9927 65.5157 62.6779 60.3977 64.4072 63.0729C65.1272 61.8529 65.36 60.6341 64.1309 59.4193C62.419 58.693 63.1738 61.3709 61.7164 61.8621C60.0045 61.1358 58.0598 61.6283 57.305 58.9505C62.8671 54.3066 55.2907 51.6472 54.5359 48.9693C53.8072 49.2149 51.3883 51.1704 50.1898 53.3663C46.0329 51.6721 47.4598 47.7703 47.1923 45.0911C45.7175 43.6334 44.2775 46.0735 42.7983 44.1285C42.8331 48.0264 38.4434 47.551 36.775 51.6971C33.8254 48.7816 35.2828 48.2904 32.8204 45.3736C35.7179 42.4422 36.9382 42.6826 38.6066 38.5364C40.3098 38.2882 42.2545 37.7957 43.9838 40.4709C44.9496 39.4938 45.9154 38.5167 46.6398 37.7839C51.0338 38.7465 56.424 42.1427 58.5579 35.5591C60.9899 35.0653 62.2189 36.2801 64.1897 38.711C63.7198 40.6613 59.8348 42.1335 57.144 40.9227Z" fill="#71BA44"/>
<path fill-rule="evenodd" clip-rule="evenodd" d="M40.2535 31.9542C39.5073 30.2508 42.1894 30.4872 42.9094 29.2671C44.8715 30.7236 44.6388 31.9423 42.9442 33.165C42.4613 33.6536 41.4651 31.22 40.2535 31.9542Z" fill="#71BA44"/>
<path fill-rule="evenodd" clip-rule="evenodd" d="M40.0339 34.6345C42.233 35.3595 41.9916 35.6038 44.2038 37.7904C42.7725 41.205 40.0904 40.9686 36.6622 39.0289C38.6113 39.0236 37.1234 36.1041 40.0339 34.6345Z" fill="#71BA44"/>
<path fill-rule="evenodd" clip-rule="evenodd" d="M49.3177 37.5328C50.0464 37.2872 50.7751 37.0416 51.7452 36.5517C52.2368 37.0377 51.2667 37.5275 51.0296 38.259C51.2754 38.502 51.7626 38.5007 52.0041 38.2564C52.2499 38.4994 52.2543 38.9866 52.0128 39.2309C51.7713 39.4752 51.5299 39.7194 51.2884 39.9637C49.3307 38.9945 50.5423 38.2604 49.3177 37.5328Z" fill="#71BA44"/>
<path fill-rule="evenodd" clip-rule="evenodd" d="M25.0136 16.8906C26.9801 18.8342 33.5689 20.0346 29.7144 24.9175C30.7019 26.3766 31.6677 25.3995 32.4095 26.6156C30.9521 27.1068 31.9353 28.0786 30.7237 28.8128C30.2277 27.8396 27.7827 26.8717 28.7485 25.8946C26.3123 25.9012 24.1261 26.6379 21.6986 27.619C23.6563 28.5882 24.6265 28.0983 22.9406 30.2955C25.8642 30.2876 28.1025 35.3977 26.6625 37.8378C27.1497 37.8365 28.1286 38.3211 28.866 39.05C28.146 40.2701 28.1591 41.7318 28.1678 42.7063C26.7234 44.6592 25.4813 41.9826 24.2697 42.7168C23.2865 41.7449 23.7651 40.7691 23.7564 39.7947C23.0189 39.0658 22.0488 39.5556 21.3288 40.7757C19.6125 39.5622 20.0911 38.5864 19.5951 37.6133C18.6337 39.0776 17.6591 39.0802 16.6933 40.0573C13.7524 38.1163 15.4382 35.9191 11.5315 34.9552C11.7468 31.7875 14.3984 28.6132 17.3176 28.1181C16.0538 23.0053 19.6625 17.8795 25.0136 16.8906Z" fill="#71BA44"/>
<path fill-rule="evenodd" clip-rule="evenodd" d="M54.4881 43.6097C53.7638 44.3425 53.7681 44.8297 54.0183 45.5599C55.9716 46.0419 57.6574 43.8448 59.6065 43.8395C59.861 45.0569 61.0769 44.81 61.5816 46.7577C63.2761 45.535 62.5387 44.8061 63.746 43.5847C66.2344 49.425 78.6616 49.6351 75.3074 55.9784C84.8284 58.1453 72.001 67.6813 71.8074 73.2852C69.6387 75.9709 67.9311 75.7319 65.7494 76.9559C63.5328 74.282 60.1394 76.2401 56.944 73.0816C57.1767 71.8629 57.6553 70.8871 56.6677 69.428C59.5782 67.9584 60.0219 63.0847 61.7513 65.7599C62.4713 64.5399 62.704 63.3211 61.475 62.1063C59.7631 61.38 60.5179 64.0579 59.0605 64.5491C57.3486 63.8228 55.4039 64.3153 54.6491 61.6375C60.2112 56.9936 52.6348 54.3342 51.88 51.6563C51.1513 51.9019 48.7324 53.8574 47.5338 56.0533C43.377 54.3592 44.8039 50.4573 44.5364 47.7782C43.0615 46.3204 41.6215 48.7605 40.1424 46.8155C40.1772 50.7134 35.7875 50.238 34.1191 54.3841C31.1695 51.4686 32.6269 50.9774 30.1645 48.0606C33.0619 45.1292 34.2822 45.3696 35.9507 41.2235C37.6539 40.9752 39.5985 40.4827 41.3279 43.1579C42.2937 42.1808 43.2595 41.2037 43.9838 40.4709C48.3778 41.4335 53.7681 44.8297 55.902 38.2461C58.3339 37.7523 59.563 38.9671 61.5337 41.3981C61.0639 43.3483 57.1789 44.8205 54.4881 43.6097Z" fill="#71BA44"/>
<path fill-rule="evenodd" clip-rule="evenodd" d="M37.8387 34.3972C37.0926 32.6938 39.7747 32.9302 40.4947 31.7101C42.4568 33.1666 42.4698 34.6283 40.7753 35.851C39.8051 36.3409 38.8089 33.9073 37.8387 34.3972Z" fill="#71BA44"/>
<path fill-rule="evenodd" clip-rule="evenodd" d="M37.3777 37.3217C39.5769 38.0466 39.3354 38.2909 41.5476 40.4775C40.1163 43.8922 37.4343 43.6558 34.0061 41.716C36.1965 41.4665 34.4672 38.7913 37.3777 37.3217Z" fill="#71BA44"/>
<path fill-rule="evenodd" clip-rule="evenodd" d="M46.6615 40.22C47.3902 39.9745 48.1189 39.7289 49.0891 39.239C49.5807 39.7249 48.6105 40.2148 48.3734 40.9463C48.6192 41.1893 49.1065 41.1879 49.348 40.9437C49.5938 41.1866 49.5981 41.6739 49.3567 41.9182C49.1152 42.1624 48.8738 42.4067 48.6323 42.651C46.6746 41.6818 47.8862 40.9476 46.6615 40.22Z" fill="#71BA44"/>
<path fill-rule="evenodd" clip-rule="evenodd" d="M22.599 19.3334C24.5654 21.2771 31.1542 22.4774 27.2997 27.3603C28.2872 28.8194 29.0116 28.0866 29.9948 29.0584C28.2959 29.7939 29.2792 30.7657 28.0675 31.4999C27.5716 30.5267 25.1266 29.5588 26.0924 28.5817C23.6561 28.5883 21.47 29.3251 19.0424 30.3061C21.0002 31.2753 21.9703 30.7855 20.2845 32.9826C23.208 32.9747 25.4464 38.0848 24.0064 40.525C24.4936 40.5236 25.4725 41.0083 26.2099 41.7371C25.4899 42.9572 25.7444 44.1746 25.5116 45.3934C24.3087 47.102 22.8252 44.6698 21.6136 45.4039C20.6304 44.4321 21.1089 43.4563 21.1002 42.4818C20.3628 41.7529 19.3927 42.2428 18.6727 43.4628C16.9564 42.2494 17.4349 41.2736 17.1804 40.0561C15.9775 41.7647 15.003 41.7674 14.0372 42.7445C11.0963 40.8034 12.7821 38.6062 8.87534 37.6423C9.33214 34.2303 11.9838 31.056 14.6615 30.8052C13.6391 25.4482 17.0064 20.5666 22.599 19.3334Z" fill="#71BA44"/>
<path fill-rule="evenodd" clip-rule="evenodd" d="M51.8321 46.2967C51.1078 47.0295 51.1121 47.5168 51.3623 48.247C53.3156 48.729 55.0015 46.5318 56.9505 46.5265C57.205 47.744 58.4209 47.4971 58.9256 49.4447C60.6201 48.222 59.8827 47.4931 61.09 46.2717C63.5785 52.112 76.0056 52.3221 72.6514 58.6654C82.1725 60.8323 69.345 70.3683 69.1514 75.9722C66.9827 78.6579 65.2752 78.4189 63.0934 79.6429C60.8768 76.969 57.4834 78.9272 54.288 75.7687C54.5207 74.5499 54.9993 73.5741 54.0117 72.115C56.9222 70.6454 57.366 65.7718 59.0953 68.447C59.8153 67.2269 60.048 66.0081 58.819 64.7933C57.1071 64.0671 57.8619 66.7449 56.4045 67.2361C54.6926 66.5098 52.7479 67.0023 51.9931 64.3245C57.5552 59.6806 49.9788 57.0212 49.224 54.3434C48.4953 54.589 46.0764 56.5445 44.8779 58.7403C40.721 57.0462 42.1479 53.1443 41.8804 50.4652C40.4056 49.0074 38.9655 51.4475 37.4864 49.5025C37.5212 53.4004 33.373 52.6808 31.7046 56.8269C28.7549 53.9113 30.2123 53.4202 27.75 50.5033C30.6474 47.572 31.8677 47.8123 33.5361 43.6662C35.2393 43.418 36.9426 43.1698 38.6719 45.845C39.6377 44.8679 40.6035 43.8908 41.3279 43.1579C45.7219 44.1206 51.1121 47.5168 53.246 40.9332C55.678 40.4393 56.907 41.6541 58.8777 44.0851C58.4079 46.0353 54.5229 47.5076 51.8321 46.2967Z" fill="#71BA44"/>
<path fill-rule="evenodd" clip-rule="evenodd" d="M35.1828 37.0842C34.4367 35.3808 37.1187 35.6172 37.8388 34.3971C39.8008 35.8536 40.0553 37.071 38.1194 38.538C37.1492 39.0279 36.1529 36.5943 35.1828 37.0842Z" fill="#71BA44"/>
<path fill-rule="evenodd" clip-rule="evenodd" d="M34.7218 40.0087C36.9209 40.7336 36.6795 40.9779 38.8917 43.1646C37.4604 46.5792 34.7783 46.3428 31.3501 44.403C33.5406 44.1535 31.8113 41.4783 34.7218 40.0087Z" fill="#71BA44"/>
<path fill-rule="evenodd" clip-rule="evenodd" d="M44.0056 42.9071C44.9758 42.4172 45.463 42.4159 46.4332 41.926C46.9248 42.4119 45.9546 42.9018 45.7175 43.6333C45.9633 43.8763 46.4506 43.875 46.692 43.6307C46.9378 43.8736 46.9422 44.3609 46.7007 44.6052C46.4593 44.8494 46.2178 45.0937 45.9764 45.338C44.0186 44.3688 45.2303 43.6346 44.0056 42.9071Z" fill="#71BA44"/>
<path fill-rule="evenodd" clip-rule="evenodd" d="M19.943 22.0204C21.9094 23.9641 28.4983 25.1645 24.6437 30.0474C25.6313 31.5064 26.3557 30.7736 27.3389 31.7455C25.64 32.4809 26.8647 33.2085 25.653 33.9426C25.1571 32.9695 22.7121 32.0016 23.6779 31.0245C21.0002 31.2753 18.8141 32.0121 16.3865 32.9931C18.3442 33.9623 19.3144 33.4725 17.6286 35.6696C20.5521 35.6618 22.7904 40.7718 21.3504 43.212C21.8377 43.2107 22.8165 43.6953 23.5539 44.4241C22.8339 45.6442 23.0884 46.8617 22.8557 48.0804C21.6528 49.789 20.1693 47.3568 18.9576 48.0909C17.9744 47.1191 18.453 46.1433 18.4443 45.1688C17.7069 44.4399 16.7367 44.9298 16.0167 46.1499C14.3004 44.9364 14.779 43.9606 14.5245 42.7431C13.3216 44.4518 12.3471 44.4544 11.3813 45.4315C8.44032 43.4904 10.1261 41.2933 6.2194 40.3293C6.43475 37.1616 9.33217 34.2303 12.0056 33.4922C10.9832 28.1352 14.3505 23.2536 19.943 22.0204Z" fill="#71BA44"/>
<path fill-rule="evenodd" clip-rule="evenodd" d="M49.4176 48.7393C48.6933 49.4722 48.6976 49.9594 48.9478 50.6896C50.9012 51.1716 52.587 48.9744 54.536 48.9691C54.7905 50.1866 56.0065 49.9397 56.5111 51.8873C58.2056 50.6646 57.4682 49.9357 58.6755 48.7143C61.164 54.5546 73.5912 54.7647 70.2369 61.108C79.758 63.2749 66.9306 72.8109 66.737 78.4148C64.5683 81.1005 62.8607 80.8615 60.6789 82.0855C58.4623 79.4116 55.0689 81.3698 51.8735 78.2113C52.1063 76.9925 52.5848 76.0167 51.5973 74.5577C54.2663 73.3323 54.9515 68.2144 56.6808 70.8896C57.4008 69.6695 57.6336 68.4508 56.4045 67.2359C54.6926 66.5097 55.4474 69.1875 53.99 69.6787C52.2781 68.9525 50.3334 69.4449 49.5786 66.7671C55.1407 62.1232 47.5643 59.4638 46.8095 56.786C46.0808 57.0316 43.6619 58.9871 42.4634 61.1829C38.3065 59.4888 39.7335 55.5869 39.4659 52.9078C37.9911 51.45 36.5511 53.8902 35.0719 51.9452C35.1067 55.8431 30.7171 55.3677 29.0486 59.5138C26.099 56.5982 27.5564 56.1071 25.094 53.1902C27.9915 50.2589 29.2118 50.4992 30.8802 46.3531C32.5834 46.1049 34.2866 45.8567 36.016 48.5319C36.9818 47.5548 37.9476 46.5777 38.6719 45.8448C43.0659 46.8075 48.4562 50.2037 50.5901 43.62C53.022 43.1262 54.251 44.341 56.2218 46.772C55.752 48.7222 51.867 50.1945 49.4176 48.7393Z" fill="#71BA44"/>
<path fill-rule="evenodd" clip-rule="evenodd" d="M32.5268 39.7711C31.7807 38.0677 34.4628 38.3041 35.1828 37.084C37.1449 38.5405 36.9121 39.7592 35.2176 40.9819C34.4933 41.7148 33.497 39.2812 32.5268 39.7711Z" fill="#71BA44"/>
<path fill-rule="evenodd" clip-rule="evenodd" d="M32.0658 42.6957C34.265 43.4206 34.0235 43.6649 36.2358 45.8516C34.8045 49.2662 32.1224 49.0298 28.6942 47.09C30.8847 46.8405 29.3968 43.921 32.0658 42.6957Z" fill="#71BA44"/>
<path fill-rule="evenodd" clip-rule="evenodd" d="M41.3496 45.5941C42.3198 45.1042 43.0485 44.8586 43.7772 44.613C44.2688 45.0989 43.2987 45.5888 43.0616 46.3203C43.3074 46.5633 43.7946 46.562 44.0361 46.3177C44.2819 46.5607 44.2862 47.0479 44.0448 47.2922C43.8033 47.5364 43.5619 47.7807 43.3204 48.025C41.3627 47.0558 42.5743 46.3216 41.3496 45.5941Z" fill="#71BA44"/>
<path fill-rule="evenodd" clip-rule="evenodd" d="M17.2873 24.7077C19.2537 26.6514 25.8425 27.8517 21.988 32.7346C22.9756 34.1937 23.9414 33.2166 24.6831 34.4327C22.9843 35.1682 24.2089 35.8957 22.9973 36.6299C22.5014 35.6567 20.0564 34.6888 21.0222 33.7117C18.5859 33.7183 16.3998 34.4551 13.7308 35.6804C15.6885 36.6496 16.6586 36.1597 14.9728 38.3569C17.8964 38.349 20.1347 43.4591 18.6947 45.8992C19.1819 45.8979 20.1608 46.3825 20.8982 47.1114C20.1782 48.3315 20.4327 49.5489 20.2 50.7677C18.997 52.4763 17.5135 50.044 16.3019 50.7782C15.3187 49.8063 15.7973 48.8305 15.7886 47.8561C15.0511 47.1272 14.081 47.617 13.361 48.8371C11.6447 47.6236 12.1233 46.6478 11.8688 45.4304C10.9073 46.8947 9.69134 47.1416 8.72553 48.1187C5.78459 46.1777 7.47041 43.9805 3.56367 43.0166C4.02047 39.6046 6.67209 36.4303 9.59127 35.9352C8.32745 30.8225 11.6947 25.9409 17.2873 24.7077Z" fill="#71BA44"/>
<path fill-rule="evenodd" clip-rule="evenodd" d="M46.7617 51.4263C46.0374 52.1592 46.0417 52.6464 46.2919 53.3766C48.2452 53.8586 49.931 51.6614 51.8801 51.6561C52.1346 52.8736 53.3505 52.6267 53.8552 54.5743C55.5497 53.3516 54.8123 52.6227 56.0196 51.4013C58.508 57.2416 70.9352 57.4517 67.581 63.795C77.1021 65.9619 64.2746 75.4979 64.081 81.1018C61.9123 83.7875 60.2047 83.5485 58.023 84.7725C55.8064 82.0986 52.413 84.0568 49.2176 80.8983C49.4503 79.6795 49.9289 78.7038 48.9413 77.2447C51.6103 76.0193 52.2955 70.9014 54.0249 73.5766C54.7449 72.3565 54.9776 71.1378 53.7486 69.923C52.0367 69.1967 52.7915 71.8745 51.3341 72.3657C49.6222 71.6395 47.6775 72.132 46.9227 69.4541C52.4848 64.8102 44.9084 62.1508 44.1536 59.473C43.4249 59.7186 41.006 61.6741 39.8074 63.87C35.6505 62.1758 37.0775 58.274 36.81 55.5948C35.3351 54.137 33.8951 56.5772 32.416 54.6322C32.4508 58.5301 28.0611 58.0547 26.3927 62.2008C23.4431 59.2852 24.9005 58.7941 22.4381 55.8772C25.3355 52.9459 26.5558 53.1862 28.2243 49.0401C29.9275 48.7919 31.6307 48.5437 33.6015 50.9746C34.5673 49.9975 35.5331 49.0204 36.2574 48.2876C40.6514 49.2502 46.0417 52.6464 48.1756 46.0628C50.849 45.3247 51.5908 46.5408 53.5615 48.9717C53.3375 51.165 49.211 52.8815 46.7617 51.4263Z" fill="#71BA44"/>
</svg>
