<svg width="174" height="15" viewBox="0 0 174 15" fill="none" xmlns="http://www.w3.org/2000/svg">
<path d="M173.569 9.67086C174.506 9.30986 173.566 8.59644 173.568 9.31272C173.569 9.67086 173.57 10.029 173.569 9.67086Z" fill="#71BA44"/>
<path d="M3.77293 7.32262C6.57947 4.80709 8.4632 7.30834 11.273 5.86722C11.273 5.86722 11.2774 7.29977 11.2763 6.94164C14.0839 4.78425 16.9024 6.20823 19.722 7.99035L19.7231 8.34849C19.7242 8.70663 20.6579 7.27122 21.597 7.6265C21.5981 7.98464 21.5981 7.98464 21.5992 8.34278C21.597 7.6265 22.5362 7.98179 22.534 7.26551C22.5351 7.62365 22.5373 8.33992 22.5384 8.69806L22.5351 7.62365C23.4666 5.47197 24.4123 7.97607 26.284 6.53781C26.2851 6.89595 26.2851 6.89595 26.2862 7.25409C28.158 5.81583 30.9732 6.1654 32.8482 5.80155C32.8493 6.15969 32.8515 6.87596 32.8526 7.2341C32.8493 6.15969 33.7874 6.15683 34.7243 5.79584C34.7276 6.87025 35.6591 4.71857 36.5994 5.43199L36.6004 5.79013C37.5352 4.71286 37.5407 6.50355 37.5363 5.071L37.5385 5.78727C37.5341 4.35473 38.4788 6.50069 38.4766 5.78442L38.4755 5.42628C38.4744 5.06814 39.4146 5.78156 39.4135 5.42343C40.3505 5.06243 40.3527 5.77871 40.3494 4.7043C40.3527 5.77871 39.4124 5.06529 39.4168 6.49784C42.2277 5.41486 45.043 5.76443 47.8571 5.75587C47.8582 6.114 47.8593 6.47214 47.8604 6.83028C47.8593 6.47214 48.7973 6.46929 48.7963 6.11115L48.7984 6.82742C48.7995 7.18556 49.7332 5.75016 49.7343 6.10829C49.7354 6.46643 49.7365 6.82457 49.7376 7.18271C50.6735 6.46358 50.6734 6.46357 51.6104 6.10258C51.6115 6.46072 51.6115 6.46072 51.6126 6.81886C52.5474 5.74159 52.5517 7.17414 53.4876 6.45501L53.4898 7.17128C54.43 7.8847 53.4854 5.73873 54.4257 6.45215C54.4268 6.81029 54.4268 6.81029 54.4278 7.16843C55.3626 6.09116 56.3018 6.44644 57.2387 6.08545L57.2398 6.44359C58.1779 6.44073 59.117 6.79601 59.1148 6.07974C59.1159 6.43788 59.1203 7.87043 60.0573 7.50943C60.0529 6.07688 60.9942 7.14844 60.9888 5.35775C61.9279 5.71304 62.8671 6.06832 62.866 5.71018C62.8671 6.06832 62.8714 7.50087 62.8714 7.50087L62.8736 8.21714C62.8758 8.93342 62.8725 7.85901 62.8747 8.57528C62.8747 8.57528 63.8106 7.85615 63.8117 8.21429C63.8095 7.49801 64.7432 6.06261 65.6801 5.70161C65.6812 6.05975 65.6845 7.13416 65.6856 7.4923L67.5541 4.97963C67.5541 4.97963 67.5573 6.05404 67.5562 5.6959C67.5552 5.33777 67.5541 4.97963 67.5541 4.97963C67.5541 4.97963 68.491 4.61864 68.4954 6.05119C68.4965 6.40932 67.5584 6.41218 68.4976 6.76746C69.4356 6.76461 69.4345 6.40647 69.4345 6.40647C69.4356 6.76461 70.3704 5.68734 70.3682 4.97106C70.3682 4.97106 70.3704 5.68734 70.3693 5.3292C70.3671 4.61293 71.3041 4.25193 72.2422 4.24908C72.2432 4.60722 72.2443 4.96535 72.2454 5.32349C73.1802 4.24622 74.1172 3.88523 75.0541 3.52424C75.052 2.80796 75.0574 4.59865 74.1183 4.24337C75.0585 4.95679 75.9911 3.16324 76.9324 4.2348L76.9302 3.51853C76.9302 3.51853 76.9335 4.59294 77.8705 4.23194C77.8716 4.59008 77.8705 4.23195 78.8074 3.87095C78.8064 3.51282 78.8085 4.22909 78.8085 4.22909C77.8694 3.87381 79.7433 3.15182 80.6836 3.86524C80.6825 3.5071 81.6172 2.42984 81.6183 2.78797L81.6205 3.50425C81.6216 3.86239 82.5586 3.50139 82.5608 4.21767C83.4955 3.1404 80.6868 4.93965 81.6227 4.22052C81.6249 4.9368 82.5564 2.78512 82.5608 4.21767C83.4988 4.21481 83.4955 3.1404 83.4988 4.21481C83.4988 4.21481 82.564 5.29208 83.5021 5.28923C84.4401 5.28637 83.501 4.93109 84.438 4.5701L84.4369 4.21196C84.4347 3.49568 85.3749 4.2091 84.4347 3.49568C84.4358 3.85382 85.3706 2.77655 85.3749 4.2091L85.3782 5.28352C85.3782 5.28352 86.313 4.20625 86.3119 3.84811L86.313 4.20625C86.3086 2.7737 87.251 4.20339 87.2478 3.12898C88.188 3.8424 89.1239 3.12327 89.1271 4.19768C89.125 3.48141 89.1239 3.12327 90.063 3.47855L90.0641 3.83669C90.0652 4.19483 90.0641 3.83669 91.0011 3.4757C91.0021 3.83383 91.9424 4.54725 91.9435 4.90539C91.9435 4.90539 91.9402 3.83098 91.9391 3.47284C91.9435 4.90539 92.8739 2.39557 93.8163 3.82527C93.8174 4.1834 92.8804 4.5444 93.8196 4.89968C93.825 6.69037 93.8163 3.82527 94.7566 4.53869L94.7522 3.10614C94.7544 3.82241 95.6881 2.38701 95.6924 3.81956C95.6913 3.46142 96.6316 4.17484 96.6283 3.10043C97.5696 4.17198 99.4403 2.37559 99.4468 4.52441C99.4457 4.16627 100.385 4.52155 100.383 3.80528C100.381 3.08901 100.384 4.16342 99.4446 3.80814C99.4446 3.80814 99.4436 3.45 99.4425 3.09186C99.4436 3.45 100.382 3.44714 99.4468 4.52441C101.326 5.59311 101.317 2.72801 102.258 3.44143C102.259 3.79957 102.26 4.15771 102.26 4.15771L103.195 3.08044C103.195 3.08044 103.198 4.15485 103.201 5.22926C103.201 5.22926 104.139 5.22641 104.137 4.51013L104.14 5.58455C104.138 4.86827 104.139 5.22641 105.076 4.86542L105.077 5.22355C105.078 5.58169 105.077 5.22355 106.015 5.2207C106.013 4.50442 106.013 4.50442 105.074 4.14914C105.073 3.791 105.073 3.791 106.01 3.43001C106.012 4.14629 106.95 4.14343 106.95 4.14343C106.951 4.50157 106.948 3.42716 107.886 3.4243C107.887 3.78244 108.824 3.42144 107.888 4.14057C107.888 4.14057 107.887 3.78244 107.888 4.14057C107.889 4.49871 107.891 5.21499 108.828 4.85399C108.827 4.49586 108.823 3.06331 109.763 3.77673C109.764 4.13486 109.765 4.493 109.765 4.493L107.889 4.49871L107.887 3.78244C107.888 4.14057 107.888 4.14057 107.888 4.14057C107.886 3.4243 108.825 3.77958 108.823 3.06331L109.763 3.77673C109.764 4.13486 110.701 3.77387 110.7 3.41573C110.7 3.41573 111.638 3.41288 111.637 3.05474C112.577 3.76816 111.646 5.91984 112.581 4.84257C112.581 4.84257 113.514 3.40717 113.513 3.04903C113.514 3.40717 115.387 2.32705 115.39 3.40146C115.389 3.04332 115.389 3.04332 115.388 2.68518C117.265 3.03761 119.138 1.95749 119.143 3.39004C119.144 3.74817 119.145 4.10631 119.146 4.46445C119.144 3.74817 119.148 5.18072 120.083 4.10345C120.081 3.38718 120.08 3.02904 120.079 2.67091C120.077 2.31277 121.954 2.30706 121.956 3.02333C121.955 2.66519 121.954 2.30706 121.954 2.30706C121.957 3.38147 121.958 3.73961 122.895 3.37861L122.893 2.66234L122.895 3.37861C122.894 3.02048 122.891 1.94607 123.831 2.65948C123.832 3.01762 123.833 3.37576 123.833 3.37576C123.831 2.65948 124.767 1.94035 125.706 2.29564L125.709 3.37005C125.709 3.37005 126.645 2.65092 125.706 2.29564C126.646 3.00905 127.584 3.0062 127.587 4.08061C128.519 1.92893 131.332 1.56223 132.271 1.91751L132.272 2.27565C132.273 2.63379 132.269 1.20124 133.208 1.55652C133.209 1.91466 133.211 2.63093 133.214 3.34721C133.216 4.06348 134.149 2.62807 134.148 2.26994C134.146 1.55366 134.149 2.62808 134.147 1.9118C134.146 1.55366 135.087 2.62522 135.084 1.55081C135.085 1.90895 135.087 2.62522 135.089 2.98336L135.087 2.62522C135.091 3.69963 134.156 4.7769 134.16 6.20945C134.164 7.28386 133.225 7.28672 134.165 7.642C134.164 7.28386 135.096 5.49032 134.157 5.13504C135.094 4.77404 134.149 2.62808 135.087 2.62522C135.09 3.3415 134.149 2.62807 134.153 3.70249C134.155 4.41876 135.09 3.3415 135.091 3.69963C135.09 3.3415 135.086 2.26708 135.085 1.90894C135.086 2.26708 135.089 2.98336 135.089 2.98336C135.086 2.26708 136.023 1.90609 135.084 1.55081C135.08 0.118258 136.023 1.90609 136.02 0.831677C136.023 1.90609 135.089 2.98336 136.029 3.69678C136.025 2.62236 136.962 2.26137 136.959 1.18696C136.96 1.5451 136.962 2.26137 136.964 2.61951C136.966 3.33578 137.896 0.825967 137.902 2.61665L137.898 1.54224C137.899 1.90038 137.901 2.25852 137.902 2.61665C137.902 2.61665 138.835 1.18125 138.84 2.6138C138.84 2.6138 139.778 2.61094 139.774 1.53653C139.772 0.820256 138.839 2.25566 138.834 0.823111C138.837 1.89752 139.772 0.820256 139.771 0.462119L139.773 1.17839C139.772 0.820256 140.711 1.17554 140.709 0.459263C140.71 0.817401 140.711 1.17554 140.711 1.17554L140.709 0.459263C144.46 0.0897045 143.528 1.88325 144.466 1.88039L143.53 2.59952C143.53 2.59952 143.532 3.3158 144.469 2.9548C144.467 2.23853 144.464 1.16412 144.463 0.805979C144.461 0.447842 144.465 1.52225 145.401 0.803124L145.404 1.87754C145.405 2.23567 145.408 3.31009 146.345 2.94909C146.344 2.59096 147.279 1.51369 146.34 1.15841C146.34 1.15841 147.279 1.51369 146.343 2.23282C147.28 1.87183 146.341 1.51654 146.339 0.800269C146.34 1.15841 147.28 1.87183 147.283 2.94624L146.35 4.38164C146.353 5.45606 146.352 5.09792 146.355 6.17233L147.292 5.81134C147.285 3.66251 149.159 2.94053 149.155 1.50798C150.092 1.14699 149.167 5.44749 150.097 2.93767C150.096 2.57953 150.092 1.14698 150.094 1.86326C151.032 1.8604 150.089 0.0725725 151.029 0.785992C150.093 1.50512 151.971 2.21569 151.037 3.29295C151.035 2.93482 151.035 2.93482 150.097 2.93767C150.1 3.65395 150.102 4.37022 151.04 4.36737C151.04 4.36737 151.977 4.00637 151.975 3.2901C151.971 2.21569 151.037 3.29295 151.972 2.57382C151.972 2.57382 151.977 4.00637 152.909 2.21283C152.909 2.21283 151.969 1.49941 151.967 0.783137L152.904 0.422144L152.906 1.13842C152.907 1.49656 152.903 0.0640065 152.903 0.0640065L152.906 1.13842C152.909 2.21283 151.967 0.783137 151.971 2.21569C152.909 2.21283 152.907 1.49656 152.908 1.85469L152.909 2.21283C152.909 2.21283 152.916 4.36166 153.851 3.28439C153.85 2.92625 153.849 2.56811 153.847 2.20998C155.724 2.20426 155.721 1.48799 156.658 1.127C156.662 2.20141 157.596 1.12414 156.663 2.55955C156.66 1.84327 154.784 1.84898 154.788 2.92339C154.792 4.35595 153.849 2.56811 153.854 4.3588C154.792 4.35595 154.796 5.7885 154.8 6.86291L154.799 6.50477C154.796 5.78849 154.796 5.78849 154.793 4.71408C155.731 4.71123 156.668 4.35023 156.666 3.63396C156.667 3.9921 156.67 5.06651 156.67 5.06651C157.607 4.70552 158.546 5.0608 159.484 5.05794C158.542 3.62825 160.421 4.69695 160.418 3.62254C159.479 3.26726 159.476 2.19284 159.474 1.47657C159.474 1.47657 159.476 2.19284 159.477 2.55098C159.475 1.83471 160.418 3.62254 160.415 2.54813C159.478 2.90912 160.42 4.33881 160.424 5.41323C161.359 4.6941 160.426 6.1295 161.364 6.12664C161.362 5.41037 162.299 5.04938 162.298 4.69124C163.239 5.7628 164.174 4.68553 165.112 4.68267C165.114 5.39895 165.117 6.47336 166.056 6.82864C166.994 6.82579 166.052 5.39609 166.054 6.11237L166.055 6.47051C166.054 6.11237 166.995 7.18393 167.928 5.39038L167.932 6.82293L167.931 6.46479C167.932 6.82293 167.933 7.18107 167.935 7.53921C167.937 8.25548 168.872 7.17821 168.872 7.17821L168.869 6.46194C169.805 5.74281 169.807 6.45908 170.745 6.45623L170.748 7.1725L170.747 6.81437C170.749 7.53064 170.751 8.24692 171.687 7.52779L170.754 9.32133C170.753 8.96319 170.751 8.24692 170.749 7.53064C170.747 6.81437 169.81 7.17536 169.812 7.89163C169.812 7.89163 169.812 7.89163 170.749 7.53064C170.752 8.60505 170.752 8.60505 169.816 9.32418C169.816 9.32418 169.817 9.68232 169.816 9.32418C169.818 10.0405 168.88 10.0433 168.88 10.0433C168.879 9.68518 168.878 9.32704 168.877 8.9689C168.88 10.0433 168.881 10.4015 167.942 10.0462C167.939 8.97176 167.006 10.7653 166.067 10.41C166.064 9.33561 167 8.61647 166.999 8.25834C166.998 7.9002 166.061 8.26119 166.06 7.90306C166.062 8.61933 166.065 9.69374 165.128 10.0547L165.126 9.33846C164.189 9.69945 164.192 10.7739 164.191 10.4157C163.252 10.0604 162.314 10.0633 161.376 10.0662L161.374 9.34988C160.44 10.7853 159.499 9.71373 158.563 10.4329C157.623 9.71944 156.689 11.1548 155.746 9.72515C153.872 10.4471 152.937 11.1663 151.059 10.8138L151.056 9.73943C151.058 10.4557 151.054 9.02315 150.117 9.38415C151.057 10.0976 150.12 10.4586 150.122 11.1748C149.182 10.4614 148.246 11.1805 147.31 11.8997L147.308 11.1834C146.375 12.6188 145.432 11.1891 144.494 11.192C144.493 10.8338 144.491 10.1176 143.553 10.1204C142.618 11.1977 142.618 11.1977 141.682 11.9168C140.744 11.9197 139.805 11.5644 139.804 11.2062C137.933 13.0026 135.116 11.9368 133.242 12.6588L133.24 11.9425C131.369 13.7389 128.549 11.9568 126.677 13.0369L126.672 11.6044C125.733 11.2491 125.735 11.9653 125.739 13.0398C124.799 12.6845 123.865 13.7617 123.861 12.6873C122.922 12.3321 122.925 13.4065 122.925 13.4065C121.985 12.693 121.048 13.054 120.111 13.415C120.11 13.0569 120.108 12.3406 120.108 12.3406C120.109 12.6988 118.231 11.9882 119.174 13.776C118.233 12.7045 116.362 14.5009 115.42 13.0712C115.421 13.4293 115.422 13.7874 115.422 13.7874C114.484 13.7903 113.543 12.7187 112.608 13.796C112.607 13.4379 112.606 13.0797 112.606 13.0797L112.608 13.796C110.734 14.518 108.852 12.733 107.915 13.094C103.228 14.1827 100.412 13.475 98.5371 13.8388L98.536 13.4807C97.6012 14.558 96.6556 12.0539 95.7229 13.8474C95.7219 13.4893 94.7849 13.8503 94.7827 13.134C93.8479 14.2113 92.9033 12.0653 91.9696 13.5007C91.9696 13.5007 91.9696 13.5007 91.9686 13.1426C91.0283 12.4291 90.0935 13.5064 89.1533 12.793C89.1533 12.793 89.1522 12.4348 89.1511 12.0767C89.1489 11.3604 88.2174 13.5121 88.212 11.7214L88.2141 12.4377C86.3359 11.7271 83.525 12.8101 80.7119 13.1768C78.8325 12.1081 80.7032 10.3117 79.7695 11.7471C79.7684 11.389 79.7717 12.4634 79.7706 12.1053C78.8336 12.4663 78.8271 10.3174 78.8292 11.0337C78.8325 12.1081 78.8314 11.75 78.8325 12.1081C77.8923 11.3947 77.889 10.3203 76.9542 11.3975L76.952 10.6813C76.0184 12.1167 75.0781 11.4033 74.1455 13.1968C67.5802 13.5749 61.9552 14.6665 56.3269 14.6836C50.6974 14.3426 46.0093 15.0732 40.3777 14.0159C39.4353 12.5862 39.4353 12.5862 37.5614 13.3082C37.5603 12.95 37.5603 12.95 37.5603 12.95C37.5636 14.0244 36.6223 12.9529 36.6255 14.0273C34.7483 13.6749 32.8733 14.0387 30.9972 14.0444C30.9972 14.0444 31.932 12.9672 30.9939 12.97L30.0581 13.6891L30.057 13.331C30.057 13.331 29.1211 14.0501 30.0602 14.4054C24.4341 15.1388 19.7373 13.0043 15.047 13.0186C14.1079 12.6633 12.2329 13.0271 11.2948 13.03C7.53715 11.2507 4.71971 10.1849 0.0316228 10.9154C0.969668 10.9126 1.89901 8.0446 3.77293 7.32262Z" fill="#71BA44"/>
<path d="M172.631 9.67389C172.629 8.95761 171.69 8.60233 172.626 7.8832C172.628 8.59948 172.63 9.31575 172.631 9.67389Z" fill="#71BA44"/>
<path d="M157.603 3.27306C157.602 2.91492 158.537 2.19579 158.537 2.19579L157.603 3.27306Z" fill="#71BA44"/>
<path d="M154.786 2.56537C154.786 2.56537 154.785 2.20723 154.784 1.84909C153.847 2.21009 154.783 1.49096 154.786 2.56537Z" fill="#71BA44"/>
<path d="M72.239 3.53289C72.2401 3.89102 72.2379 3.17475 72.2368 2.81661C72.2368 2.81661 71.3009 3.53574 72.239 3.53289Z" fill="#71BA44"/>
</svg>
