<svg width="262" height="55" viewBox="0 0 262 55" fill="none" xmlns="http://www.w3.org/2000/svg">
<path d="M21.4456 5.91742C21.6072 5.56735 21.7755 5.24421 21.9438 4.948C21.6476 5.43944 21.4793 5.83664 21.4456 5.91742Z" fill="url(#paint0_linear_173:74)"/>
<path d="M18.1604 23.7172C18.12 24.8347 18.0931 25.9724 18.0931 27.1236C18.0931 28.2277 18.1132 29.3183 18.1536 30.3954C18.2008 31.6207 18.2681 32.8257 18.3623 34.0038C18.4229 34.7915 18.497 35.5657 18.5845 36.3197C18.7057 37.3699 18.8403 38.3864 18.9952 39.3693C19.3116 41.3553 19.7088 43.1931 20.18 44.8425C20.4829 45.8927 20.8061 46.8487 21.1562 47.6767C21.1562 47.6767 21.1562 47.6835 21.1629 47.6902C21.1629 47.6969 21.1696 47.7036 21.1696 47.7104C21.1763 47.7171 21.1764 47.7306 21.1831 47.744C21.1898 47.7575 21.1965 47.771 21.2033 47.7844C21.21 47.7979 21.2167 47.8181 21.2235 47.8316C21.2302 47.845 21.2369 47.8585 21.2437 47.8787C21.587 48.6798 21.9505 49.3597 22.3141 49.905C22.6507 50.4032 22.9873 50.7802 23.3037 51.0091C24.1048 51.817 25.1146 52.4565 26.3129 52.4565C26.7371 52.4565 27.1814 52.3286 27.6324 52.1064C27.2016 52.6517 26.7505 53.1028 26.2793 53.4394C25.5387 53.9712 24.7511 54.2338 23.9365 54.2338C23.1219 54.2338 22.3343 53.9645 21.5937 53.4394C20.9811 53.0018 20.3954 52.369 19.8501 51.5679C18.8874 50.1474 18.0392 48.1547 17.3189 45.6504C16.8678 44.075 16.4841 42.3382 16.1609 40.4734C15.9926 39.504 15.8513 38.5009 15.7234 37.4709C15.5079 35.734 15.3464 33.9163 15.2454 32.0515C15.1781 30.8532 15.1377 29.628 15.1242 28.3893C15.1175 27.9651 15.1175 27.541 15.1175 27.1102C15.1175 26.6389 15.1175 26.1677 15.1309 25.6964C15.1511 24.4577 15.1915 23.2325 15.2588 22.0342C15.3666 20.1694 15.5281 18.3584 15.7435 16.6283C15.8715 15.5983 16.0196 14.6019 16.1879 13.6392C16.2148 13.646 16.235 13.6527 16.2619 13.6527C16.2417 13.646 16.2148 13.6325 16.1946 13.6258C16.511 11.8081 16.888 10.1116 17.3256 8.57669C18.0459 6.07235 18.8942 4.07965 19.8569 2.65918C20.4022 1.85806 20.9879 1.23197 21.6005 0.787655C22.3477 0.269284 23.1354 0 23.95 0C24.7646 0 25.5522 0.269284 26.2927 0.794388C26.9054 1.23197 27.4911 1.86479 28.0364 2.66591C28.999 4.08638 29.8473 6.07908 30.5676 8.58342C31.0052 10.1183 31.3822 11.8081 31.6986 13.6123C31.6919 13.6123 31.6919 13.6123 31.6852 13.619C28.447 3.13043 25.6263 1.97924 23.7682 2.99578C23.3508 3.1035 22.8324 3.58148 22.3275 4.33547C22.1996 4.52397 22.0717 4.72593 21.9505 4.94809V4.95482C21.6543 5.44627 21.486 5.85019 21.4524 5.92425V5.93098V5.93771C21.2302 6.42242 21.008 6.96099 20.7994 7.53995C20.5907 8.11891 20.3887 8.745 20.2002 9.41147C19.7357 11.0272 19.3452 12.8246 19.0355 14.7635C18.874 15.7464 18.7393 16.7629 18.6182 17.8131C18.5306 18.5671 18.4566 19.3346 18.3893 20.1155C18.2815 21.2802 18.2075 22.4852 18.1604 23.7172Z" fill="url(#paint1_linear_173:74)"/>
<path d="M16.2013 13.6392C16.2215 13.6459 16.2485 13.6527 16.2687 13.6661C16.2417 13.6594 16.2215 13.6527 16.1946 13.6527C16.1946 13.6392 16.1946 13.6392 16.2013 13.6392Z" fill="url(#paint2_linear_173:74)"/>
<path d="M31.7121 13.7065C31.7053 13.6796 31.6919 13.6459 31.6852 13.619C31.6919 13.619 31.6919 13.6122 31.6986 13.6122C31.6986 13.6459 31.7053 13.6796 31.7121 13.7065Z" fill="url(#paint3_linear_173:74)"/>
<path d="M32.7691 27.1235C32.7691 27.5543 32.7691 27.9852 32.7623 28.416C32.7421 29.6547 32.7017 30.8733 32.6344 32.0716C32.5334 33.9431 32.3719 35.7675 32.1564 37.5044C32.0285 38.5344 31.8804 39.5375 31.7189 40.5069C31.4024 42.3582 31.0187 44.0884 30.5677 45.6637C29.8473 48.168 28.9991 50.1607 28.0364 51.5812C27.9085 51.7697 27.7738 51.9515 27.6459 52.1198C27.1949 52.3486 26.7506 52.4698 26.3264 52.4698C25.1281 52.4698 24.1183 51.8303 23.3172 51.0224C23.5461 51.1907 23.7615 51.2782 23.9567 51.2782C24.4011 51.2782 25.0002 50.7801 25.5859 49.9184C26.3601 48.7739 27.1006 47.0168 27.72 44.8491C28.1912 43.2065 28.5884 41.3686 28.9048 39.3894C29.0597 38.4065 29.2011 37.3899 29.3155 36.3397C29.403 35.579 29.4771 34.7981 29.5377 34.0104C29.6319 32.8323 29.706 31.6272 29.7464 30.402C29.7867 29.3249 29.8069 28.2275 29.8069 27.1235C29.8069 25.9723 29.7867 24.8278 29.7396 23.7103C29.6925 22.4851 29.6184 21.2733 29.5242 20.1019C29.4569 19.3142 29.3828 18.54 29.2953 17.7861C29.1741 16.7358 29.0327 15.7193 28.8779 14.7364C28.5615 12.8043 28.171 11.0136 27.7133 9.40459C27.0939 7.23012 26.3534 5.47978 25.5792 4.33532C24.9935 3.46688 24.4011 2.97544 23.95 2.97544C23.8894 2.97544 23.8288 2.98217 23.7682 3.00236C25.6263 1.98582 28.4471 3.14374 31.6852 13.6256C31.6919 13.6525 31.7054 13.6862 31.7121 13.7131C31.8737 14.6556 32.0151 15.625 32.143 16.6214C32.3651 18.3583 32.5267 20.1759 32.6344 22.0407C32.7017 23.2391 32.7421 24.4643 32.7623 25.703C32.7623 26.1742 32.7691 26.6455 32.7691 27.1235Z" fill="url(#paint4_linear_173:74)"/>
<path d="M16.1946 13.646C16.0263 14.6087 15.8782 15.6118 15.7503 16.6351C13.9124 15.9349 12.1621 15.3762 10.5329 14.9722C8.33826 14.4269 6.45327 14.1846 5.07319 14.2856C4.02972 14.3596 3.30265 14.6222 3.08049 15.0126C3.05356 15.0665 3.02663 15.1203 3.01317 15.1877C3.06703 13.0671 5.47712 11.1955 16.1946 13.646Z" fill="url(#paint5_linear_173:74)"/>
<path d="M47.4989 36.3935C47.4652 36.8984 47.3575 37.3427 47.1421 37.713C46.5429 38.7498 45.486 39.3085 44.3819 39.598C44.6445 39.4836 44.833 39.3422 44.9272 39.1739C45.1494 38.7834 45.0147 38.0227 44.5637 37.0869C43.9578 35.8415 42.8066 34.3268 41.238 32.7043C40.0532 31.4724 38.6596 30.2135 37.1045 28.9478C36.3303 28.3217 35.5157 27.6889 34.6675 27.0628C34.0482 26.6051 33.4153 26.154 32.7623 25.703C31.7929 25.0297 30.7831 24.37 29.7396 23.717C28.8308 23.1448 27.895 22.5793 26.9391 22.0272C25.9427 21.4483 24.9396 20.8962 23.95 20.3779C22.8661 19.8056 21.7823 19.2671 20.7119 18.7622C20.005 18.4256 19.2981 18.1091 18.6047 17.8062C18.7259 16.756 18.8673 15.7394 19.0221 14.7566C20.6311 15.4298 22.2737 16.1972 23.9433 17.0387C25.0137 17.5773 26.0975 18.1563 27.1814 18.7554C27.5921 18.9843 28.0095 19.2199 28.4201 19.4556C28.7904 19.671 29.1606 19.8864 29.5242 20.1018C30.5879 20.7347 31.6246 21.3809 32.6344 22.0407C34.2097 23.0707 35.7042 24.1209 37.1045 25.1778C37.9326 25.8039 38.727 26.4368 39.4877 27.0628C40.9351 28.2679 42.2411 29.4662 43.3721 30.6376C45.183 32.5091 46.4823 34.246 47.2363 35.7876C47.3306 35.9896 47.4181 36.1916 47.4989 36.3935Z" fill="url(#paint6_linear_173:74)"/>
<path d="M15.7369 37.4844C15.8648 38.5144 16.0129 39.5175 16.1745 40.4869C14.451 41.1197 12.8017 41.6381 11.2533 42.0218C8.72202 42.6546 6.57448 42.9104 4.86453 42.7893C3.90184 42.7219 3.06032 42.5267 2.37365 42.217C1.5456 41.84 0.919518 41.2947 0.50886 40.5879C0.104934 39.881 -0.0566367 39.0664 0.0308806 38.1643C0.104934 37.4103 0.354021 36.589 0.778143 35.7206C1.53214 34.1789 2.8247 32.442 4.64237 30.5705C5.75316 29.4193 7.03226 28.2412 8.45274 27.0631C8.47293 27.0496 8.49313 27.0294 8.50659 27.016C8.4864 27.0362 8.47293 27.0496 8.45947 27.0698C0.980107 35.1214 1.39076 38.1509 3.19497 39.2482C3.50464 39.5579 4.17112 39.7666 5.07322 39.8271C5.30211 39.8406 5.53774 39.8541 5.79356 39.8473H5.80029C6.37252 39.8541 6.80337 39.8002 6.88416 39.7935H6.89089H6.89762C7.42946 39.7464 8.00169 39.6656 8.61431 39.5579C9.22019 39.4501 9.86648 39.3088 10.533 39.1405C12.1621 38.7365 13.9057 38.1778 15.7369 37.4844Z" fill="url(#paint7_linear_173:74)"/>
<path d="M47.9769 15.8878C47.9028 16.6418 47.6537 17.4631 47.2296 18.3316C46.4823 19.88 45.183 21.6101 43.3654 23.4816C42.2276 24.653 40.9216 25.8581 39.4809 27.0564C38.727 27.6825 37.9326 28.3153 37.0978 28.9414C35.6975 29.9983 34.203 31.0485 32.6344 32.0718C31.6313 32.7315 30.5946 33.3778 29.5309 34.0106C29.1606 34.2328 28.7904 34.4482 28.4201 34.6637C28.0095 34.906 27.5921 35.1349 27.1747 35.3705C26.0908 35.9697 25.0137 36.5486 23.9433 37.0872C22.267 37.9287 20.6176 38.6962 19.0019 39.3761C18.8471 38.3932 18.7057 37.3767 18.5912 36.3265C19.2914 36.0235 19.9983 35.7004 20.7119 35.3638C21.7823 34.8589 22.8594 34.3203 23.95 33.7481C24.9463 33.223 25.9427 32.671 26.939 32.0987C27.895 31.5467 28.8308 30.9812 29.7463 30.409C30.7831 29.756 31.7929 29.0895 32.7623 28.423C33.4153 27.9719 34.0481 27.5209 34.6675 27.0631C35.5157 26.437 36.3303 25.8109 37.1045 25.1781C38.6596 23.9125 40.0532 22.6536 41.238 21.4216C41.9988 20.634 42.6585 19.8732 43.2105 19.1596C43.2105 19.1596 43.2173 19.1529 43.2173 19.1462C43.224 19.1394 43.224 19.1327 43.2307 19.126C43.2375 19.1192 43.2442 19.1058 43.2509 19.099C43.2577 19.0923 43.2711 19.0788 43.2779 19.0654C43.2913 19.0519 43.298 19.0385 43.3115 19.025C43.3182 19.0115 43.3317 18.9981 43.3384 18.9846C43.8635 18.2845 44.2742 17.6314 44.5569 17.039C44.8195 16.5005 44.9743 16.0157 45.0147 15.632C45.3177 14.5347 45.3648 13.3364 44.7656 12.2996C44.5569 11.9361 44.2271 11.6129 43.803 11.3302C44.4896 11.4244 45.1022 11.5995 45.6274 11.8351C46.4554 12.2121 47.0815 12.7574 47.4921 13.4643C47.9028 14.1644 48.0644 14.9857 47.9769 15.8878Z" fill="url(#paint8_linear_173:74)"/>
<path d="M10.8225 25.1712C12.216 24.1143 13.7038 23.0708 15.2657 22.0475C15.1983 23.2459 15.1512 24.4711 15.1378 25.7098C14.4915 26.1541 13.8654 26.6052 13.2528 27.0562C12.4045 27.6823 11.5967 28.3151 10.8225 28.9412C9.30103 30.1799 7.94114 31.4186 6.76976 32.6237C5.20118 34.2461 4.04999 35.7676 3.4441 37.0063C2.98632 37.9488 2.85168 38.7095 3.07384 39.0932C3.10077 39.1471 3.14116 39.1942 3.18828 39.2413C1.37735 38.1373 0.966691 35.1145 8.44605 27.0562C8.45952 27.036 8.47971 27.0226 8.49318 27.0024C9.24044 26.3965 10.0214 25.7839 10.8225 25.1712Z" fill="url(#paint9_linear_173:74)"/>
<path d="M45.0215 15.6251C45.0551 15.3424 45.0215 15.1067 44.9272 14.9452C44.7051 14.5547 43.978 14.2922 42.9345 14.2181C41.5544 14.1171 39.6695 14.3595 37.4748 14.9048C35.812 15.3222 34.0145 15.8944 32.143 16.6147C31.2139 16.9715 30.2647 17.362 29.2953 17.7794C28.5952 18.0823 27.8883 18.4055 27.1747 18.7488C26.1043 19.2537 25.0271 19.799 23.9433 20.3712C22.994 20.8761 22.0381 21.4012 21.0821 21.9533C20.0858 22.5255 19.1096 23.1179 18.1604 23.7104C18.2075 22.4784 18.2816 21.2733 18.3758 20.0952C18.7798 19.8529 19.1837 19.6172 19.5943 19.3816C19.9646 19.1662 20.3349 18.9575 20.7051 18.7488C21.7823 18.1429 22.8661 17.5707 23.9365 17.0254C25.6061 16.1771 27.2622 15.4097 28.8712 14.7297C29.8204 14.3258 30.7629 13.9555 31.6785 13.6122C31.6852 13.6122 31.6852 13.6055 31.6919 13.6055C33.4625 12.9525 35.1589 12.4139 36.7545 12.0167C39.2857 11.3839 41.4333 11.1281 43.1432 11.2492C43.3721 11.2627 43.5943 11.2896 43.8097 11.3166C44.2338 11.5993 44.5637 11.9157 44.7724 12.286C45.3715 13.3295 45.3244 14.5278 45.0215 15.6251Z" fill="url(#paint10_linear_173:74)"/>
<path d="M47.4989 40.655C47.095 41.3619 46.4622 41.9072 45.6341 42.2842C44.9475 42.5938 44.106 42.7891 43.1433 42.8564C41.4333 42.9776 39.279 42.7217 36.7545 42.0889C35.1725 41.6917 33.476 41.1599 31.7122 40.5069C30.7899 40.1636 29.8474 39.7933 28.8914 39.3894C27.2757 38.7027 25.6129 37.9352 23.9366 37.087C22.8662 36.5417 21.7823 35.9695 20.7052 35.3636C20.3349 35.1549 19.9647 34.9462 19.5944 34.7307C19.1837 34.4951 18.7731 34.2528 18.3624 34.0104C18.2682 32.8323 18.1941 31.6272 18.1537 30.402C19.1029 31.0012 20.0791 31.5869 21.0822 32.1658C22.0381 32.7178 22.9941 33.2497 23.9433 33.7479C25.0272 34.3201 26.1111 34.8654 27.1747 35.3703C27.8951 35.7136 28.6019 36.0368 29.3088 36.3397C30.2782 36.7638 31.2275 37.1543 32.1565 37.5044C34.028 38.218 35.8187 38.7902 37.4748 39.2076C38.5385 39.4701 39.5281 39.6654 40.4168 39.7798C40.4168 39.7798 40.4235 39.7798 40.4302 39.7798C40.437 39.7798 40.4437 39.7798 40.4504 39.7866C40.4572 39.7866 40.4706 39.7866 40.4841 39.7933C40.4976 39.7933 40.511 39.8 40.5312 39.8C40.5447 39.8 40.5649 39.8067 40.5851 39.8067C40.5985 39.8067 40.6187 39.8135 40.6389 39.8135C41.5074 39.9145 42.2748 39.9481 42.9346 39.901C43.5337 39.8606 44.0319 39.7529 44.382 39.5981C45.486 39.3086 46.543 38.7498 47.1421 37.7131C47.3508 37.3495 47.4653 36.9052 47.4989 36.3936C47.7615 37.0399 47.9231 37.6525 47.9769 38.2314C48.0644 39.1335 47.9029 39.9481 47.4989 40.655Z" fill="url(#paint11_linear_173:74)"/>
<path d="M26.3534 28.0998C26.2726 28.1806 26.2389 28.2883 26.2591 28.396L26.6361 30.6041C26.6832 30.8802 26.3937 31.0889 26.1447 30.9609L24.1587 29.9175C24.0577 29.8636 23.9433 29.8636 23.849 29.9175L21.863 30.9609C21.6678 31.0619 21.4524 30.9542 21.3918 30.7724C22.0785 30.4022 23.4114 29.5674 24.6501 28.0931C25.4849 27.0967 25.9427 26.3225 26.1985 25.7301L27.7738 25.959C28.0498 25.9994 28.1576 26.336 27.9623 26.5312L26.3534 28.0998Z" fill="#71BA44"/>
<path d="M26.1985 25.7301C25.9427 26.3158 25.4849 27.0967 24.6501 28.0931C23.4181 29.5674 22.0784 30.4022 21.3918 30.7725C21.3716 30.7186 21.3648 30.6648 21.3783 30.6042L21.7553 28.396C21.7755 28.2883 21.7351 28.1739 21.6611 28.0998L20.0521 26.5312C19.8501 26.336 19.9646 25.9994 20.2406 25.959L22.4622 25.6359C22.5699 25.6224 22.6641 25.5484 22.718 25.4541L23.7076 23.4412C23.8288 23.1921 24.1856 23.1921 24.3135 23.4412L25.3031 25.4541C25.3502 25.5551 25.4445 25.6224 25.5589 25.6359L26.1985 25.7301Z" fill="#1072BA"/>
<path d="M16.2014 13.639C16.2216 13.6457 16.2485 13.6524 16.2687 13.6659C16.2418 13.6591 16.2216 13.6524 16.1946 13.6524C5.47713 11.2019 3.06031 13.0735 3.01319 15.1941C2.89874 15.6115 3.05358 16.2981 3.45077 17.1127C3.55175 17.3147 3.6662 17.5301 3.79411 17.7455V17.7523C4.06339 18.237 4.31921 18.5803 4.3798 18.6611C4.38654 18.6678 4.38654 18.6678 4.38654 18.6746C4.38654 18.6746 4.38654 18.6746 4.38654 18.6813C5.00589 19.5565 5.80701 20.5057 6.7697 21.502C7.93435 22.7071 9.30097 23.9458 10.8224 25.1845C11.5899 25.8106 12.4045 26.4434 13.2527 27.0695C13.8586 27.5205 14.4914 27.9716 15.131 28.4159C15.1444 29.6546 15.1916 30.8731 15.2521 32.0782C13.6903 31.0549 12.2092 30.0114 10.8157 28.9545C9.98764 28.3284 9.19999 27.7023 8.44599 27.0762L8.43926 27.0695C7.02552 25.8914 5.74642 24.7133 4.62889 23.5621C2.81796 21.6905 1.51866 19.9537 0.764666 18.412C0.340544 17.5436 0.0914565 16.7223 0.0174035 15.9683C-0.0566496 15.0527 0.104921 14.2314 0.515579 13.5312C0.919505 12.8244 1.54559 12.2791 2.38037 11.9021C3.06704 11.5924 3.90856 11.3972 4.87125 11.3298C6.5812 11.2087 8.73547 11.4645 11.26 12.0973C12.8084 12.481 14.4712 12.9994 16.2014 13.639Z" fill="url(#paint12_linear_173:74)"/>
<path d="M71.9157 21.8541V22.2974C71.9157 24.0706 72.8649 24.8208 74.9329 24.8208H89.2392C93.7142 24.8208 96.528 26.3894 96.528 30.8224V32.8343C96.528 37.3015 93.7142 38.8701 89.2392 38.8701H68.5256C67.7797 38.8701 67.4068 38.495 67.4068 37.7448V35.6306C67.4068 34.9144 67.7797 34.5393 68.5256 34.5393H88.5951C90.6631 34.5393 91.6123 33.7891 91.6123 32.0159V31.5726C91.6123 29.7994 90.6631 29.0492 88.5951 29.0492H74.2888C69.8138 29.0492 67 27.4806 67 23.0476V21.0357C67 16.5686 69.8138 15 74.2888 15H94.6973C95.4432 15 95.8161 15.3751 95.8161 16.1253V18.2395C95.8161 18.9556 95.4432 19.3307 94.6973 19.3307H74.9329C72.8649 19.3307 71.9157 20.115 71.9157 21.8541Z" fill="#1B3765"/>
<path d="M115.886 35.9375V37.8812C115.886 38.5632 115.581 38.8701 114.902 38.8701H106.8C103.613 38.8701 101.478 36.7218 101.478 33.5164V25.0595H99.6469C99.0028 25.0595 98.6977 24.7526 98.6977 24.0706V22.1269C98.6977 21.4449 99.0028 21.138 99.6469 21.138H101.478V17.8644C101.478 17.1824 101.783 16.8755 102.461 16.8755H104.902C105.58 16.8755 105.885 17.1824 105.885 17.8644V21.138H114.733C115.411 21.138 115.716 21.4449 115.716 22.1269V24.0706C115.716 24.7526 115.411 25.0595 114.733 25.0595H105.885V32.5957C105.885 34.062 106.766 34.9486 108.224 34.9486H114.902C115.581 34.9486 115.886 35.2555 115.886 35.9375Z" fill="#1B3765"/>
<path d="M136.498 27.4124C136.498 25.9461 135.582 25.0595 134.158 25.0595H120.225C119.581 25.0595 119.276 24.7526 119.276 24.0706V22.1269C119.276 21.4449 119.581 21.138 120.225 21.138H135.582C138.769 21.138 140.905 23.2863 140.905 26.4917V33.8574C140.905 37.0628 139.108 38.8701 135.921 38.8701H123.344C120.191 38.8701 118.53 37.1651 118.53 34.0279V33.1413C118.53 29.97 120.191 28.299 123.344 28.299H136.498V27.4124ZM134.802 34.9486C135.955 34.9486 136.498 34.3348 136.498 33.2436V31.7091H124.496C123.378 31.7091 122.971 32.2547 122.971 33.2436V33.4141C122.971 34.4371 123.378 34.9486 124.496 34.9486H134.802Z" fill="#1B3765"/>
<path d="M150.058 21.138H158.499C159.144 21.138 159.483 21.4449 159.483 22.1269V24.0706C159.483 24.7526 159.144 25.0595 158.499 25.0595H151.482C150.024 25.0595 149.143 25.9461 149.143 27.4124V37.8812C149.143 38.5632 148.838 38.8701 148.16 38.8701H145.685C145.041 38.8701 144.702 38.5632 144.702 37.8812V26.4917C144.702 23.2863 146.871 21.138 150.058 21.138Z" fill="#1B3765"/>
<path d="M169.28 15H184.807C189.282 15 191.791 17.5575 191.791 22.0246V37.7448C191.791 38.495 191.418 38.8701 190.672 38.8701H187.994C187.248 38.8701 186.875 38.495 186.875 37.7448V22.7066C186.875 20.5242 185.688 19.3307 183.519 19.3307H170.534C168.365 19.3307 167.178 20.5242 167.178 22.7066V37.7448C167.178 38.495 166.805 38.8701 166.093 38.8701H163.415C162.669 38.8701 162.296 38.495 162.296 37.7448V22.0246C162.296 17.5575 164.771 15 169.28 15Z" fill="#1B3765"/>
<path d="M213.08 21.138C216.233 21.138 217.928 22.843 217.928 25.9802V26.8668C217.928 30.0382 216.233 31.7091 213.08 31.7091H199.961V32.5957C199.961 34.062 200.842 34.9486 202.3 34.9486H216.267C216.911 34.9486 217.25 35.2555 217.25 35.9375V37.8812C217.25 38.5632 216.911 38.8701 216.267 38.8701H200.876C197.689 38.8701 195.554 36.7218 195.554 33.5164V26.4917C195.554 23.2863 197.689 21.138 200.876 21.138H213.08ZM199.961 28.299H211.962C213.08 28.299 213.487 27.7534 213.487 26.7645V26.594C213.487 25.571 213.08 25.0595 211.962 25.0595H202.3C200.842 25.0595 199.961 25.9461 199.961 27.4124V28.299Z" fill="#1B3765"/>
<path d="M221.827 38.8701C221.149 38.8701 220.844 38.5632 220.844 37.8812V35.9375C220.844 35.2555 221.149 34.9486 221.827 34.9486H236.676C237.795 34.9486 238.201 34.4371 238.201 33.4141V33.2436C238.201 32.2547 237.795 31.7091 236.676 31.7091H225.319C222.166 31.7091 220.505 30.0382 220.505 26.8668V25.9802C220.505 22.843 222.166 21.138 225.319 21.138H240.981C241.625 21.138 241.964 21.4449 241.964 22.1269V24.0706C241.964 24.7526 241.625 25.0595 240.981 25.0595H226.472C225.353 25.0595 224.946 25.571 224.946 26.594V26.7645C224.946 27.7534 225.353 28.299 226.472 28.299H237.795C240.947 28.299 242.642 29.97 242.642 33.1413V34.0279C242.642 37.1651 240.947 38.8701 237.795 38.8701H221.827Z" fill="#1B3765"/>
<path d="M262 35.9375V37.8812C262 38.5632 261.695 38.8701 261.017 38.8701H252.914C249.728 38.8701 247.592 36.7218 247.592 33.5164V25.0595H245.761C245.117 25.0595 244.812 24.7526 244.812 24.0706V22.1269C244.812 21.4449 245.117 21.138 245.761 21.138H247.592V17.8644C247.592 17.1824 247.897 16.8755 248.575 16.8755H251.016C251.694 16.8755 251.999 17.1824 251.999 17.8644V21.138H260.847C261.525 21.138 261.83 21.4449 261.83 22.1269V24.0706C261.83 24.7526 261.525 25.0595 260.847 25.0595H251.999V32.5957C251.999 34.062 252.881 34.9486 254.338 34.9486H261.017C261.695 34.9486 262 35.2555 262 35.9375Z" fill="#1B3765"/>
<defs>
<linearGradient id="paint0_linear_173:74" x1="21.6925" y1="56.2694" x2="21.6925" y2="-0.52796" gradientUnits="userSpaceOnUse">
<stop stop-color="#074E8B"/>
<stop offset="0.4832" stop-color="#1072BA"/>
<stop offset="0.9927" stop-color="#074E8B"/>
</linearGradient>
<linearGradient id="paint1_linear_173:74" x1="23.4095" y1="56.2695" x2="23.4095" y2="-0.527863" gradientUnits="userSpaceOnUse">
<stop stop-color="#074E8B"/>
<stop offset="0.4832" stop-color="#1072BA"/>
<stop offset="0.9927" stop-color="#074E8B"/>
</linearGradient>
<linearGradient id="paint2_linear_173:74" x1="16.2318" y1="56.2688" x2="16.2318" y2="-0.527689" gradientUnits="userSpaceOnUse">
<stop stop-color="#074E8B"/>
<stop offset="0.4832" stop-color="#1072BA"/>
<stop offset="0.9927" stop-color="#074E8B"/>
</linearGradient>
<linearGradient id="paint3_linear_173:74" x1="31.6951" y1="56.2697" x2="31.6951" y2="-0.528012" gradientUnits="userSpaceOnUse">
<stop stop-color="#074E8B"/>
<stop offset="0.4832" stop-color="#1072BA"/>
<stop offset="0.9927" stop-color="#074E8B"/>
</linearGradient>
<linearGradient id="paint4_linear_173:74" x1="28.1208" y1="54.4844" x2="27.8439" y2="1.30466" gradientUnits="userSpaceOnUse">
<stop offset="0.0237895" stop-color="#71BA44"/>
<stop offset="0.5352" stop-color="#A6CE39"/>
<stop offset="0.9587" stop-color="#71BA44"/>
</linearGradient>
<linearGradient id="paint5_linear_173:74" x1="2.88905" y1="12.8705" x2="24.5626" y2="17.8561" gradientUnits="userSpaceOnUse">
<stop offset="0.1134" stop-color="#71BA44"/>
<stop offset="0.8434" stop-color="#A6CE39"/>
</linearGradient>
<linearGradient id="paint6_linear_173:74" x1="50.0572" y1="38.3664" x2="18.0663" y2="17.4546" gradientUnits="userSpaceOnUse">
<stop offset="0.0708096" stop-color="#71BA44"/>
<stop offset="1" stop-color="#A6CE39"/>
</linearGradient>
<linearGradient id="paint7_linear_173:74" x1="-2.65895" y1="37.81" x2="16.868" y2="32.6859" gradientUnits="userSpaceOnUse">
<stop offset="0.0849393" stop-color="#074E8B"/>
<stop offset="1" stop-color="#1072BA"/>
</linearGradient>
<linearGradient id="paint8_linear_173:74" x1="51.2472" y1="13.0451" x2="17.179" y2="35.6881" gradientUnits="userSpaceOnUse">
<stop offset="0.0610106" stop-color="#074E8B"/>
<stop offset="1" stop-color="#1072BA"/>
</linearGradient>
<linearGradient id="paint9_linear_173:74" x1="0.643127" y1="39.2948" x2="15.3229" y2="22.2607" gradientUnits="userSpaceOnUse">
<stop offset="0.0681965" stop-color="#71BA44"/>
<stop offset="1" stop-color="#A6CE39"/>
</linearGradient>
<linearGradient id="paint10_linear_173:74" x1="49.2789" y1="10.5185" x2="17.565" y2="22.4285" gradientUnits="userSpaceOnUse">
<stop offset="0.123" stop-color="#71BA44"/>
<stop offset="1" stop-color="#A6CE39"/>
</linearGradient>
<linearGradient id="paint11_linear_173:74" x1="55.4482" y1="43.6807" x2="9.1237" y2="28.4469" gradientUnits="userSpaceOnUse">
<stop offset="0.1482" stop-color="#074E8B"/>
<stop offset="0.9078" stop-color="#1072BA"/>
</linearGradient>
<linearGradient id="paint12_linear_173:74" x1="0.606489" y1="8.50295" x2="19.3025" y2="27.6837" gradientUnits="userSpaceOnUse">
<stop offset="0.0769817" stop-color="#074E8B"/>
<stop offset="1" stop-color="#1072BA"/>
</linearGradient>
</defs>
</svg>
