<svg width="181" height="75" viewBox="0 0 181 75" fill="none" xmlns="http://www.w3.org/2000/svg">
<path d="M8.00418 14.38C7.4995 14.2988 7.12527 15.0151 7.71121 14.5917C8.00418 14.38 8.29714 14.1683 8.00418 14.38Z" fill="#1072BA"/>
<path d="M43.9802 69.1009C41.2942 69.704 42.9216 67.6361 41.1146 67.604C41.1146 67.604 42.2865 66.7572 41.9935 66.9689C39.6005 67.3603 40.1373 65.6345 40.967 63.697L41.26 63.4853C41.5529 63.2736 40.1693 63.8275 40.2506 63.3228C40.5436 63.1111 40.5436 63.1111 40.8365 62.8994C40.2506 63.3228 40.3319 62.8181 39.7459 63.2416C40.0389 63.0299 40.6248 62.6064 40.9178 62.3947L40.0389 63.0299C38.0694 64.0072 39.9084 62.2322 38.3131 62.4931C38.6061 62.2814 38.6061 62.2814 38.8991 62.0697C37.3038 62.3306 36.9616 61.24 36.2452 60.8658C36.5382 60.654 37.1241 60.2306 37.4171 60.0189C36.5382 60.654 36.3265 60.3611 35.8218 60.2798C36.7007 59.6447 34.7312 60.622 35.1054 59.9056L35.3984 59.6939C34.3078 60.036 35.7726 58.9775 34.6007 59.8243L35.1867 59.4009C34.0148 60.2478 35.5609 58.6845 34.975 59.1079L34.682 59.3197C34.389 59.5314 34.7632 58.815 34.4703 59.0267C33.9656 58.9454 34.5515 58.522 33.6726 59.1571C34.5515 58.522 34.1773 59.2384 35.3492 58.3916C33.8351 58.1478 33.493 57.0572 32.8578 56.1783C33.1508 55.9665 33.4438 55.7548 33.7367 55.5431C33.4438 55.7548 33.2321 55.4619 32.9391 55.6736L33.525 55.2502C33.818 55.0384 32.4344 55.5923 32.7274 55.3806C33.0204 55.1689 33.3133 54.9572 33.6063 54.7455C32.8086 54.8759 32.8086 54.8759 32.304 54.7947C32.5969 54.583 32.5969 54.583 32.8899 54.3713C31.7993 54.7134 32.9712 53.8666 32.1735 53.997L32.7594 53.5736C33.1337 52.8572 31.5876 54.4204 31.9618 53.7041C32.2548 53.4923 32.2548 53.4923 32.5477 53.2806C31.4571 53.6228 31.5384 53.1181 31.0337 53.0369L31.3267 52.8251C31.115 52.5322 31.1962 52.0275 30.6103 52.4509C30.9032 52.2392 32.0751 51.3924 31.5704 51.3111C30.3986 52.158 31.0658 51.2299 29.6009 52.2884C29.6822 51.7837 29.7634 51.2791 29.4705 51.4908C29.7634 51.2791 30.9353 50.4322 30.9353 50.4322L31.5212 50.0088C32.1072 49.5854 31.2283 50.2205 31.8142 49.7971C31.8142 49.7971 31.0166 49.9275 31.3095 49.7158C30.7236 50.1392 29.34 50.6931 28.8353 50.6119C29.1283 50.4001 30.0072 49.765 30.3002 49.5533L27.826 50.4493C27.826 50.4493 28.7049 49.8142 28.4119 50.0259C28.1189 50.2376 27.826 50.4493 27.826 50.4493C27.826 50.4493 27.3213 50.3681 28.4932 49.5212C28.7861 49.3095 28.9978 49.6025 29.0791 49.0978C28.8674 48.8048 28.5744 49.0166 28.5744 49.0166C28.8674 48.8048 27.7768 49.147 27.1908 49.5704C27.1908 49.5704 27.7768 49.147 27.4838 49.3587C26.8979 49.7821 26.3932 49.7009 26.1815 49.4079C26.4744 49.1962 26.7674 48.9845 27.0604 48.7728C25.9698 49.115 25.4651 49.0337 24.9604 48.9524C24.3745 49.3759 25.8393 48.3173 25.758 48.822C26.1323 48.1056 24.4557 48.8712 25.1229 47.9431L24.537 48.3665C24.537 48.3665 25.4159 47.7314 24.9112 47.6501C25.2042 47.4384 24.9112 47.6501 24.4065 47.5689C24.1136 47.7806 24.6995 47.3571 24.6995 47.3571C24.6182 47.8618 23.6089 47.6993 23.9831 46.9829C23.6901 47.1946 22.5995 47.5368 22.8925 47.3251L23.4784 46.9017C23.7714 46.6899 23.2667 46.6087 23.8526 46.1853C22.762 46.5274 24.862 46.3478 24.0644 46.4782C24.6503 46.0548 22.6808 47.0321 23.8526 46.1853C23.6409 45.8923 22.762 46.5274 23.6409 45.8923C23.6409 45.8923 24.7316 45.5501 24.5198 45.2572C24.3081 44.9642 24.2269 45.4689 23.7222 45.3876L23.4292 45.5993C22.8433 46.0228 23.2175 45.3064 22.8433 46.0228C23.1363 45.811 22.0456 46.1532 23.2175 45.3064L24.0964 44.6712C24.0964 44.6712 23.0058 45.0134 22.7128 45.2251L23.0058 45.0134C21.8339 45.8602 22.7941 44.7204 21.9152 45.3556C22.2894 44.6392 21.4918 44.7696 22.3707 44.1345C21.7847 44.5579 21.4918 44.7696 21.573 44.2649L21.866 44.0532C22.159 43.8415 21.866 44.0532 21.3613 43.972C21.6543 43.7603 22.0285 43.0439 22.3215 42.8322C22.3215 42.8322 21.4426 43.4673 21.1496 43.679C22.3215 42.8322 20.059 44.0212 21.0191 42.8814C21.3121 42.6696 21.8168 42.7509 21.898 42.2462C23.3629 41.1877 21.0191 42.8814 21.3934 42.165L20.2215 43.0118C20.8074 42.5884 19.4238 43.1423 20.5957 42.2954C20.3027 42.5071 20.677 41.7907 19.7981 42.4259C20.4653 41.4978 18.577 41.9704 20.3348 40.7001C20.0418 40.9118 20.1231 40.4072 19.5372 40.8306C18.9512 41.254 19.8301 40.6189 19.7489 41.1235C19.7489 41.1235 19.4559 41.3353 19.1629 41.547C19.4559 41.3353 19.2442 41.0423 20.3348 40.7001C20.7903 39.4791 18.4465 41.1727 18.8208 40.4564C19.1137 40.2446 19.4067 40.0329 19.4067 40.0329L18.3161 40.3751C18.3161 40.3751 19.195 39.74 20.0739 39.1048C20.0739 39.1048 19.8622 38.8119 19.2762 39.2353L20.1552 38.6001C19.5692 39.0236 19.8622 38.8119 19.3575 38.7306L19.6505 38.5189C19.9434 38.3072 19.6505 38.5189 19.4388 38.2259C18.8528 38.6493 18.8528 38.6493 18.7716 39.154C18.4786 39.3657 18.4786 39.3657 17.9739 39.2845C18.5599 38.8611 18.3481 38.5681 18.3481 38.5681C18.6411 38.3564 17.7622 38.9915 17.5505 38.6985C17.8435 38.4868 17.3388 38.4056 18.1364 38.2751C18.1364 38.2751 17.8435 38.4868 18.1364 38.2751C18.4294 38.0634 19.0153 37.64 18.5107 37.5587C18.2177 37.7704 17.0458 38.6173 17.42 37.9009C17.713 37.6892 18.006 37.4775 18.006 37.4775L18.4294 38.0634L17.8435 38.4868C18.1364 38.2751 18.1364 38.2751 18.1364 38.2751C17.5505 38.6985 17.6318 38.1939 17.0458 38.6173L17.42 37.9009C17.713 37.6892 17.2083 37.6079 16.9154 37.8196C16.9154 37.8196 16.7037 37.5267 16.4107 37.7384C16.7849 37.022 18.7544 36.0447 17.6638 36.3869C17.6638 36.3869 16.2802 36.9407 15.9873 37.1524C16.2802 36.9407 14.9779 36.9899 15.8568 36.3548C15.5638 36.5665 15.5638 36.5665 15.2709 36.7782C15.1404 35.9806 13.8381 36.0298 15.01 35.1829C15.3029 34.9712 15.5959 34.7595 15.8889 34.5478C15.3029 34.9712 16.4748 34.1244 15.3842 34.4665C14.7982 34.8899 14.5053 35.1017 14.2123 35.3134C13.9193 35.5251 13.4959 34.9391 14.0819 34.5157C13.7889 34.7274 13.4959 34.9391 13.4959 34.9391C14.3748 34.304 14.6678 34.0923 14.1631 34.011L13.5772 34.4345L14.1631 34.011C13.8701 34.2228 12.9912 34.8579 13.3655 34.1415C13.6584 33.9298 13.9514 33.7181 13.9514 33.7181C13.3655 34.1415 12.5678 34.272 12.6491 33.7673L13.528 33.1321C13.528 33.1321 12.7303 33.2626 12.6491 33.7673C13.0233 33.0509 12.8116 32.7579 13.6905 32.1228C11.721 33.1001 10.7929 32.4329 10.8741 31.9282L11.1671 31.7165C11.4601 31.5048 10.2882 32.3516 10.3694 31.8469C10.6624 31.6352 11.2484 31.2118 11.8343 30.7884C12.4202 30.365 11.0366 30.9188 10.7437 31.1306C10.1577 31.554 11.0366 30.9188 10.4507 31.3423C10.1577 31.554 10.8249 30.6259 9.94602 31.261C10.239 31.0493 10.8249 30.6259 11.1179 30.4142L10.8249 30.6259C11.7038 29.9907 12.7945 29.6486 13.9663 28.8017C14.8452 28.1666 15.0569 28.4596 15.1382 27.9549C14.8452 28.1666 13.1687 28.9322 13.0874 29.4369C12.5827 29.3556 11.0366 30.9188 10.8249 30.6259C11.4109 30.2025 11.0366 30.9188 11.9155 30.2837C12.5015 29.8603 11.4109 30.2025 11.7038 29.9907C11.4109 30.2025 10.532 30.8376 10.239 31.0493C10.532 30.8376 11.1179 30.4142 11.1179 30.4142C10.532 30.8376 10.0273 30.7563 9.94602 31.261C8.77415 32.1079 10.0273 30.7563 9.14837 31.3915C10.0273 30.7563 11.1179 30.4142 11.4921 29.6978C10.6132 30.3329 10.1085 30.2516 9.22963 30.8868C9.5226 30.6751 10.1085 30.2516 10.4015 30.0399C10.9874 29.6165 8.72495 30.8055 10.1898 29.747L9.31089 30.3821C9.60386 30.1704 9.89683 29.9587 10.1898 29.747C10.1898 29.747 8.80621 30.3008 9.97808 29.454C9.97808 29.454 9.76637 29.161 8.88747 29.7962C8.30153 30.2196 9.68511 29.6657 8.51324 30.5126C9.39214 29.8774 8.30153 30.2196 8.00856 30.4313L8.5945 30.0079C8.30153 30.2196 8.38278 29.7149 7.79685 30.1383C8.08982 29.9266 8.38278 29.7149 8.38278 29.7149L7.79685 30.1383C6.65703 29.1782 8.33359 28.4126 8.12188 28.1196L8.91953 27.9892C8.91953 27.9892 9.50546 27.5657 9.00078 27.4845C8.41485 27.9079 7.53594 28.543 7.24297 28.7547C6.95 28.9665 7.82891 28.3313 7.03126 28.4618L7.91016 27.8266C8.20313 27.6149 9.08204 26.9798 8.57736 26.8985C8.28439 27.1103 7.19377 27.4524 7.11252 27.9571C7.11252 27.9571 7.19377 27.4524 7.99142 27.322C7.48674 27.2407 7.40549 27.7454 6.81955 28.1688C7.11252 27.9571 7.48674 27.2407 8.36565 26.6056L9.74923 26.0517C10.6281 25.4166 10.3352 25.6283 11.2141 24.9931L10.7094 24.9119C8.95158 26.1821 7.94223 26.0196 6.77035 26.8665C6.26567 26.7852 9.993 24.5377 7.73051 25.7267C7.43755 25.9384 6.26567 26.7852 6.85161 26.3618C6.6399 26.0688 5.38677 27.4204 5.76099 26.704C6.55864 26.5735 6.72115 25.5642 7.81177 25.222C7.5188 25.4337 7.5188 25.4337 7.73051 25.7267C8.31645 25.3032 8.90239 24.8798 8.69068 24.5869C8.69068 24.5869 8.186 24.5056 7.60006 24.929C6.72115 25.5642 7.81177 25.222 7.01412 25.3524C7.01412 25.3524 8.186 24.5056 6.50944 25.2712C6.50944 25.2712 6.13522 25.9876 5.54928 26.411L5.0446 26.3297L5.63054 25.9063C5.9235 25.6946 4.75163 26.5415 4.75163 26.5415L5.63054 25.9063C6.50944 25.2712 5.54928 26.411 6.72115 25.5642C6.50944 25.2712 5.9235 25.6946 6.21647 25.4829L6.50944 25.2712C6.50944 25.2712 8.26725 24.0009 7.17664 24.3431C6.88367 24.5548 6.5907 24.7665 6.29773 24.9782C5.87431 24.3923 5.28837 24.8157 4.78369 24.7344C5.6626 24.0993 4.57198 24.4415 5.95557 23.8876C5.36963 24.311 5.79305 24.897 6.67196 24.2618C7.84383 23.415 6.5907 24.7665 8.05554 23.7079C7.84383 23.415 9.01571 22.5681 9.89461 21.933L9.60164 22.1447C9.0157 22.5681 9.0157 22.5681 8.1368 23.2033C7.92509 22.9103 7.42041 22.829 6.83447 23.2525C7.12744 23.0408 8.00635 22.4056 8.00635 22.4056C7.50167 22.3244 7.58292 21.8197 7.37121 21.5267C6.41105 22.6665 6.86653 21.4455 5.98763 22.0806C5.90637 22.5853 5.02746 23.2204 4.44153 23.6438C4.44153 23.6438 5.02746 23.2204 5.32043 23.0087C4.73449 23.4321 5.98763 22.0806 5.10872 22.7157C5.6134 22.797 6.57356 21.6572 7.45247 21.022C6.65482 21.1525 8.0384 20.5986 7.82669 20.3056C7.24076 20.7291 6.73608 20.6478 6.44311 20.8595C7.1103 19.9314 6.01969 20.2736 5.80797 19.9806C6.39391 19.5572 7.27282 18.9221 7.35407 18.4174C7.14236 18.1244 6.1822 19.2642 6.76814 18.8408L7.0611 18.6291C6.76814 18.8408 7.43533 17.9127 5.75878 18.6783L6.93065 17.8314L6.63768 18.0431C6.93065 17.8314 7.22362 17.6197 7.51659 17.408C8.10253 16.9846 7.01191 17.3268 7.01191 17.3268L6.42597 17.7502C5.62832 17.8806 6.21426 17.4572 6.00255 17.1642L6.58849 16.7408L6.29552 16.9525C6.88145 16.5291 7.46739 16.1057 6.66974 16.2361L8.3463 15.4706C8.05333 15.6823 7.46739 16.1057 6.88145 16.5291C6.29552 16.9525 6.8002 17.0338 7.38613 16.6104C7.38613 16.6104 7.38613 16.6104 6.88145 16.5291C7.76036 15.894 7.76036 15.894 8.55801 15.7635C8.55801 15.7635 8.85098 15.5518 8.55801 15.7635C9.14394 15.3401 9.35566 15.6331 9.35566 15.6331C9.06269 15.8448 8.76972 16.0565 8.47675 16.2682C9.35566 15.6331 9.64862 15.4214 9.56737 15.926C8.68846 16.5612 10.365 15.7956 10.2838 16.3003C9.40485 16.9354 8.6072 17.0658 8.31424 17.2776C8.02127 17.4893 8.52595 17.5705 8.23298 17.7822C8.81892 17.3588 9.69782 16.7237 10.2025 16.8049L9.61657 17.2284C10.1212 17.3096 11.0002 16.6745 10.7072 16.8862C10.6259 17.3909 10.8376 17.6838 11.0493 17.9768L10.4634 18.4002C11.847 17.8464 11.1798 18.7745 11.9775 18.644C11.6032 19.3604 12.9868 18.8065 12.0266 19.9463C13.036 20.1089 13.8337 19.9784 13.9641 20.776L13.0852 21.4112C13.6711 20.9878 12.4993 21.8346 13.0039 21.9159C13.3782 21.1995 13.8829 21.2807 14.4688 20.8573C14.0946 21.5737 14.8922 21.4432 15.6899 21.3128L15.1039 21.7362C16.4875 21.1823 15.5273 22.3221 15.7391 22.6151C15.4461 22.8268 14.8602 23.2502 15.0719 23.5432C16.1625 23.2011 16.1625 23.2011 16.9601 23.0706C17.1718 23.3636 17.0906 23.8682 16.7976 24.08C18.6859 23.6073 18.4421 25.1214 19.4515 25.2839L18.8655 25.7073C20.7538 25.2347 19.9241 27.1722 21.2264 27.123L20.0545 27.9698C19.9733 28.4745 20.5592 28.0511 21.4381 27.4159C21.3569 27.9206 22.4475 27.5784 21.5686 28.2136C21.4873 28.7183 22.3662 28.0831 22.3662 28.0831C21.992 28.7995 22.4967 28.8808 23.0014 28.962C22.7084 29.1737 22.1225 29.5972 22.1225 29.5972C22.4154 29.3855 22.2529 30.3948 23.506 29.0433C22.8389 29.9714 24.7271 29.4988 23.767 30.6386C24.0599 30.4269 24.3529 30.2152 24.3529 30.2152C24.5646 30.5081 23.8974 31.4362 24.988 31.0941C24.6951 31.3058 24.4021 31.5175 24.4021 31.5175L24.988 31.0941C25.9974 31.2566 24.956 32.9011 25.4606 32.9823C27.3981 33.812 27.4473 35.1144 28.1637 35.4886L27.8707 35.7003C28.9613 35.3581 27.1223 37.1331 28.7988 36.3675C28.5059 36.5792 29.0105 36.6605 28.4246 37.0839C29.5152 36.7417 27.9691 38.305 29.3527 37.7511C29.3527 37.7511 29.3527 37.7511 29.0597 37.9628C28.6855 38.6792 29.7761 38.337 29.4019 39.0534C29.4019 39.0534 29.1089 39.2651 28.816 39.4768C28.23 39.9003 30.1996 38.923 28.7347 39.9815L29.3207 39.5581C29.1581 40.5675 30.6722 40.8112 31.6003 41.4784C31.1448 42.6995 29.2565 43.1721 30.6401 42.6182C30.3471 42.8299 31.2261 42.1948 30.9331 42.4065C31.4378 42.4878 29.68 43.758 30.2659 43.3346C31.1448 42.6995 30.8518 42.9112 31.1448 42.6995C30.7706 43.4159 29.8917 44.051 30.9823 43.7089L30.3963 44.1323C31.7799 43.5784 31.4057 44.2948 33.0823 43.5292C34.8572 45.3683 37.0064 46.4909 38.2767 48.2488C39.254 50.2183 40.8984 51.2597 41.2898 53.6526C40.3296 54.7925 40.3296 54.7925 41.339 54.955C41.046 55.1667 41.046 55.1667 41.046 55.1667C41.9249 54.5315 41.2577 55.4597 42.1367 54.8245C42.2671 55.6222 42.9835 55.9964 43.4069 56.5823C43.4069 56.5823 42.3163 56.9245 42.528 57.2175L43.3257 57.087L43.0327 57.2987C43.0327 57.2987 43.8303 57.1683 43.9116 56.6636C45.7678 57.998 45.0686 60.7331 46.1271 62.1979C46.0459 62.7026 46.7622 63.0768 46.974 63.3698C46.356 65.6002 46.1122 67.1143 47.7567 68.1557C47.545 67.8627 44.9895 69.2634 43.9802 69.1009Z" fill="#1072BA"/>
<path d="M8.21594 14.6729C7.63001 15.0963 7.54875 15.601 6.7511 15.7314C7.33704 15.308 7.92297 14.8846 8.21594 14.6729Z" fill="#1072BA"/>
<path d="M6.32988 23.1711C6.03691 23.3829 5.23926 23.5133 5.23926 23.5133L6.32988 23.1711Z" fill="#1072BA"/>
<path d="M6.37909 24.4736C6.37909 24.4736 6.08612 24.6853 5.79315 24.8971C6.29783 24.9783 5.50018 25.1088 6.37909 24.4736Z" fill="#1072BA"/>
<path d="M25.5957 49.8316C25.8887 49.6199 25.3027 50.0433 25.0098 50.255C25.0098 50.255 25.8074 50.1246 25.5957 49.8316Z" fill="#1072BA"/>
<path d="M95.5941 0.282544C95.2372 -0.0834025 94.5098 0.268995 95.2326 0.278028C95.5941 0.282544 95.9555 0.287061 95.5941 0.282544Z" fill="#1072BA"/>
<path d="M91.8853 65.6652C89.3688 64.5492 91.9079 63.858 90.4757 62.7556C90.4757 62.7556 91.9214 62.7737 91.56 62.7692C89.4049 61.6578 90.8642 60.5916 92.6849 59.5299L93.0463 59.5344C93.4078 59.5389 91.9666 59.1594 92.3325 58.8025C92.6939 58.807 92.6939 58.807 93.0554 58.8115C92.3325 58.8025 92.6985 58.4456 91.9756 58.4365C92.337 58.4411 93.0599 58.4501 93.4213 58.4546L92.337 58.4411C90.173 58.0525 92.7075 57.7227 91.2708 56.9818C91.6322 56.9863 91.6322 56.9863 91.9937 56.9908C90.557 56.2499 90.932 55.1701 90.5796 54.4427C90.941 54.4473 91.6639 54.4563 92.0253 54.4608C90.941 54.4473 90.9455 54.0858 90.5886 53.7199C91.6729 53.7334 89.5088 53.3449 90.2362 52.9925L90.5976 52.997C89.5179 52.622 91.325 52.6446 89.8793 52.6266L90.6021 52.6356C89.1564 52.6175 91.3295 52.2832 90.6067 52.2742L90.2452 52.2696C89.8838 52.2651 90.6112 51.9127 90.2497 51.9082C89.8928 51.5423 90.6157 51.5513 89.5314 51.5378C90.6157 51.5513 89.8883 51.9037 91.334 51.9218C90.2633 50.8239 90.6383 49.7442 90.6518 48.6599C91.0133 48.6644 91.3747 48.6689 91.7361 48.6734C91.3747 48.6689 91.3792 48.3075 91.0178 48.303L91.7406 48.312C92.1021 48.3165 90.6609 47.937 91.0223 47.9415C91.3837 47.946 91.7451 47.9506 92.1066 47.9551C91.3882 47.5846 91.3882 47.5846 91.0313 47.2187C91.3928 47.2232 91.3928 47.2232 91.7542 47.2277C90.6744 46.8527 92.1201 46.8708 91.4018 46.5003L92.1246 46.5093C92.852 46.1569 90.6789 46.4913 91.4063 46.1389C91.7677 46.1434 91.7677 46.1434 92.1292 46.1479C91.0494 45.7729 91.4153 45.416 91.0584 45.0501L91.4199 45.0546C91.4244 44.6932 91.7903 44.3362 91.0675 44.3272C91.4289 44.3317 92.8746 44.3498 92.5177 43.9839C91.072 43.9658 92.1608 43.6179 90.3536 43.5953C90.7196 43.2384 91.0855 42.8815 90.7241 42.877C91.0855 42.8815 92.5312 42.8996 92.5312 42.8996L93.2541 42.9086C93.977 42.9176 92.8927 42.9041 93.6155 42.9131C93.6155 42.9131 92.8972 42.5426 93.2586 42.5472C92.5358 42.5381 91.0946 42.1586 90.7376 41.7927C91.0991 41.7972 92.1834 41.8108 92.5448 41.8153L90.0238 41.0608C90.0238 41.0608 91.1081 41.0743 90.7467 41.0698C90.3852 41.0653 90.0238 41.0608 90.0238 41.0608C90.0238 41.0608 89.6669 40.6948 91.1126 40.7129C91.474 40.7174 91.4695 41.0789 91.8355 40.7219C91.84 40.3605 91.4786 40.356 91.4786 40.356C91.84 40.3605 90.7602 39.9855 90.0374 39.9765C90.0374 39.9765 90.7602 39.9855 90.3988 39.981C89.6759 39.972 89.319 39.606 89.3235 39.2446C89.685 39.2491 90.0464 39.2536 90.4078 39.2582C89.328 38.8832 88.9711 38.5172 88.6142 38.1513C87.8914 38.1423 89.6985 38.1648 89.3326 38.5217C90.0599 38.1694 88.2573 37.7853 89.3461 37.4375L88.6233 37.4284C88.6233 37.4284 89.7075 37.442 89.3506 37.076C89.7121 37.0805 89.3506 37.076 88.9937 36.7101C88.6323 36.7056 89.3551 36.7146 89.3551 36.7146C88.9892 37.0715 88.2754 36.3396 89.0027 35.9872C88.6413 35.9827 87.5615 35.6077 87.923 35.6122L88.6458 35.6213C89.0073 35.6258 88.6504 35.2598 89.3732 35.2689C88.2934 34.8939 90.087 36.0008 89.3687 35.6303C90.0916 35.6393 87.9275 35.2508 89.3732 35.2689C89.3777 34.9074 88.2934 34.8939 89.3777 34.9074C89.3777 34.9074 90.4575 35.2824 90.462 34.921C90.4665 34.5596 90.1006 34.9165 89.7437 34.5505L89.3822 34.546C88.6594 34.537 89.3868 34.1846 88.6594 34.537C89.0208 34.5415 87.941 34.1665 89.3868 34.1846L90.4711 34.1981C90.4711 34.1981 89.3913 33.8232 89.0298 33.8186L89.3913 33.8232C87.9456 33.8051 89.3958 33.4617 88.3115 33.4482C89.0389 33.0958 88.3205 32.7253 89.4048 32.7389C88.682 32.7298 88.3205 32.7253 88.6865 32.3684L89.0479 32.3729C89.4093 32.3774 89.0479 32.3729 88.691 32.007C89.0524 32.0115 89.7798 31.6591 90.1412 31.6636C90.1412 31.6636 89.0569 31.6501 88.6955 31.6455C90.1412 31.6636 87.6157 31.2706 89.066 30.9272C89.4274 30.9317 89.7843 31.2977 90.1503 30.9407C91.9574 30.9633 89.066 30.9272 89.7934 30.5748L88.3476 30.5567C89.0705 30.5658 87.6293 30.1863 89.075 30.2043C88.7136 30.1998 89.441 29.8474 88.3567 29.8339C89.4455 29.486 87.6474 28.7405 89.8159 28.7676C89.4545 28.7631 89.8205 28.4062 89.0976 28.3972C88.3747 28.3881 89.459 28.4017 89.0931 28.7586C89.0931 28.7586 88.7316 28.7541 88.3702 28.7496C88.7316 28.7541 88.7362 28.3927 89.8159 28.7676C90.9093 28.0583 88.0178 28.0222 88.7452 27.6698C89.1066 27.6743 89.4681 27.6788 89.4681 27.6788L88.3883 27.3039C88.3883 27.3039 89.4726 27.3174 90.5569 27.331C90.5569 27.331 90.5614 26.9695 89.8385 26.9605L90.9228 26.974C90.2 26.965 90.5614 26.9695 90.2045 26.6036L90.5659 26.6081C90.9273 26.6126 90.5659 26.6081 90.5704 26.2467C89.8476 26.2376 89.8476 26.2376 89.4816 26.5945C89.1202 26.59 89.1202 26.59 88.7633 26.2241C89.4861 26.2331 89.4906 25.8717 89.4906 25.8717C89.8521 25.8762 88.7678 25.8627 88.7723 25.5012C89.1337 25.5057 88.7768 25.1398 89.4952 25.5103C89.4952 25.5103 89.1337 25.5057 89.4952 25.5103C89.8566 25.5148 90.5794 25.5238 90.2225 25.1579C89.8611 25.1533 88.4154 25.1353 89.1428 24.7829C89.5042 24.7874 89.8656 24.7919 89.8656 24.7919L89.8566 25.5148L89.1337 25.5057C89.4952 25.5103 89.4952 25.5103 89.4952 25.5103C88.7723 25.5012 89.1382 25.1443 88.4154 25.1353L89.1428 24.7829C89.5042 24.7874 89.1473 24.4214 88.7858 24.4169C88.7858 24.4169 88.7904 24.0555 88.4289 24.051C89.1563 23.6986 91.3204 24.0871 90.2406 23.7121C90.2406 23.7121 88.7994 23.3326 88.438 23.3281C88.7994 23.3326 87.7241 22.5962 88.8084 22.6098C88.447 22.6053 88.447 22.6053 88.0856 22.6007C88.456 21.8824 87.3808 21.146 88.8265 21.1641C89.1879 21.1686 89.5494 21.1731 89.9108 21.1776C89.1879 21.1686 90.6336 21.1866 89.5539 20.8117C88.831 20.8026 88.4696 20.7981 88.1081 20.7936C87.7467 20.7891 87.7557 20.0662 88.4786 20.0753C88.1172 20.0707 87.7557 20.0662 87.7557 20.0662C88.84 20.0798 89.2015 20.0843 88.8446 19.7183L88.1217 19.7093L88.8446 19.7183C88.4831 19.7138 87.3988 19.7003 88.1262 19.3479C88.4876 19.3524 88.8491 19.3569 88.8491 19.3569C88.1262 19.3479 87.4079 18.9774 87.7738 18.6205L88.8581 18.634C88.8581 18.634 88.1398 18.2636 87.7738 18.6205C88.5012 18.2681 88.5057 17.9067 89.59 17.9202C87.4259 17.5317 87.0781 16.4429 87.444 16.086L87.8054 16.0905C88.1669 16.095 86.7211 16.0769 87.0871 15.72C87.4485 15.7245 88.1714 15.7336 88.8942 15.7426C89.6171 15.7516 88.1759 15.3721 87.8145 15.3676C87.0916 15.3586 88.1759 15.3721 87.453 15.3631C87.0916 15.3586 88.1804 15.0107 87.0961 14.9972C87.4575 15.0017 88.1804 15.0107 88.5418 15.0152L88.1804 15.0107C89.2647 15.0243 90.3445 15.3992 91.7902 15.4173C92.8745 15.4309 92.87 15.7923 93.2359 15.4354C92.8745 15.4309 91.0719 15.0468 90.7059 15.4038C90.349 15.0378 88.1759 15.3721 88.1804 15.0107C88.9033 15.0197 88.1759 15.3721 89.2602 15.3857C89.983 15.3947 88.9033 15.0197 89.2647 15.0243C88.9033 15.0197 87.819 15.0062 87.4575 15.0017C87.819 15.0062 88.5418 15.0152 88.5418 15.0152C87.819 15.0062 87.4621 14.6402 87.0961 14.9972C85.6504 14.9791 87.4621 14.6402 86.3778 14.6267C87.4621 14.6402 88.5418 15.0152 89.2692 14.6628C88.1849 14.6493 87.828 14.2833 86.7437 14.2698C87.1052 14.2743 87.828 14.2833 88.1894 14.2878C88.9123 14.2969 86.3868 13.9038 88.194 13.9264L87.1097 13.9129C87.4711 13.9174 87.8325 13.9219 88.194 13.9264C88.194 13.9264 86.7528 13.5469 88.1985 13.565C88.1985 13.565 88.203 13.2036 87.1187 13.19C86.3958 13.181 87.837 13.5605 86.3913 13.5424C87.4756 13.556 86.3958 13.181 86.0344 13.1765L86.7573 13.1855C86.3958 13.181 86.7618 12.8241 86.0389 12.815C86.4004 12.8195 86.7618 12.8241 86.7618 12.8241L86.0389 12.815C85.6956 11.3648 87.4982 11.7488 87.5027 11.3874L88.2211 11.7578C88.2211 11.7578 88.9439 11.7669 88.587 11.4009C87.8641 11.3919 86.7799 11.3783 86.4184 11.3738C86.057 11.3693 87.1413 11.3829 86.4229 11.0124L87.5072 11.0259C87.8687 11.0305 88.953 11.044 88.596 10.6781C88.2346 10.6735 87.1548 10.2986 86.7889 10.6555C86.7889 10.6555 87.1548 10.2986 87.8732 10.669C87.5163 10.3031 87.1503 10.66 86.4275 10.651C86.7889 10.6555 87.5163 10.3031 88.6006 10.3166L90.0418 10.6961C91.1261 10.7097 90.7646 10.7052 91.8489 10.7187L91.492 10.3528C89.3234 10.3257 88.6096 9.59377 87.1639 9.5757C86.807 9.20976 91.1396 9.62538 88.6141 9.23234C88.2527 9.22782 86.807 9.20976 87.5298 9.21879C87.5343 8.85736 85.7227 9.19621 86.45 8.84381C87.1684 9.21427 87.9003 8.50044 88.98 8.87542C88.6186 8.87091 88.6186 8.87091 88.6141 9.23234C89.337 9.24137 90.0598 9.2504 90.0643 8.88897C90.0643 8.88897 89.7074 8.52303 88.9846 8.51399C87.9003 8.50044 88.98 8.87542 88.2617 8.50496C88.2617 8.50496 89.7074 8.52303 87.9048 8.13901C87.9048 8.13901 87.1774 8.49141 86.4546 8.48238L86.0976 8.11643L86.8205 8.12546C87.1819 8.12998 85.7362 8.11192 85.7362 8.11192L86.8205 8.12546C87.9048 8.13901 86.4546 8.48238 87.9003 8.50044C87.9048 8.13901 87.1819 8.12998 87.5434 8.1345L87.9048 8.13901C87.9048 8.13901 90.0734 8.16611 88.9936 7.79113C88.6322 7.78662 88.2707 7.7821 87.9093 7.77758C87.9183 7.05472 87.1955 7.04569 86.8386 6.67974C87.9229 6.69329 86.8431 6.31831 88.2843 6.69781C87.5614 6.68878 87.5524 7.41164 88.6367 7.42519C90.0824 7.44325 88.2707 7.7821 90.0779 7.80468C90.0824 7.44325 91.5281 7.46132 92.6124 7.47487L92.251 7.47035C91.5281 7.46132 91.5281 7.46132 90.4438 7.44777C90.4484 7.08634 90.0914 6.72039 89.3686 6.71136C89.73 6.71587 90.8143 6.72942 90.8143 6.72942C90.4574 6.36348 90.8233 6.00656 90.8278 5.64513C89.3776 5.9885 90.4709 5.27919 89.3866 5.26564C89.0207 5.62255 87.9364 5.609 87.2135 5.59997C87.2135 5.59997 87.9364 5.609 88.2978 5.61352C87.575 5.60448 89.3866 5.26564 88.3024 5.25209C88.6593 5.61803 90.1095 5.27467 91.1938 5.28822C90.4755 4.91776 91.9167 5.29725 91.9212 4.93582C91.1983 4.92679 90.8414 4.56084 90.48 4.55633C91.5688 4.20844 90.489 3.83346 90.4935 3.47203C91.2164 3.48107 92.3007 3.49462 92.6666 3.1377C92.6711 2.77627 91.2209 3.11964 91.9438 3.12867L92.3052 3.13319C91.9438 3.12867 93.0326 2.78079 91.2299 2.39678L92.6756 2.41484L92.3142 2.41033C92.6756 2.41484 93.0371 2.41936 93.3985 2.42387C94.1214 2.43291 93.0416 2.05793 93.0416 2.05793L92.3187 2.04889C91.6004 1.67843 92.3233 1.68746 92.3278 1.32603L93.0506 1.33507L92.6892 1.33055C93.4121 1.33958 94.1349 1.34862 93.4166 0.978153L95.2192 1.36217C94.8578 1.35765 94.1349 1.34862 93.4121 1.33958C92.6892 1.33055 93.0461 1.6965 93.769 1.70553C93.769 1.70553 93.769 1.70553 93.4121 1.33958C94.4964 1.35313 94.4964 1.35313 95.2147 1.7236C95.2147 1.7236 95.5761 1.72811 95.2147 1.7236C95.9376 1.73263 95.933 2.09406 95.933 2.09406C95.5716 2.08954 95.2102 2.08503 94.8487 2.08051C95.933 2.09406 96.2945 2.09858 95.9285 2.45549C94.8442 2.44194 96.6469 2.82595 96.2809 3.18287C95.1966 3.16932 94.4783 2.79885 94.1169 2.79434C93.7554 2.78982 94.1123 3.15577 93.7509 3.15125C94.4738 3.16028 95.5581 3.17383 95.915 3.53978L95.1921 3.53075C95.549 3.89669 96.6333 3.91024 96.2719 3.90573C95.9059 4.26264 95.9014 4.62407 95.8969 4.9855L95.174 4.97647C96.6153 5.35596 95.5264 5.70385 96.2448 6.07431C95.5174 6.42671 96.9586 6.8062 95.5084 7.14957C96.2222 7.88146 96.9406 8.25192 96.5701 8.97027L95.4858 8.95672C96.2087 8.96575 94.7629 8.94769 95.1198 9.31363C95.8472 8.96124 96.2041 9.32718 96.927 9.33622C96.1996 9.68861 96.918 10.0591 97.6363 10.4295L96.9135 10.4205C98.3547 10.8 96.9044 11.1434 96.8999 11.5048C96.5385 11.5003 95.8156 11.4912 95.8111 11.8527C96.8909 12.2277 96.8909 12.2277 97.6092 12.5981C97.6047 12.9596 97.2388 13.3165 96.8773 13.3119C98.6754 14.0574 97.5776 15.1281 98.2914 15.86L97.5686 15.851C99.3667 16.5964 97.546 17.6581 98.6212 18.3946L97.1755 18.3765C96.8096 18.7334 97.5324 18.7424 98.6167 18.756C98.2508 19.1129 99.3306 19.4879 98.2463 19.4743C97.8803 19.8312 98.9646 19.8448 98.9646 19.8448C98.2372 20.1972 98.5941 20.5631 98.9511 20.9291C98.5896 20.9246 97.8668 20.9155 97.8668 20.9155C98.2282 20.9201 97.4963 21.6339 99.308 21.295C98.2192 21.6429 100.017 22.3884 98.567 22.7317C98.9285 22.7362 99.2899 22.7408 99.2899 22.7408C99.2854 23.1022 98.1966 23.4501 99.2764 23.825C98.9149 23.8205 98.5535 23.816 98.5535 23.816L99.2764 23.825C99.9902 24.5569 98.174 25.2572 98.5309 25.6232C99.5926 27.4439 98.8562 28.5191 99.2086 29.2465L98.8472 29.242C99.927 29.617 97.3924 29.9468 99.1951 30.3308C98.8336 30.3263 99.1905 30.6922 98.4677 30.6832C99.5475 31.0582 97.3744 31.3925 98.8156 31.772C98.8156 31.772 98.8156 31.772 98.4541 31.7675C97.7268 32.1199 98.8065 32.4949 98.0792 32.8473C98.0792 32.8473 97.7177 32.8427 97.3563 32.8382C96.6334 32.8292 98.7975 33.2177 96.9903 33.1951L97.7132 33.2042C96.9813 33.918 98.0521 35.0158 98.3999 36.1046C97.3066 36.814 95.5085 36.0685 96.9497 36.448C96.5883 36.4435 97.6726 36.457 97.3111 36.4525C97.668 36.8185 95.4995 36.7914 96.2223 36.8004C97.3066 36.814 96.9452 36.8094 97.3066 36.814C96.5792 37.1664 95.4949 37.1528 96.5747 37.5278L95.8519 37.5188C97.2931 37.8982 96.5657 38.2506 98.3683 38.6347C98.6981 41.1692 99.7553 43.3513 99.7282 45.5199C99.3397 47.684 100.04 49.5002 98.9286 51.6552C97.4784 51.9985 97.4784 51.9985 98.1922 52.7304C97.8308 52.7259 97.8308 52.7259 97.8308 52.7259C98.915 52.7395 97.8262 53.0874 98.9105 53.1009C98.5401 53.8193 98.8925 54.5466 98.8834 55.2695C98.8834 55.2695 97.8037 54.8945 97.7991 55.2559L98.5175 55.6264L98.1561 55.6219C98.1561 55.6219 98.8744 55.9923 99.2403 55.6354C99.9361 57.8131 97.7449 59.5931 97.7224 61.4002C97.3564 61.7572 97.7088 62.4845 97.7043 62.846C95.8791 64.2691 94.7812 65.3399 95.4815 67.156C95.486 66.7946 92.5991 66.397 91.8853 65.6652Z" fill="#1072BA"/>
<path d="M95.5897 0.644043C94.8669 0.63501 94.5009 0.991924 93.7826 0.621461C94.5054 0.630494 95.2283 0.639527 95.5897 0.644043Z" fill="#1072BA"/>
<path d="M89.0117 6.34556C88.6503 6.34105 87.9319 5.97058 87.9319 5.97058L89.0117 6.34556Z" fill="#1072BA"/>
<path d="M88.2753 7.4209C88.2753 7.4209 87.9138 7.41638 87.5524 7.41187C87.9093 7.77781 87.191 7.40735 88.2753 7.4209Z" fill="#1072BA"/>
<path d="M88.6006 39.2358C88.962 39.2403 88.2392 39.2313 87.8777 39.2268C87.8777 39.2268 88.5961 39.5973 88.6006 39.2358Z" fill="#1072BA"/>
<path d="M177.337 22.7804C177.246 22.4174 176.657 22.3715 177.11 22.6441C177.337 22.7804 177.564 22.9167 177.337 22.7804Z" fill="#1072BA"/>
<path d="M150.854 62.7333C149.675 61.0989 151.535 61.5995 151.037 60.374C151.037 60.374 151.944 60.9192 151.717 60.7829C150.765 59.2849 152.081 59.1498 153.624 59.151L153.851 59.2873C154.078 59.4236 153.307 58.6516 153.67 58.5612C153.897 58.6975 153.897 58.6975 154.123 58.8337C153.67 58.5612 154.033 58.4707 153.579 58.1981C153.806 58.3344 154.26 58.607 154.486 58.7433L153.806 58.3344C152.582 57.2899 154.306 58.0172 153.671 57.0185C153.898 57.1548 153.898 57.1548 154.125 57.2911C153.49 56.2924 154.126 55.7484 154.172 55.1586C154.398 55.2949 154.852 55.5675 155.079 55.7038C154.398 55.2949 154.535 55.0681 154.444 54.7051C155.125 55.114 153.9 54.0694 154.49 54.1153L154.717 54.2516C154.173 53.6159 155.307 54.2974 154.4 53.7522L154.853 54.0248C153.946 53.4796 155.443 54.0706 154.989 53.798L154.763 53.6618C154.536 53.5255 155.126 53.5713 154.899 53.435C154.808 53.0719 155.262 53.3445 154.582 52.9357C155.262 53.3445 154.672 53.2987 155.579 53.8439C155.308 52.7547 155.943 52.2107 156.352 51.5305C156.579 51.6668 156.806 51.8031 157.033 51.9394C156.806 51.8031 156.942 51.5763 156.715 51.44L157.169 51.7126C157.396 51.8489 156.625 51.077 156.852 51.2133C157.078 51.3496 157.305 51.4858 157.532 51.6221C157.215 51.1228 157.215 51.1228 157.124 50.7597C157.351 50.896 157.351 50.896 157.578 51.0323C157.034 50.3967 157.941 50.9419 157.624 50.4425L158.077 50.7151C158.667 50.7609 157.17 50.1699 157.76 50.2158C157.987 50.3521 157.987 50.3521 158.213 50.4884C157.669 49.8527 158.033 49.7622 157.942 49.3992L158.169 49.5355C158.305 49.3087 158.668 49.2183 158.215 48.9457C158.441 49.082 159.348 49.6272 159.258 49.2641C158.351 48.7189 159.168 48.9011 158.034 48.2196C158.397 48.1291 158.76 48.0387 158.533 47.9024C158.76 48.0387 159.667 48.5838 159.667 48.5838L160.12 48.8564C160.574 49.129 159.894 48.7201 160.347 48.9927C160.347 48.9927 160.03 48.4934 160.257 48.6297C159.803 48.3571 159.032 47.5851 158.942 47.2221C159.169 47.3584 159.849 47.7673 160.076 47.9036L158.761 46.496C158.761 46.496 159.441 46.9049 159.215 46.7686C158.988 46.6323 158.761 46.496 158.761 46.496C158.761 46.496 158.671 46.1329 159.578 46.6781C159.804 46.8144 159.668 47.0412 160.031 46.9507C160.167 46.7239 159.941 46.5876 159.941 46.5876C160.167 46.7239 159.623 46.0883 159.17 45.8157C159.17 45.8157 159.623 46.0883 159.397 45.952C158.943 45.6794 158.853 45.3164 158.989 45.0896C159.216 45.2259 159.443 45.3622 159.669 45.4985C159.125 44.8628 159.035 44.4998 158.944 44.1367C158.491 43.8642 159.625 44.5456 159.262 44.6361C159.851 44.6819 158.854 43.7737 159.67 43.9558L159.217 43.6832C159.217 43.6832 159.897 44.0921 159.807 43.7291C160.034 43.8654 159.807 43.7291 159.716 43.366C159.49 43.2297 159.943 43.5023 159.943 43.5023C159.58 43.5928 159.399 42.8667 159.989 42.9125C159.762 42.7762 159.218 42.1406 159.445 42.2769L159.898 42.5494C160.125 42.6857 160.035 42.3227 160.488 42.5953C159.944 41.9596 160.669 43.3214 160.352 42.822C160.805 43.0946 159.581 42.0501 160.488 42.5953C160.625 42.3685 159.944 41.9596 160.625 42.3685C160.625 42.3685 161.169 43.0042 161.305 42.7774C161.441 42.5506 161.078 42.6411 160.988 42.2781L160.761 42.1418C160.307 41.8692 160.897 41.915 160.307 41.8692C160.534 42.0055 159.99 41.3698 160.897 41.915L161.577 42.3239C161.577 42.3239 161.033 41.6882 160.807 41.5519L161.033 41.6882C160.126 41.1431 161.17 41.4615 160.489 41.0526C161.079 41.0984 160.762 40.5991 161.442 41.008C160.989 40.7354 160.762 40.5991 161.125 40.5086L161.352 40.6449C161.579 40.7812 161.352 40.6449 161.261 40.2819C161.488 40.4182 162.078 40.464 162.305 40.6003C162.305 40.6003 161.624 40.1914 161.398 40.0551C162.305 40.6003 160.854 39.4195 161.897 39.7379C162.124 39.8742 162.214 40.2372 162.577 40.1468C163.711 40.8282 161.897 39.7379 162.487 39.7837L161.58 39.2385C162.033 39.5111 161.263 38.7392 162.17 39.2844C161.943 39.1481 162.533 39.1939 161.852 38.785C162.669 38.9672 161.808 37.8322 163.168 38.6499C162.942 38.5136 163.305 38.4232 162.851 38.1506C162.398 37.878 163.078 38.2869 162.715 38.3773C162.715 38.3773 162.488 38.241 162.261 38.1048C162.488 38.241 162.624 38.0143 163.168 38.6499C164.121 38.6053 162.307 37.5149 162.897 37.5608C163.124 37.6971 163.35 37.8334 163.35 37.8334L162.806 37.1977C162.806 37.1977 163.487 37.6066 164.167 38.0155C164.167 38.0155 164.303 37.7887 163.85 37.5161L164.53 37.925C164.077 37.6524 164.303 37.7887 164.213 37.4257L164.44 37.562C164.666 37.6983 164.44 37.562 164.576 37.3352C164.122 37.0626 164.122 37.0626 163.759 37.1531C163.533 37.0168 163.533 37.0168 163.442 36.6537C163.896 36.9263 164.032 36.6996 164.032 36.6996C164.259 36.8359 163.578 36.427 163.715 36.2002C163.941 36.3365 163.851 35.9735 164.168 36.4728C164.168 36.4728 163.941 36.3365 164.168 36.4728C164.395 36.6091 164.848 36.8817 164.758 36.5187C164.531 36.3824 163.624 35.8372 164.214 35.883C164.441 36.0193 164.668 36.1556 164.668 36.1556L164.395 36.6091L163.941 36.3365C164.168 36.4728 164.168 36.4728 164.168 36.4728C163.715 36.2002 164.078 36.1098 163.624 35.8372L164.214 35.883C164.441 36.0193 164.35 35.6563 164.124 35.52C164.124 35.52 164.26 35.2932 164.033 35.1569C164.623 35.2027 165.847 36.2473 165.303 35.6116C165.303 35.6116 164.532 34.8397 164.306 34.7034C164.532 34.8397 164.125 33.9773 164.805 34.3862C164.578 34.2499 164.578 34.2499 164.352 34.1136C164.851 33.7964 164.443 32.934 165.35 33.4791C165.577 33.6154 165.804 33.7517 166.03 33.888C165.577 33.6154 166.484 34.1606 165.94 33.525C165.487 33.2524 165.26 33.1161 165.033 32.9798C164.806 32.8435 165.079 32.39 165.532 32.6626C165.306 32.5263 165.079 32.39 165.079 32.39C165.759 32.7989 165.986 32.9352 165.895 32.5721L165.442 32.2995L165.895 32.5721C165.669 32.4358 164.988 32.0269 165.578 32.0728C165.805 32.2091 166.032 32.3454 166.032 32.3454C165.578 32.0728 165.261 31.5734 165.624 31.483L166.304 31.8918C166.304 31.8918 165.987 31.3925 165.624 31.483C166.214 31.5288 166.35 31.302 167.03 31.7109C165.806 30.6664 165.988 29.8498 166.351 29.7594L166.578 29.8957C166.805 30.0319 165.898 29.4868 166.261 29.3963C166.488 29.5326 166.941 29.8052 167.395 30.0778C167.848 30.3504 167.077 29.5784 166.851 29.4421C166.397 29.1695 167.077 29.5784 166.624 29.3058C166.397 29.1695 167.214 29.3517 166.533 28.9428C166.76 29.0791 167.214 29.3517 167.44 29.488L167.214 29.3517C167.894 29.7606 168.438 30.3962 169.345 30.9414C170.025 31.3503 169.889 31.577 170.252 31.4866C170.025 31.3503 169.028 30.442 168.665 30.5325C168.574 30.1694 167.077 29.5784 167.214 29.3517C167.667 29.6243 167.077 29.5784 167.758 29.9873C168.211 30.2599 167.667 29.6243 167.894 29.7606C167.667 29.6243 166.987 29.2154 166.76 29.0791C166.987 29.2154 167.44 29.488 167.44 29.488C166.987 29.2154 166.896 28.8523 166.533 28.9428C165.626 28.3976 166.896 28.8523 166.216 28.4434C166.896 28.8523 167.44 29.488 168.03 29.5338C167.35 29.1249 167.26 28.7619 166.579 28.353C166.806 28.4893 167.26 28.7619 167.486 28.8982C167.94 29.1707 166.489 27.9899 167.623 28.6714L166.942 28.2625C167.169 28.3988 167.396 28.5351 167.623 28.6714C167.623 28.6714 166.852 27.8995 167.759 28.4446C167.759 28.4446 167.895 28.2179 167.215 27.809C166.761 27.5364 167.532 28.3083 166.625 27.7632C167.305 28.1721 166.761 27.5364 166.535 27.4001L166.988 27.6727C166.761 27.5364 167.124 27.4459 166.671 27.1734C166.898 27.3097 167.124 27.4459 167.124 27.4459L166.671 27.1734C166.989 26.13 167.987 27.0383 168.123 26.8115L168.44 27.3109C168.44 27.3109 168.894 27.5834 168.803 27.2204C168.35 26.9478 167.67 26.5389 167.443 26.4026C167.216 26.2663 167.896 26.6752 167.579 26.1759L168.259 26.5848C168.486 26.721 169.166 27.1299 169.076 26.7669C168.849 26.6306 168.305 25.9949 167.942 26.0854C167.942 26.0854 168.305 25.9949 168.622 26.4943C168.532 26.1312 168.169 26.2217 167.715 25.9491C167.942 26.0854 168.532 26.1312 169.212 26.5401L169.983 27.3121C170.663 27.7209 170.437 27.5846 171.117 27.9935L171.026 27.6305C169.666 26.8127 169.485 26.0866 168.578 25.5414C168.487 25.1784 171.072 27.0407 169.621 25.8598C169.394 25.7236 168.487 25.1784 168.941 25.451C169.077 25.2242 167.807 24.7695 168.397 24.8153C168.714 25.3147 169.44 25.1337 169.984 25.7694C169.757 25.6331 169.757 25.6331 169.621 25.8598C170.075 26.1324 170.528 26.405 170.665 26.1783C170.665 26.1783 170.574 25.8152 170.121 25.5426C169.44 25.1337 169.984 25.7694 169.667 25.27C169.667 25.27 170.574 25.8152 169.577 24.907C169.577 24.907 168.987 24.8612 168.533 24.5886L168.443 24.2255L168.896 24.4981C169.123 24.6344 168.216 24.0892 168.216 24.0892L168.896 24.4981C169.577 24.907 168.533 24.5886 169.44 25.1337C169.577 24.907 169.123 24.6344 169.35 24.7707L169.577 24.907C169.577 24.907 170.937 25.7248 170.393 25.0891C170.166 24.9528 169.94 24.8165 169.713 24.6802C169.985 24.2267 169.532 23.9541 169.441 23.5911C170.122 24 169.578 23.3643 170.348 24.1363C169.895 23.8637 169.622 24.3172 170.303 24.7261C171.21 25.2712 169.94 24.8165 171.073 25.498C171.21 25.2712 172.117 25.8164 172.797 26.2253L172.57 26.089C172.117 25.8164 172.117 25.8164 171.436 25.4075C171.573 25.1808 171.482 24.8177 171.029 24.5451C171.256 24.6814 171.936 25.0903 171.936 25.0903C171.845 24.7273 172.208 24.6368 172.345 24.41C171.301 24.0916 172.254 24.047 171.574 23.6381C171.211 23.7286 170.531 23.3197 170.077 23.0471C170.077 23.0471 170.531 23.3197 170.757 23.456C170.304 23.1834 171.574 23.6381 170.894 23.2292C170.984 23.5923 172.027 23.9107 172.708 24.3196C172.391 23.8202 173.161 24.5922 173.298 24.3654C172.844 24.0928 172.754 23.7298 172.527 23.5935C173.343 23.7756 172.799 23.14 172.936 22.9132C173.389 23.1858 174.069 23.5947 174.433 23.5042C174.569 23.2775 173.526 22.959 173.979 23.2316L174.206 23.3679C173.979 23.2316 174.796 23.4138 173.798 22.5055L174.705 23.0507L174.478 22.9144C174.705 23.0507 174.932 23.187 175.159 23.3233C175.612 23.5959 175.068 22.9602 175.068 22.9602L174.615 22.6876C174.297 22.1883 174.751 22.4609 174.887 22.2341L175.341 22.5067L175.114 22.3704C175.568 22.643 176.021 22.9156 175.704 22.4163L176.701 23.3245C176.475 23.1882 176.021 22.9156 175.568 22.643C175.114 22.3704 175.204 22.7335 175.658 23.0061C175.658 23.0061 175.658 23.0061 175.568 22.643C176.248 23.0519 176.248 23.0519 176.565 23.5512C176.565 23.5512 176.792 23.6875 176.565 23.5512C177.019 23.8238 176.882 24.0506 176.882 24.0506C176.655 23.9143 176.429 23.778 176.202 23.6417C176.882 24.0506 177.109 24.1869 176.746 24.2774C176.066 23.8685 177.063 24.7767 176.7 24.8672C176.02 24.4583 175.703 23.9589 175.476 23.8226C175.249 23.6863 175.34 24.0494 175.113 23.9131C175.566 24.1857 176.247 24.5946 176.337 24.9576L175.884 24.685C175.974 25.0481 176.654 25.457 176.428 25.3207C176.064 25.4111 175.928 25.6379 175.792 25.8647L175.338 25.5921C176.109 26.364 175.293 26.1819 175.61 26.6812C175.02 26.6354 175.791 27.4073 174.747 27.0889C174.928 27.815 175.245 28.3144 174.746 28.6316L174.066 28.2227C174.519 28.4953 173.612 27.9501 173.703 28.3132C174.293 28.359 174.383 28.722 174.837 28.9946C174.247 28.9488 174.564 29.4481 174.881 29.9475L174.428 29.6749C175.198 30.4468 174.155 30.1284 174.019 30.3552C173.792 30.2189 173.339 29.9463 173.202 30.173C173.746 30.8087 173.746 30.8087 174.063 31.308C173.927 31.5348 173.564 31.6253 173.337 31.489C174.199 32.6239 173.109 32.8953 173.29 33.6214L172.837 33.3489C173.698 34.4838 172.155 34.4826 172.563 35.345L171.656 34.7999C171.293 34.8903 171.746 35.1629 172.427 35.5718C172.064 35.6623 172.608 36.2979 171.927 35.889C171.564 35.9795 172.245 36.3884 172.245 36.3884C171.655 36.3425 171.745 36.7056 171.836 37.0686C171.609 36.9323 171.155 36.6598 171.155 36.6598C171.382 36.796 170.656 36.977 171.926 37.4317C171.11 37.2496 171.971 38.3845 170.927 38.0661C171.154 38.2024 171.381 38.3387 171.381 38.3387C171.245 38.5655 170.428 38.3833 170.972 39.019C170.745 38.8827 170.519 38.7464 170.519 38.7464L170.972 39.019C171.153 39.7451 169.747 39.5171 169.837 39.8802C169.836 41.4229 168.974 41.8305 168.928 42.4204L168.701 42.2841C169.245 42.9197 167.521 42.1924 168.519 43.1006C168.292 42.9643 168.383 43.3274 167.929 43.0548C168.473 43.6904 166.976 43.0994 167.747 43.8714C167.747 43.8714 167.747 43.8714 167.52 43.7351C166.93 43.6892 167.474 44.3249 166.884 44.279C166.884 44.279 166.658 44.1427 166.431 44.0065C165.977 43.7339 167.202 44.7784 166.068 44.0969L166.521 44.3695C165.795 44.5504 166.067 45.6396 165.885 46.4562C164.932 46.5008 164.071 45.3658 164.841 46.1377C164.615 46.0014 165.295 46.4103 165.068 46.274C165.158 46.6371 163.798 45.8193 164.251 46.0919C164.932 46.5008 164.705 46.3645 164.932 46.5008C164.342 46.455 163.662 46.0461 164.206 46.6817L163.752 46.4091C164.523 47.1811 163.933 47.1352 164.931 48.0435C164.203 49.7671 164.066 51.5365 163.248 52.897C162.203 54.1213 161.975 55.5277 160.477 56.4793C159.434 56.1609 159.434 56.1609 159.615 56.887C159.388 56.7507 159.388 56.7507 159.388 56.7507C160.069 57.1596 159.252 56.9775 159.932 57.3863C159.433 57.7036 159.387 58.2934 159.114 58.7469C159.114 58.7469 158.571 58.1112 158.434 58.338L158.751 58.8374L158.525 58.7011C158.525 58.7011 158.842 59.2004 159.205 59.1099C158.841 60.7431 156.799 61.0591 156.117 62.1929C155.754 62.2833 155.708 62.8732 155.572 63.0999C153.893 63.3255 152.804 63.5969 152.576 65.0032C152.712 64.7765 151.034 63.4594 150.854 62.7333Z" fill="#1072BA"/>
<path d="M177.201 23.0073C176.747 22.7347 176.384 22.8252 176.067 22.3259C176.52 22.5984 176.974 22.871 177.201 23.0073Z" fill="#1072BA"/>
<path d="M170.938 24.1821C170.712 24.0458 170.394 23.5464 170.394 23.5464L170.938 24.1821Z" fill="#1072BA"/>
<path d="M170.076 24.5898C170.076 24.5898 169.849 24.4535 169.622 24.3173C169.713 24.6803 169.396 24.181 170.076 24.5898Z" fill="#1072BA"/>
<path d="M158.535 44.8171C158.762 44.9534 158.309 44.6808 158.082 44.5445C158.082 44.5445 158.399 45.0439 158.535 44.8171Z" fill="#1072BA"/>
</svg>
