<svg width="31" height="36" viewBox="0 0 31 36" fill="none" xmlns="http://www.w3.org/2000/svg">
<path d="M27.6593 11.9118C26.3042 11.9118 25.2079 13.0082 25.2079 14.3613L25.2079 23.0438C25.2079 23.694 25.4662 24.3175 25.9259 24.7773C26.3856 25.237 27.0091 25.4953 27.6593 25.4953C28.3095 25.4953 28.933 25.237 29.3927 24.7773C29.8524 24.3175 30.1107 23.694 30.1107 23.0438L30.1107 14.3613C30.1107 13.0082 29.0144 11.9118 27.6593 11.9118ZM3.34064 11.9118C1.98556 11.9118 0.889221 13.0082 0.889221 14.3613L0.889221 23.0438C0.889221 23.694 1.14749 24.3175 1.60722 24.7773C2.06695 25.237 2.69048 25.4953 3.34064 25.4953C3.99079 25.4953 4.61432 25.237 5.07405 24.7773C5.53378 24.3175 5.79206 23.694 5.79206 23.0438L5.79206 14.3613C5.79231 14.0394 5.72906 13.7206 5.60593 13.4232C5.4828 13.1258 5.30221 12.8556 5.0745 12.628C4.84679 12.4005 4.57643 12.2201 4.27891 12.0972C3.98139 11.9743 3.66254 11.9113 3.34064 11.9118ZM20.3779 4.61127L21.8499 1.95093C21.8929 1.87519 21.9205 1.79166 21.9309 1.70518C21.9414 1.61871 21.9346 1.53101 21.9108 1.4472C21.8871 1.36338 21.847 1.28512 21.7928 1.21695C21.7385 1.14878 21.6713 1.09206 21.595 1.0501C21.5189 1.00718 21.435 0.979819 21.3482 0.969607C21.2614 0.959394 21.1735 0.966533 21.0895 0.990609C21.0055 1.01468 20.9271 1.05522 20.8589 1.10985C20.7907 1.16448 20.734 1.23213 20.6922 1.30885L19.18 4.03052C18.053 3.5801 16.811 3.32518 15.5 3.32518C14.189 3.32518 12.947 3.57818 11.82 4.0286L10.3077 1.31077C10.2659 1.23404 10.2092 1.1664 10.141 1.11177C10.0729 1.05713 9.99448 1.0166 9.91048 0.992526C9.82648 0.96845 9.73854 0.961311 9.65175 0.971524C9.56497 0.981736 9.48109 1.0091 9.40497 1.05202C9.32901 1.09435 9.26215 1.15126 9.20821 1.21948C9.15428 1.28769 9.11432 1.36588 9.09065 1.44955C9.06697 1.53323 9.06003 1.62076 9.07022 1.70712C9.08042 1.79348 9.10754 1.87698 9.15006 1.95285L10.6221 4.61318C7.9713 6.12352 6.2003 8.8241 6.2003 11.9118C6.2003 11.9329 6.2003 11.9521 6.20414 11.977C6.2003 11.9885 6.2003 12.0019 6.2003 12.0134L6.2003 12.0153L24.7977 12.0153L24.7977 11.9118C24.7996 8.8241 23.0286 6.12543 20.3779 4.61127ZM11.2066 8.38327C11.1194 8.38264 11.0332 8.36484 10.9529 8.33088C10.8725 8.29692 10.7997 8.24747 10.7384 8.18536C10.6148 8.05991 10.546 7.89049 10.5473 7.71435C10.5486 7.53821 10.6198 7.36979 10.7452 7.24614C10.8707 7.1225 11.0401 7.05374 11.2162 7.05502C11.3924 7.05629 11.5608 7.12748 11.6844 7.25292C11.8081 7.37837 11.8768 7.5478 11.8756 7.72393C11.8743 7.90007 11.8031 8.06849 11.6776 8.19214C11.5522 8.31578 11.3828 8.38454 11.2066 8.38327ZM19.7933 8.38327C19.6261 8.37055 19.4699 8.29516 19.356 8.17219C19.242 8.04923 19.1787 7.88775 19.1787 7.7201C19.1787 7.55244 19.242 7.39097 19.356 7.268C19.4699 7.14504 19.6261 7.06965 19.7933 7.05693C19.9692 7.05693 20.1379 7.1268 20.2622 7.25117C20.3866 7.37554 20.4565 7.54422 20.4565 7.7201C20.4565 7.89598 20.3866 8.06466 20.2622 8.18903C20.1379 8.3134 19.9692 8.38327 19.7933 8.38327ZM6.2003 26.1143C6.2003 27.3525 7.20655 28.3588 8.45047 28.3588L9.57364 28.3588L9.57364 32.9607C9.57364 33.6108 9.83191 34.2344 10.2916 34.6941C10.7514 35.1538 11.3749 35.4121 12.0251 35.4121C12.6752 35.4121 13.2987 35.1538 13.7585 34.6941C14.2182 34.2344 14.4765 33.6108 14.4765 32.9607L14.4765 28.3588L16.5196 28.3588L16.5196 32.9607C16.5196 34.3158 17.616 35.4102 18.9672 35.4102C20.3261 35.4102 21.4225 34.3158 21.4225 32.9607L21.4225 28.3588L22.5456 28.3588C23.7876 28.3588 24.7958 27.3544 24.7958 26.1143L24.7958 12.5213L6.2003 12.5213L6.2003 26.1143Z" fill="white"/>
</svg>
