<svg width="32" height="38" viewBox="0 0 32 38" fill="none" xmlns="http://www.w3.org/2000/svg">
<path d="M30.6913 29.221C30.1605 30.4582 29.5048 31.6379 28.7343 32.7419C27.7051 34.212 26.8598 35.2278 26.212 35.7932C25.2058 36.717 24.1248 37.1924 22.969 37.2192C22.141 37.2192 21.1405 36.9835 19.9752 36.5043C18.806 36.027 17.7327 35.7932 16.7494 35.7932C15.7202 35.7932 14.6162 36.027 13.4336 36.5043C12.2529 36.9835 11.2984 37.2345 10.5682 37.2575C9.46227 37.3055 8.35635 36.8186 7.25426 35.7932C6.55085 35.1799 5.6711 34.1257 4.61502 32.6345C3.48418 31.0456 2.5546 29.196 1.82627 27.0935C1.04618 24.8184 0.655182 22.618 0.655182 20.4867C0.655182 18.0468 1.18227 15.9404 2.23835 14.177C3.03712 12.7922 4.17907 11.6364 5.55418 10.821C6.91016 10.0077 8.4581 9.56974 10.0392 9.55213C10.9208 9.55213 12.0766 9.8243 13.5083 10.361C14.9401 10.8976 15.8601 11.1698 16.2607 11.1698C16.5635 11.1698 17.5813 10.8497 19.3139 10.2153C20.9488 9.62688 22.3288 9.38346 23.4597 9.4793C26.5264 9.72655 28.8283 10.934 30.3597 13.1114C27.6189 14.7731 26.2638 17.098 26.2906 20.0823C26.3136 22.4072 27.1588 24.3411 28.8148 25.8764C29.547 26.577 30.4012 27.1376 31.3353 27.5305C31.1321 28.1189 30.9174 28.6805 30.6913 29.221ZM23.6628 1.56155C23.6628 3.38238 22.9958 5.08438 21.6714 6.65796C20.0691 8.52863 18.1333 9.61155 16.0345 9.44096C16.0071 9.212 15.9936 8.98157 15.9943 8.75096C15.9943 7.00105 16.7533 5.13038 18.1084 3.59897C18.783 2.82463 19.6417 2.17872 20.6824 1.66505C21.7213 1.15905 22.7026 0.879215 23.6264 0.831299C23.6514 1.07663 23.6628 1.32005 23.6628 1.56155Z" fill="white"/>
</svg>
