<svg width="272" height="240" viewBox="0 0 272 240" fill="none" xmlns="http://www.w3.org/2000/svg">
<path d="M68.4007 213.534C68.2812 213.874 68.5225 214.694 69.0621 214.413L69.18 213.073L68.4007 213.534Z" fill="#71BA44"/>
<path d="M72.6831 215.067C73.2219 214.286 73.7599 213.006 72.9783 211.967C72.6404 213.347 72.2797 212.868 71.9821 214.468C71.4426 214.749 70.8619 214.31 70.8611 213.81C70.7417 214.15 69.8809 213.672 69.8223 214.592C70.7638 215.51 71.7234 215.289 72.5217 214.187C72.8421 214.447 72.6427 214.847 72.6831 215.067Z" fill="#71BA44"/>
<path d="M123.682 188.708L123.302 188.869C123.522 188.828 123.602 188.768 123.682 188.708Z" fill="#71BA44"/>
<path d="M135.428 154.09C135.529 154.39 135.729 154.489 135.809 154.429C135.689 154.269 135.508 154.03 135.428 154.09Z" fill="#71BA44"/>
<path d="M134.758 147.211C134.738 147.351 134.858 147.511 134.838 147.651C134.938 147.451 134.958 147.31 134.758 147.211Z" fill="#71BA44"/>
<path d="M123.682 188.708L124.681 188.207C124.441 187.887 124.082 188.408 123.682 188.708Z" fill="#71BA44"/>
<path d="M79.3952 210.017C79.2354 210.137 79.1357 210.337 79.036 210.537C79.1958 210.417 79.2757 210.357 79.4356 210.237C79.4553 210.097 79.4553 210.097 79.3952 210.017Z" fill="#71BA44"/>
<path d="M112.46 200.406L112.221 200.586C112.201 200.726 112.241 200.946 112.282 201.166L112.46 200.406Z" fill="#71BA44"/>
<path d="M102.051 207.362C102.351 207.261 101.849 206.262 101.709 205.742C101.789 206.182 101.75 206.462 101.57 206.722C101.69 206.882 101.811 207.042 102.051 207.362Z" fill="#71BA44"/>
<path d="M119.532 194.834C119.652 194.994 119.792 195.014 119.932 195.034C119.792 195.014 119.652 194.994 119.532 194.834Z" fill="#71BA44"/>
<path d="M205.436 16.9409C205.515 16.8808 205.576 16.9607 205.655 16.9006C205.515 16.8808 205.515 16.8808 205.436 16.9409Z" fill="#71BA44"/>
<path d="M208.773 2.41577L208.893 2.57558C209.113 2.53524 209.333 2.4949 209.553 2.45456L208.773 2.41577Z" fill="#71BA44"/>
<path d="M128.6 135.7C128.92 135.96 128.8 135.8 128.6 135.7V135.7Z" fill="#71BA44"/>
<path d="M142.416 171.859C140.876 171.641 143.513 169.657 141.293 169.701C141.613 169.96 140.676 172.042 142.416 171.859Z" fill="#71BA44"/>
<path d="M79.7552 209.996C79.915 209.876 80.055 209.896 80.275 209.856C79.9751 209.956 79.8351 209.936 79.7552 209.996Z" fill="#71BA44"/>
<path d="M141.293 169.701L141.073 169.741C141.153 169.681 141.153 169.681 141.293 169.701Z" fill="#71BA44"/>
<path d="M99.3509 129.926C99.4711 130.086 99.6713 130.185 99.7915 130.345C99.7314 130.265 99.6112 130.105 99.3509 129.926Z" fill="#71BA44"/>
<path d="M120.916 132.972C120.795 132.812 120.595 132.713 120.475 132.553C120.655 132.793 120.856 132.892 120.916 132.972Z" fill="#71BA44"/>
<path d="M90.0239 138.32C89.7043 138.561 89.5643 138.541 89.4851 139.101C89.5651 139.041 89.5651 139.041 89.7051 139.061C89.5247 138.821 89.6244 138.621 90.0239 138.32Z" fill="#71BA44"/>
<path d="M89.8242 151.361C89.9041 151.3 89.9239 151.16 89.9437 151.02C89.8835 150.94 89.7633 150.781 89.7032 150.701L89.8242 151.361Z" fill="#71BA44"/>
<path d="M206.283 47.3396C206.602 47.0991 206.962 47.0785 207.342 46.9179C206.523 47.1592 206.32 45.5595 206.283 47.3396Z" fill="#71BA44"/>
<path d="M79.5962 210.617C79.6357 210.337 79.5954 210.117 79.6753 210.056C79.5954 210.117 79.5155 210.177 79.3754 210.157C79.4957 210.317 79.536 210.537 79.5962 210.617Z" fill="#71BA44"/>
<path d="M97.4716 143.229C97.3719 143.429 97.2121 143.549 97.1124 143.749C97.2121 143.549 97.3719 143.429 97.4716 143.229Z" fill="#71BA44"/>
<path d="M184.009 115.534L184.068 115.114C184.048 115.254 184.028 115.394 184.009 115.534Z" fill="#71BA44"/>
<path d="M97.1352 145.609C96.8156 145.85 96.5759 146.03 96.5363 146.31C96.6764 146.33 96.6764 146.33 96.8164 146.35C96.856 146.07 97.0355 145.809 97.1352 145.609Z" fill="#71BA44"/>
<path d="M205.266 36.3413C205.128 37.8216 206.667 37.0392 207.467 37.4379C207.85 39.2773 206.349 38.2797 205.55 38.8809C205.891 40.0004 207.253 40.9783 207.134 41.8184C206.914 41.8588 206.815 42.0589 206.494 41.7994C207.596 43.0977 206.28 45.3398 207.702 46.8976C207.542 47.0178 207.402 46.998 207.322 47.0582C208.062 46.877 208.842 46.9158 209.322 47.0551C209.303 47.6951 210.125 48.4538 209.105 48.5954C209.164 48.1753 208.824 48.0558 208.564 47.8762L208.885 48.6357C207.386 49.1381 208.523 47.6563 207.543 47.5178C207.845 48.9174 208.808 50.6959 208.31 51.6966C206.95 51.7188 208.106 49.097 206.768 50.479L207.425 48.858C205.207 49.9014 207.704 47.8976 205.285 48.8413C204.628 50.9623 205.789 51.3405 205.072 53.3817C205.773 53.9806 206.212 53.3999 206.853 53.9189C207.738 57.2575 203.156 55.8246 204.58 58.3824C205.401 59.1412 207.042 59.6586 205.844 61.0605L204.463 60.2226C203.966 62.2234 206.385 61.7796 205.028 63.8017C204.528 63.3025 204.846 62.062 204.586 62.3824C203.128 63.6047 205.208 63.5415 205.05 64.6617L203.63 64.6039C203.313 66.8444 203.797 69.4837 203.441 72.0042C203.121 71.7447 202.76 71.2653 202.201 71.6862C202.106 74.8863 200.291 78.1291 198.635 80.7517L199.357 82.2106C199.257 82.4107 198.737 82.5515 198.577 82.1718C197.798 83.133 199.257 82.4107 199.518 83.0903C199.419 83.7905 198.639 83.7517 198.358 83.2121C198.682 85.4716 198.388 89.5721 196.451 91.1551L196.31 90.6353C195.252 92.057 197.854 93.3529 196.136 94.3956L196.115 94.0356C195.238 95.697 194.481 97.5182 193.743 99.1993C193.006 100.88 192.008 102.382 190.67 103.264C191.992 104.522 188.394 106.228 190.356 107.505C188.318 108.788 188.197 108.128 186.101 110.331C185.582 110.972 186.783 112.07 186.505 113.031L185.444 112.452L185.907 114.231L184.286 114.074L184.148 115.054C184.407 114.734 184.987 114.673 185.308 114.932C185.09 116.473 182.732 117.496 182.131 117.197C181.833 118.298 181.515 119.538 181.217 120.639C180.836 120.299 181.055 119.759 180.994 119.179C181.038 121.399 179.774 118.721 179.777 120.721C180.137 120.7 180.277 121.22 180.538 121.4C179.498 121.681 178.421 123.243 177.883 124.524L177.341 123.805C175.644 125.707 174.629 128.349 172.812 130.592C173.751 130.01 174.813 131.089 174.414 131.889L173.133 131.351C173.435 132.251 174.053 130.91 174.195 132.43C173.376 133.171 172.594 132.132 172.633 131.352L172.235 132.653C171.835 132.453 171.954 132.113 171.574 131.774C171.715 132.294 171.115 132.494 170.575 132.775C170.036 133.056 169.416 133.397 169.738 134.157L169.337 133.957C167.54 136.06 167.063 137.421 165.545 139.063C166.366 139.822 165.507 140.343 165.769 141.523C164.411 142.545 162.312 143.248 161.094 144.79C160.536 146.211 161.456 145.77 161.537 146.709C160.776 146.031 159.278 147.533 159.596 146.292C158.758 147.174 158.239 147.815 157.72 148.455C157.201 149.096 156.642 150.017 155.744 151.318C156.304 151.398 156.684 151.237 156.765 151.677C156.406 152.197 155.546 152.219 155.245 151.819L155.265 151.679C154.447 153.42 152.409 154.204 150.53 154.866C148.651 155.529 146.832 156.272 146.394 157.853L146.494 157.653L144.838 160.275C143.679 160.897 144.996 159.155 143.837 159.277C142.302 162.559 139.761 161.843 138.304 164.065C136.703 163.268 135.384 164.01 134.065 164.752C132.666 165.554 131.267 166.356 129.946 165.598L130.207 166.278C129.809 167.079 129.467 165.959 129.047 165.9C129.188 166.42 129.768 166.359 129.488 166.819C127.15 167.703 124.469 167.467 122.028 166.551C119.586 165.635 117.364 164.178 115.222 162.661C114.441 162.123 113.762 162.884 113.063 163.285C112.423 163.766 111.744 164.027 111.082 162.648C111.541 162.427 111.941 162.126 112.401 161.906C111.36 161.687 110.42 161.269 109.559 160.79C108.718 160.171 107.797 159.613 107.116 158.874L105.974 157.856C105.594 157.516 105.213 157.177 104.833 156.837C103.992 156.219 103.231 155.54 102.23 155.041C102.59 155.021 102.909 154.78 103.23 155.04C103.328 153.84 101.206 152.683 100.567 153.164C100.286 152.625 101.006 152.583 101.085 152.023C101.084 151.523 100.484 151.224 100.004 151.085C99.4634 150.866 99.0631 150.666 99.3424 150.206C99.4421 150.006 99.7024 150.185 99.8424 150.205C99.5623 150.166 99.2016 149.686 98.901 149.287C98.6605 148.967 98.3401 148.708 97.9809 149.228C97.9603 148.868 97.7799 148.628 97.6795 148.329C97.4991 148.089 97.3986 147.789 97.1384 147.609C96.958 147.37 96.7776 147.13 96.7373 146.91C96.6969 146.69 96.6566 146.47 96.6961 146.19C96.136 146.111 95.9952 145.591 96.1147 145.251C96.1345 145.111 96.0941 144.891 96.034 144.811C95.9138 144.651 95.7737 144.632 95.3536 144.572C96.2737 144.631 96.6131 144.25 96.7326 143.91C96.8521 143.57 96.7113 143.05 96.4106 142.651C96.591 142.89 96.811 142.85 97.0309 142.81C97.2508 142.769 97.451 142.869 97.7714 143.128C97.9708 142.728 98.1298 142.108 97.349 141.569C98.5895 141.887 98.6884 141.187 99.1473 140.466C99.3466 140.066 99.5262 139.806 99.8261 139.705C100.126 139.605 100.466 139.724 101.027 140.303C103.024 138.3 105.902 137.136 108.742 136.751C108.683 137.671 107.963 137.713 107.163 137.814C106.443 137.855 105.764 138.116 105.925 138.996C107.064 138.514 108.083 137.872 109.143 137.451C110.202 137.029 111.302 136.827 112.522 137.285C113.183 137.664 112.063 138.006 111.744 138.247C113.063 138.005 114.224 138.383 115.385 138.761C116.465 139.199 117.486 139.558 118.686 139.656C118.586 139.856 118.306 139.817 118.086 139.857C118.427 139.976 118.767 140.596 119.166 139.795C119.026 139.775 118.886 139.756 118.666 139.796C118.685 139.156 119.385 138.755 120.184 138.654C120.984 138.552 121.844 138.531 122.084 138.351C120.026 139.774 123.667 140.288 120.809 141.813C121.089 141.852 121.669 141.791 121.949 141.331C122.169 141.791 122.05 142.131 121.31 142.312C122.851 143.029 122.99 142.049 124.051 143.128C123.732 143.368 123.392 143.249 122.932 143.469C123.432 143.469 123.992 143.548 124.472 143.687C124.953 143.826 125.393 144.246 125.594 144.845C125.374 144.886 125.175 145.286 125.014 144.906C125.755 145.725 126.676 146.284 127.517 146.902C128.358 147.521 129.16 148.42 129.262 149.72C127.402 149.742 129.043 150.76 127.744 151.362C128.045 151.761 128.285 152.081 128.586 152.481L129.125 151.7C129.326 152.299 129.766 152.719 130.067 153.118C130.428 153.598 130.648 154.057 130.569 154.617C130.249 154.358 130.068 154.118 129.748 153.859C130.009 154.538 130.27 155.218 130.451 155.958C130.591 155.477 130.65 155.057 130.789 154.577C131.791 155.576 132.648 154.054 132.551 155.754C132.311 155.435 132.733 156.994 131.914 157.735C132.475 158.315 133.036 158.894 132.617 159.834C132.158 160.055 130.997 159.677 130.617 159.837C131.298 160.076 131.339 160.796 131.38 161.516C131.421 162.236 131.522 163.036 132.103 163.475C131.863 163.155 131.082 163.117 130.863 163.157L131.783 163.716C131.424 164.236 131.204 164.277 130.584 164.117C130.207 165.778 132.484 163.815 131.427 165.736C131.386 165.516 131.226 165.636 131.066 165.257C130.369 167.158 130.852 169.297 129.835 170.939C128.255 171.001 129.992 169.318 128.612 169.481C128.434 170.741 128.297 172.221 128.099 173.621C128 174.321 127.761 175.002 127.602 175.622C127.482 175.962 127.363 176.302 127.183 176.563C127.004 176.823 126.884 177.163 126.565 177.404L126.964 177.103C127.805 177.722 127.326 178.083 126.706 178.424C126.087 178.764 125.247 179.146 125.209 179.926C125.268 179.506 124.487 178.967 124.607 179.127C123.349 180.449 122.993 182.469 121.697 185.071L121.496 184.472C120.956 184.752 120.457 185.253 119.958 185.754C119.458 186.255 118.959 186.756 118.48 187.116C118.681 187.716 118.121 188.137 118.942 188.396C116.562 188.559 115.704 190.081 114.707 191.582C114.248 192.303 113.789 193.024 113.13 193.645C112.551 194.206 111.791 194.527 110.711 194.588C111.031 194.348 111.13 193.648 110.89 193.828L109.033 195.851C109.734 196.45 109.714 196.09 110.534 196.349C110.575 197.069 110.176 197.869 109.617 198.29C110.295 197.029 108.715 197.091 108.015 196.993C108.275 197.172 108.296 197.532 108.476 197.772C106.335 197.255 109.379 199.47 107.059 199.714L106.839 199.254C106.32 199.895 106.121 200.795 105.361 201.117C104.661 200.518 105.88 200.476 105.499 199.636C104.62 200.298 104.664 202.518 103.283 202.18C103.502 201.64 104.122 201.299 104.341 200.758C102.7 200.241 102.861 200.621 102.041 200.862L102.121 200.802L100.182 201.385L100.742 201.464C100.804 203.044 100.245 203.465 99.5457 203.866C98.8463 204.267 98.0868 204.588 97.6287 205.809C98.465 203.427 97.4871 204.789 97.0054 203.65C96.4452 203.571 95.5853 203.592 95.6446 203.172C95.3266 204.412 94.0046 203.154 93.5275 205.015C93.287 204.695 92.6881 205.396 92.4666 204.437C91.5678 205.238 92.9674 204.936 93.1082 205.456C92.0512 207.377 88.7086 205.763 86.9926 208.305C85.2149 209.768 85.2971 211.208 83.5391 212.531C82.6586 212.192 83.6167 210.97 83.6167 210.97C82.3564 210.792 81.6571 211.194 80.6982 211.915C80.8177 211.575 80.4973 211.315 80.0368 211.036C79.2773 211.357 79.8991 212.516 78.6388 212.338C78.6982 211.918 78.737 211.138 78.9561 210.598C78.0772 211.259 77.3786 212.16 76.4996 212.822C76.0787 212.262 76.8778 211.661 77.0969 211.121C76.0779 211.762 74.3991 212.525 74.2409 213.645L75.0011 213.824C74.6214 213.984 74.6198 212.984 74.7994 212.724C75.5178 211.683 76.2994 212.722 76.46 213.102L75.8208 213.583C77.1838 215.56 78.6191 212.478 80.0985 212.116L79.9814 213.956L81.0186 212.174C81.479 212.454 82.0004 213.313 81.3611 213.794C82.6617 214.192 82.0597 212.893 83.2606 213.491C83.4608 213.591 83.3809 213.651 83.3611 213.791L84.2599 212.989C84.2005 213.41 84.8215 214.069 84.1214 213.97C86.3018 214.206 86.5779 211.746 87.7393 212.624L87.6396 212.824C89.9173 211.361 87.4577 211.584 88.7544 209.482C89.5756 210.241 90.3968 211 91.1578 211.679L90.896 210.499C91.1958 210.399 91.7156 210.258 91.8564 210.778C92.4546 209.577 91.4957 210.298 91.6943 209.398C93.3351 209.915 94.7513 207.473 95.8937 208.991C95.8921 207.991 94.4736 208.934 95.4317 207.712C96.6943 209.39 96.7901 206.69 98.2505 206.968C98.4522 208.067 97.1524 208.169 98.6927 208.387C98.4697 206.427 101.012 207.643 101.77 206.822C101.088 205.583 103.428 205.2 104.686 203.878C104.827 204.398 107.824 202.893 109.463 202.41L109.504 202.63C108.982 201.271 110.441 200.549 111.219 199.588C111.68 200.367 111.701 200.727 111.382 201.467L112.341 200.746C112.28 200.166 112.399 199.826 112.918 199.185L113.34 200.244C114.619 199.282 114.956 197.402 116.915 196.679C116.313 195.88 113.873 195.463 114.99 193.622C115.37 193.961 116.131 194.64 115.832 195.24C115.932 195.04 116.011 194.48 116.451 194.399L116.493 195.619C117.392 195.318 116.332 194.74 116.891 194.319C117.372 194.958 117.671 194.358 118.012 194.977C117.912 195.177 117.352 195.098 117.353 195.598C118.052 195.197 119.092 194.915 119.712 195.074C119.392 194.815 119.031 194.335 119.39 193.815C120.468 192.753 120.411 194.173 121.39 193.812C121.269 193.152 122.389 192.81 121.567 192.052C121.827 191.731 122.347 192.09 122.628 192.13C122.826 191.23 125.103 189.266 123.483 189.109L123.323 189.229C123.323 189.229 123.403 189.169 123.343 189.089C123.681 187.708 124.799 186.866 125.718 185.925C126.217 185.424 126.776 185.003 127.196 184.563C127.695 184.062 128.054 183.541 128.293 182.861L128.614 183.121C129.111 181.62 130.189 180.058 130.027 178.678C130.226 178.278 131.186 178.057 131.486 178.456C131.724 177.276 131.484 176.956 132.742 175.634C132.904 177.014 133.482 175.453 132.764 176.994C133.722 175.773 134.402 175.512 134.099 173.612C134.9 174.511 135.698 172.91 135.676 172.05L134.698 172.911C134.816 172.071 135.135 171.33 135.434 170.73L136.615 171.468C137.214 170.767 137.473 169.947 137.512 169.167C137.551 168.387 137.449 167.587 137.268 166.847C136.906 165.368 136.724 164.128 138.042 162.886C137.101 161.967 137.285 164.707 136.203 163.769C136.401 162.368 138.419 160.725 138.418 160.225C138.716 159.125 138.216 158.626 137.715 158.126C137.134 157.687 136.633 157.188 136.712 156.128C136.232 156.489 135.033 156.891 134.451 155.451C134.368 154.012 136.047 153.249 136.568 154.108C136.729 154.488 136.569 154.608 136.409 154.728C136.63 155.188 136.971 155.808 137.43 155.087L136.95 154.948C137.288 154.067 136.725 151.988 137.606 152.327C136.824 151.288 136.725 151.988 136.667 152.908C136.823 150.788 135.882 149.869 135.459 147.81C135.399 148.23 134.98 148.671 134.8 148.431C134.517 146.891 134.117 146.692 133.757 146.713C133.337 146.653 132.957 146.814 132.436 145.955C132.554 144.614 134.215 145.492 132.633 144.054C132.391 142.735 133.551 143.113 134.152 143.412C133.311 142.793 132.93 141.954 132.688 141.134C132.447 140.315 132.346 139.515 132.065 138.975C132.385 139.235 132.726 139.354 133.046 139.614C132.525 139.254 132.165 138.775 131.784 138.436L131.426 139.456C131.145 138.917 130.844 138.517 131.104 138.197C130.184 138.138 130.266 139.578 128.745 139.22C128.584 138.341 126.783 137.943 127.442 136.822C128.223 137.861 128.343 137.521 128.602 137.201C128.802 136.8 129.001 136.4 129.902 137.098C129.502 136.899 129.201 136.5 128.78 135.94C128.8 135.8 129.02 135.76 129.22 135.86C128.076 133.341 127.401 136.102 125.478 134.545C126.177 134.144 125.756 133.085 125.336 133.026C126.177 133.644 125.018 134.266 123.958 134.188C122.935 132.829 122.257 133.59 121.536 133.131L122.297 133.81C121.658 134.291 121.017 133.772 119.977 133.554C120.056 132.994 121.037 133.632 120.736 133.233C119.977 133.554 119.416 132.975 118.855 132.396C118.294 131.817 117.673 131.157 116.653 131.299C116.032 130.64 116.911 129.979 116.33 129.54C115.231 129.741 114.77 129.462 114.25 129.103C113.729 128.744 113.209 128.384 112.169 128.666C112.67 129.665 112.77 129.465 111.231 130.247C112.331 130.046 113.411 129.984 114.551 130.002C113.792 130.324 113.032 130.645 112.253 131.106C113.173 131.164 114.372 130.763 114.893 131.122C113.814 131.683 113.913 131.483 114.215 132.383C113.754 131.604 113.034 131.645 112.354 131.906C111.614 132.087 110.935 132.348 110.294 131.829L110.41 129.489C109.209 128.891 108.09 129.232 107.03 129.654C105.891 130.136 104.752 130.618 103.252 130.62L104.292 130.838C104.153 131.318 103.713 131.399 103.193 131.54C102.613 131.601 102.034 131.662 101.634 131.962C101.533 131.163 100.833 131.064 100.312 130.704C100.533 131.164 98.0732 131.388 98.4157 133.007C97.8556 132.928 97.3152 132.709 96.6752 132.69C95.3959 133.152 94.9774 134.093 94.7186 134.913C94.4401 135.874 94.2613 136.634 93.3625 137.435C93.3808 136.295 92.0414 136.677 92.9188 135.016C92.1996 135.557 91.4805 136.098 91.9211 136.517C91.5612 136.538 91.3222 137.218 91.0833 137.899C90.8443 138.579 90.6655 139.339 90.1457 139.48C90.2865 140 90.9273 140.519 90.5286 141.32C90.3086 141.36 90.1884 141.2 90.1884 141.2C90.5286 141.32 90.2508 142.78 91.33 142.218C89.7912 143.001 89.5546 145.181 89.8971 146.801C90.2997 148.5 90.9421 150.019 90.4642 151.38C91.3866 152.938 92.7489 154.416 93.7307 155.555C93.5107 155.595 93.4111 155.795 93.3106 155.495C93.9537 157.514 95.8699 155.071 96.5534 157.31C96.316 158.991 95.2528 156.912 95.354 157.712C94.4355 158.654 95.0162 159.093 95.657 159.612C96.3777 160.071 97.2986 160.629 97.3001 161.629L96.8998 161.43C97.0422 162.95 99.6419 162.746 100.864 164.204C100.864 164.204 100.704 164.324 100.605 164.524C101.544 164.443 102.505 164.721 103.525 165.079C104.546 165.438 105.547 165.936 106.347 166.335C105.348 166.837 105.427 166.277 105.069 167.297C105.809 167.616 105.847 165.836 107.328 166.474C107.429 167.273 108.15 168.232 107.712 169.313L106.331 168.475C106.292 169.255 106.672 169.595 107.233 169.674C107.713 169.813 108.353 169.832 108.673 170.091L107.814 170.613C108.955 171.131 109.675 171.09 110.475 170.989C111.275 170.887 111.915 170.906 113.115 171.505L113.055 170.925C114.973 169.982 113.797 172.244 115.596 171.641C115.517 172.201 115.517 172.701 115.438 173.261C115.938 173.26 116.818 173.099 117.898 173.037C118.838 172.956 119.937 172.754 120.717 172.793C120.158 173.214 119.399 173.535 118.439 173.756C117.619 173.998 116.699 173.939 115.96 174.12C116.44 174.259 117.26 174.518 118.04 174.557C118.82 174.596 119.54 174.555 119.88 174.174C119.44 174.255 118.9 174.536 118.6 174.136C119.379 173.675 120.058 173.414 120.878 173.173C121.618 172.991 122.478 172.97 123.398 173.029C123.219 173.789 123.44 174.249 123.9 174.528C124.361 174.807 125.061 174.906 125.841 174.945C126.541 175.044 127.401 175.022 128.101 175.121C128.801 175.22 129.482 175.459 129.903 176.019C131.601 175.116 133.341 174.933 135.18 174.55C137.02 174.167 138.859 173.785 140.577 172.742C138.215 171.266 141.596 172.1 140.233 170.122C140.953 169.581 141.192 169.401 141.392 169.501C142.392 169.499 143.472 169.437 144.412 169.356C145.373 169.635 143.994 170.297 144.374 170.636C146.073 169.733 145.675 171.034 147.055 170.872C146.354 170.273 146.892 169.492 148.012 169.15L146.092 169.093C147.528 166.511 149.252 169.468 150.628 166.806L150.39 167.987C151.208 166.745 154.525 165 154.302 162.541C154.642 162.66 155.322 162.899 154.963 163.42C156.302 162.538 157.379 160.976 158.437 159.554C159.495 158.133 160.473 156.771 161.872 156.469L162.073 157.069C162.432 156.548 162.071 155.569 163.091 155.427C163.271 155.667 163.291 156.027 163.531 155.846C163.651 155.506 164.008 153.986 164.768 153.664L164.709 154.584C167.587 152.92 167.062 150.061 168.579 147.918C169.2 148.577 170.06 148.556 170.899 148.175C171.719 147.934 172.518 147.332 172.997 146.972L173.178 147.211C175.894 144.667 176.269 141.506 177.904 138.524C179.284 138.362 180.542 137.04 181.9 135.518C183.177 134.056 184.355 132.294 185.793 131.212C185.193 131.413 184.772 130.353 184.931 129.733C185.71 129.272 185.147 127.193 186.428 128.231L186.249 128.491C187.909 128.868 188.487 127.308 189.205 126.266L187.543 124.889C189.762 124.346 190.619 122.324 191.456 120.443C192.213 118.622 192.751 116.841 194.41 116.718C194.329 115.778 194.888 114.858 194.806 113.918L195.787 114.556C197.044 112.734 197.823 111.773 198.759 109.192L199.28 110.051C200.038 108.73 197.235 106.834 197.773 105.553L199.514 105.87C200.112 104.669 200.99 103.508 201.728 102.327C202.466 101.146 203.004 99.8649 202.862 98.3452C203.062 98.4448 203.523 98.7241 203.383 99.2043C203.902 98.0635 206.337 94.9797 204.036 94.5833C204.717 94.8223 205.016 94.2218 205.154 93.2416C205.213 92.3215 205.091 91.1617 205.069 90.3017L206.05 90.9402C205.148 89.2416 204.808 89.1221 204.985 87.3618C205.244 87.0414 205.925 87.2804 205.505 87.721C206.444 86.6396 204.843 86.3421 205.961 85.0003L206.422 85.7796C206.96 84.4988 206.54 84.4394 205.959 83.5003C205.817 82.4805 207.015 81.0787 208.075 81.157C207.555 80.7978 206.973 79.8587 207.432 79.138C207.792 79.1175 207.953 79.4972 208.073 79.657C209.43 77.6349 207.807 75.9774 209.265 74.7552C209.685 74.8145 209.845 74.6943 209.985 74.7141C209.508 76.5748 209.03 77.9356 208.99 77.7156C209.95 77.9941 210.568 76.6532 211.571 78.1516C211.189 76.8122 210.045 74.294 210.863 73.0527C210.943 72.9926 211.083 73.0124 211.303 72.972L211.423 73.1318C211.602 72.8716 211.582 72.5116 211.481 72.2117C211.761 71.7513 211.94 71.491 212.06 71.1508C212.92 71.1295 212.857 69.5496 213.096 68.8692C211.976 68.711 212.395 67.7703 211.296 68.472C211.376 68.4119 211.416 68.6318 211.337 69.192C211.317 69.332 211.297 69.472 211.357 69.5519L211.297 69.472C211.158 69.9522 211.139 70.5923 210.96 71.3525C210.559 70.6532 210.158 69.9538 211.037 69.2924C210.396 68.7734 209.835 68.1943 209.455 67.8549C211.194 67.1722 212.511 65.4301 213.451 65.3487C213.287 62.9689 214.002 59.9278 212.18 58.1706C212.059 57.5108 212.839 57.5496 213.298 57.3289C213.459 57.7087 213.32 58.1889 213.64 58.4484C213.258 57.109 213.974 54.5678 212.613 54.09C213.471 52.5686 213.815 55.1881 213.851 52.908L214.232 53.2474C215.669 51.1652 214.946 49.2063 214.203 47.3875C213.48 45.4286 212.897 43.4895 214.513 41.147C214.254 41.4674 214.234 41.6074 213.934 41.7079C214.75 38.9666 214.585 36.0869 214.281 33.1873C214.116 30.3076 213.792 27.5481 214.768 24.6866C215.065 23.0861 214.145 23.0275 213.344 22.1288L214.543 21.7269L213.041 20.2293C211.857 17.9911 215.574 15.9453 213.31 13.2688L212.531 13.73C212.609 12.6699 211.626 10.5314 212.546 10.59C212.346 10.4903 211.645 10.3914 212.005 9.87085L212.664 9.74982C212.203 8.97053 211.742 8.19125 211.141 7.39218C211.218 5.33206 213.661 7.24826 213.216 4.32895C212.794 3.2696 210.812 1.63269 210.453 2.15326C210.533 2.59313 210.294 3.2735 209.695 3.47443L209.173 2.61524C207.294 2.77816 205.333 2.5012 204.477 5.02253L205.919 6.44029L205.18 7.12144L204.938 5.80182C204.24 6.70291 205.12 7.04153 205.701 7.48063C205.241 7.70135 204.982 8.02175 204.862 8.36193C205.523 8.74091 206.244 9.1998 206.824 9.6389C206.145 9.89995 205.323 9.14122 205.085 10.3216C206.006 10.8802 206.584 9.31926 207.346 10.4981C206.647 11.3992 205.947 11.3003 206.768 12.059C206.308 12.2797 205.968 12.1602 205.668 11.7607C206.349 12.4996 206.231 13.8398 207.331 14.1381C206.413 15.0795 207.875 16.8573 206.156 16.8999C206.556 17.0993 207.697 18.1175 207.799 18.9174C206.658 18.3992 206.719 18.9791 206.74 19.839C206.761 20.699 206.703 21.6191 205.643 21.5407C207.524 22.3778 206.788 25.059 207.891 26.8573C207.691 26.7576 207.431 26.578 207.53 26.3778C207.392 27.358 206.852 27.6389 206.533 28.3794C208.093 28.457 208.516 30.0163 209.537 30.8747C207.999 32.1571 207.716 30.1175 206.217 30.6199C207.517 30.5178 207.48 32.7979 208.619 32.3161C207.701 33.2576 208.141 33.1769 206.861 33.6389C208.842 33.7758 207.163 34.5384 208.404 35.3565C207.426 36.718 206.645 35.6792 207.147 37.1784C205.928 37.7203 205.266 36.3413 205.266 36.3413ZM203.801 71.9837C203.841 71.7036 203.88 71.4235 203.9 71.2835C203.88 71.4235 203.841 71.7036 203.801 71.9837ZM203.026 74.9449C203.145 74.6047 203.284 74.1245 203.424 73.6443C203.784 73.6237 204.184 73.8231 204.064 74.1633C203.884 73.9235 203.505 74.5841 203.026 74.9449ZM212.219 70.5306C212.22 71.0306 212.06 71.1508 211.84 71.1912C211.879 70.9111 211.919 70.6311 211.898 70.2711L211.838 70.1912C211.898 70.2711 212.099 70.3708 212.219 70.5306Z" fill="#71BA44"/>
<path d="M210.957 69.3525C210.897 69.2726 210.897 69.2726 210.917 69.1326C210.837 69.1927 210.677 69.3129 210.597 69.373C210.657 69.453 210.857 69.5526 210.917 69.6325C210.937 69.4925 210.957 69.3525 210.957 69.3525Z" fill="#71BA44"/>
<path d="M123.302 188.869L123.162 188.849C123.223 188.929 123.223 188.929 123.302 188.869Z" fill="#71BA44"/>
<path d="M185.244 112.352L185.504 112.532L185.343 112.152L185.244 112.352Z" fill="#71BA44"/>
<path d="M108.055 197.212C107.995 197.133 107.855 197.113 107.715 197.093C107.775 197.173 107.915 197.193 108.055 197.212Z" fill="#71BA44"/>
<path d="M101.961 200.922L100.861 201.124C101.361 201.123 101.741 200.962 101.961 200.922Z" fill="#71BA44"/>
<path d="M96.8646 203.13C96.9049 203.35 96.9651 203.43 97.0054 203.65L96.8646 203.13Z" fill="#71BA44"/>
<path d="M117.806 139.817L117.666 139.797C117.166 139.798 117.446 139.838 117.806 139.817Z" fill="#71BA44"/>
<path d="M131.734 157.996C131.554 157.756 131.234 157.496 131.133 157.197C131.054 157.757 131.094 157.977 131.734 157.996Z" fill="#71BA44"/>
<path d="M130.932 156.097C130.792 156.577 130.893 156.877 131.053 157.257C131.113 156.836 131.172 156.416 130.932 156.097Z" fill="#71BA44"/>
<path d="M74.6571 211.204L74.4371 211.245C74.4973 211.324 74.4174 211.385 74.4775 211.464L74.6571 211.204Z" fill="#71BA44"/>
<path d="M74.4775 211.465L74.2377 211.645C74.3176 211.585 74.4577 211.605 74.4775 211.465Z" fill="#71BA44"/>
<path d="M73.6784 212.066L74.2378 211.645C74.0178 211.685 73.7979 211.726 73.6784 212.066Z" fill="#71BA44"/>
<path d="M81.7948 209.713L81.7141 209.273C81.7742 209.353 81.7544 209.493 81.7948 209.713Z" fill="#71BA44"/>
<path d="M83.8533 208.79C83.3335 208.931 82.3328 208.432 81.6935 208.913L81.7141 209.273C81.8929 208.513 83.5946 209.61 83.8533 208.79Z" fill="#71BA44"/>
<path d="M94.415 209.854L92.5558 210.377C93.0163 210.656 93.6768 211.035 92.9775 211.436C95.7377 211.612 92.0764 210.737 94.415 209.854Z" fill="#71BA44"/>
<path d="M100.072 207.725C99.1927 208.386 100.353 208.264 100.453 208.564C100.912 207.843 100.932 207.703 100.072 207.725Z" fill="#71BA44"/>
<path d="M131.826 178.075L132.747 178.634C132.945 177.734 132.346 178.435 131.826 178.075Z" fill="#71BA44"/>
<path d="M129.811 168.579C129.571 168.759 129.332 168.939 129.032 169.04L129.813 169.579C129.772 169.359 129.832 168.939 129.811 168.579Z" fill="#71BA44"/>
<path d="M137.805 165.066L137.886 165.506C137.885 165.006 137.745 164.486 137.744 163.986C137.764 164.346 137.785 164.706 137.805 165.066Z" fill="#71BA44"/>
<path d="M88.0014 149.604L89.1003 148.902C88.7396 148.422 87.2799 148.645 88.0014 149.604Z" fill="#71BA44"/>
<path d="M112.476 171.985C112.517 172.705 113.339 173.464 114.038 173.063C113.437 172.764 112.976 171.985 112.476 171.985Z" fill="#71BA44"/>
<path d="M189.583 124.606L189.684 125.406L190.002 124.165L189.583 124.606Z" fill="#71BA44"/>
<path d="M72.9399 225.887C73.0594 225.547 73.2983 224.866 73.2184 224.926L72.7603 226.147L72.9399 225.887Z" fill="#71BA44"/>
<path d="M73.2959 223.366C72.9969 223.967 72.5586 225.047 72.2603 226.148C72.7184 224.927 72.6392 225.487 73.197 224.066C73.3568 223.946 73.1377 224.487 72.9984 224.967C73.1179 224.627 73.019 225.327 73.2777 224.506C73.4961 223.466 73.436 223.386 73.0372 224.187C73.0768 223.907 73.1963 223.566 73.2959 223.366Z" fill="#71BA44"/>
<path d="M68.5698 219.414L68.5501 219.554C68.5698 219.414 68.5698 219.414 68.5698 219.414Z" fill="#71BA44"/>
<path d="M66.8674 217.816C66.9473 217.756 67.0873 217.776 67.2471 217.656C67.1672 217.716 67.0873 217.776 66.8674 217.816Z" fill="#71BA44"/>
<path d="M68.4259 216.894L68.346 216.954C68.5659 216.914 68.6459 216.853 68.4259 216.894Z" fill="#71BA44"/>
<path d="M68.5698 219.414L68.7692 219.013C68.5097 219.334 68.5896 219.274 68.5698 219.414Z" fill="#71BA44"/>
<path d="M71.3402 226.089C71.4201 226.029 71.4399 225.889 71.5198 225.829C71.4399 225.889 71.4399 225.889 71.4399 225.889C71.4201 226.029 71.4201 226.029 71.3402 226.089Z" fill="#71BA44"/>
<path d="M70.2091 218.931C70.2288 218.791 70.3887 218.671 70.4883 218.471L70.2091 218.931Z" fill="#71BA44"/>
<path d="M71.3294 219.089C71.2692 219.009 70.9108 220.03 70.6916 220.57C70.891 220.17 70.9907 219.97 71.0105 219.83C71.1703 219.71 71.2099 219.429 71.3294 219.089Z" fill="#71BA44"/>
<path d="M72.5935 221.767L72.6133 221.627C72.6133 221.627 72.6133 221.627 72.5935 221.767Z" fill="#71BA44"/>
<path d="M69.8483 218.452C69.948 218.252 70.0279 218.191 70.1078 218.131C69.948 218.252 69.9282 218.392 69.8483 218.452Z" fill="#71BA44"/>
<path d="M75.6074 204.983C75.7878 205.222 75.988 205.322 76.1082 205.482L75.6074 204.983Z" fill="#71BA44"/>
<path d="M70.1846 216.071C70.4046 216.031 70.3247 216.091 70.1846 216.071V216.071Z" fill="#71BA44"/>
<path d="M67.4632 215.115C65.0225 214.699 64.8026 214.739 61.8619 214.324C62.9221 214.402 65.4426 214.758 67.4632 215.115Z" fill="#71BA44"/>
<path d="M61.8817 214.184L61.6016 214.145C61.7417 214.164 61.8018 214.244 61.8817 214.184Z" fill="#71BA44"/>
<path d="M68.5446 216.054C68.1846 216.074 67.8848 216.175 67.6047 216.135C67.8247 216.095 68.1047 216.134 68.5446 216.054Z" fill="#71BA44"/>
<path d="M66.5058 216.837L66.7257 216.797C66.5058 216.837 66.5058 216.837 66.5058 216.837Z" fill="#71BA44"/>
<path d="M65.0446 216.059C65.1846 216.079 65.5446 216.058 65.1846 216.079C65.1245 215.999 65.0446 216.059 65.0446 216.059C65.2646 216.019 65.4046 216.039 65.0446 216.059Z" fill="#71BA44"/>
<path d="M64.5842 215.78C64.4441 215.76 64.2242 215.8 64.0842 215.781L64.2242 215.8L64.5842 215.78Z" fill="#71BA44"/>
<path d="M68.8464 204.313C69.0267 204.553 69.2672 204.873 69.4476 205.112C68.9666 204.473 68.9461 204.113 68.8464 204.313Z" fill="#71BA44"/>
<path d="M71.5594 225.549C71.5198 225.829 71.36 225.949 71.36 225.949C71.36 225.949 71.36 225.949 71.4399 225.889C71.4597 225.749 71.5594 225.549 71.5594 225.549Z" fill="#71BA44"/>
<path d="M48.9259 216.924L48.9457 216.784C48.8658 216.844 48.7859 216.904 48.9259 216.924Z" fill="#71BA44"/>
<path d="M57.7529 208.53L57.6928 208.451C57.6327 208.371 57.5528 208.431 57.7529 208.53Z" fill="#71BA44"/>
<path d="M47.9449 216.286C48.6649 216.245 48.9647 216.144 49.1847 216.104C49.0249 216.224 48.8848 216.204 48.6048 216.165L47.9449 216.286Z" fill="#71BA44"/>
<path d="M68.6233 202.354C68.5434 202.414 69.4651 203.472 70.0062 204.191C70.0869 204.631 69.2649 203.373 68.7641 202.873C68.9247 203.253 69.6264 204.352 69.5465 204.412C69.4263 204.252 69.3662 204.172 69.1858 203.933C69.8274 204.952 69.0062 204.193 69.6881 205.432C69.628 205.352 69.5077 205.192 69.4476 205.112C69.8685 205.672 70.3495 206.311 70.6501 206.71C70.5702 206.77 71.0314 207.55 70.4903 206.831C70.4903 206.831 70.3297 206.451 70.1493 206.211L70.3099 206.591C69.4682 205.472 70.0892 206.131 69.488 205.332C69.6485 205.712 70.1303 206.851 69.8099 206.592C68.9682 205.473 69.8091 206.092 68.9476 205.113L69.3281 205.452C67.9856 203.834 69.5283 205.552 68.0655 203.774C67.6652 203.575 68.3266 204.454 67.9263 204.255C68.3274 204.954 68.5877 205.134 68.9887 205.833C69.4507 207.112 66.9445 203.116 67.7071 204.795C68.1683 205.574 69.0306 207.053 68.4096 206.394L67.6676 205.075C67.3875 205.035 68.7506 207.013 68.0093 206.194C67.7285 205.655 67.8685 205.675 67.7482 205.515C67.0268 204.556 68.1295 206.354 67.9895 206.334L67.2277 205.156C67.1881 205.436 67.4096 206.395 67.3503 206.815C67.1897 206.436 67.0291 206.056 66.7886 205.736C66.8091 206.096 66.7292 206.156 66.3891 206.037C66.1889 205.937 65.5686 205.778 65.1082 205.499L65.5299 206.558C65.5299 206.558 65.0892 206.139 65.0489 205.919C64.5884 205.64 65.3898 206.539 65.6105 206.998C65.5908 207.138 65.1098 206.499 64.9492 206.119C65.0908 207.139 65.3526 208.319 64.0512 207.421L63.8708 207.181C63.1905 206.942 65.294 209.239 64.1928 208.44L64.0725 208.281C63.5124 208.201 63.2727 208.382 62.9728 208.482C62.673 208.583 62.173 208.584 60.9119 207.905C61.7529 208.524 61.3328 208.465 61.0528 208.425C60.7727 208.386 60.5528 208.426 61.8542 209.324C60.1129 208.507 59.7925 208.247 58.0718 207.79C57.6517 207.731 59.6334 208.867 59.7339 209.167L58.0725 208.29C58.533 208.569 58.9736 208.988 59.4942 209.348L57.3526 208.331L57.533 208.571C57.7331 208.67 58.5535 208.929 59.014 209.208C59.5147 209.708 56.9333 208.772 55.9325 208.273C56.173 208.593 56.3534 208.833 56.5939 209.152C55.7933 208.753 55.7331 208.674 55.2727 208.394C56.7742 209.392 53.1113 207.518 54.4926 208.355C55.033 208.575 55.6334 208.874 56.0338 209.073C54.6129 208.515 53.9531 208.636 54.1936 208.956L52.9523 208.138C51.7521 208.04 52.0931 208.659 51.2933 208.76C52.3937 209.059 55.2552 210.034 55.3755 210.194L52.5741 209.298C54.135 209.876 53.8146 209.617 55.5756 210.294C55.0155 210.215 52.294 209.259 51.5535 208.94L52.154 209.239C51.3336 208.98 50.9333 208.781 49.9729 208.502C50.7134 208.821 49.893 208.563 49.1928 208.464C48.4325 208.285 47.8724 208.206 49.2933 208.764L48.4729 208.505C47.533 208.586 48.1936 208.965 47.6738 209.106C50.3549 209.842 49.5148 209.723 51.6358 210.38C50.3755 210.202 47.5947 209.666 47.2149 209.827C48.3755 210.205 49.6959 210.463 51.2766 210.9C48.5155 210.225 48.2758 210.405 46.495 209.868C46.2553 210.048 46.1753 210.108 47.8763 210.706C49.1967 210.964 49.7568 211.043 50.7971 211.261C51.1373 211.381 49.2568 211.044 47.7964 210.766L47.5163 210.726C49.4372 211.283 46.7165 210.828 44.116 210.532C41.5353 210.096 38.995 209.88 42.116 210.535L41.8359 210.495L42.4562 210.654L45.5772 211.309C45.0772 211.31 43.0764 210.813 41.0361 210.596C43.957 211.152 43.737 211.192 43.4372 211.293C43.0772 211.313 42.5772 211.314 44.3177 211.631C39.9768 211.018 40.3771 211.217 41.0574 211.456C41.7378 211.695 42.6381 211.894 40.3177 211.637L42.1381 211.895C43.9585 212.152 41.1579 211.756 40.7979 211.777C42.1982 211.975 42.3383 211.994 43.3984 212.073C44.6389 212.391 44.059 212.452 43.199 212.473C42.699 212.474 42.3992 212.574 42.0993 212.675C41.8596 212.855 41.6397 212.895 41.54 213.096C41.5803 213.316 49.3612 213.843 46.2211 213.828L43.4007 213.573C45.4213 213.93 45.6816 214.109 45.9221 214.429C46.1823 214.608 46.3627 214.848 47.9632 215.146C47.483 215.006 46.7029 214.968 46.6428 214.888C44.9228 214.93 47.0233 215.227 48.5233 215.225C48.4434 215.285 47.2432 215.187 46.5233 215.228C45.5834 215.309 49.1238 215.524 47.4837 215.506C47.2037 215.467 46.8437 215.487 46.7037 215.468C47.6238 215.526 46.9442 215.787 48.884 215.704C48.1443 215.885 50.2044 215.962 49.2448 216.184C51.5248 216.22 48.6253 216.525 51.6451 216.38C48.4853 216.505 49.5256 216.723 51.1657 216.741C50.1657 216.742 50.3658 216.842 49.0058 216.864C49.206 216.964 49.9061 217.063 51.4259 216.92C49.7463 217.183 50.6664 217.241 51.3864 217.2C52.1664 217.239 52.6664 217.238 50.547 217.582C52.6672 217.738 54.0675 217.936 55.1878 218.094C52.4085 218.559 54.4473 217.776 51.5279 218.22C53.1482 218.378 55.6878 218.094 55.4884 218.494C55.1885 218.594 54.2487 218.676 53.7487 218.677C55.3088 218.754 54.3096 219.256 56.1094 219.153C55.8895 219.193 55.5295 219.214 55.3096 219.254C55.4496 219.274 55.0698 219.435 56.2494 219.173L55.8895 219.193C57.4488 218.771 59.6284 218.507 60.5082 218.346C57.1893 219.091 60.0287 218.707 55.7502 219.674C55.9702 219.633 56.63 219.512 57.3697 219.331C57.2099 219.451 56.8301 219.612 55.8902 219.693C56.7106 219.952 57.77 219.53 58.0303 219.71C57.5105 219.851 57.2905 219.891 56.5508 220.072C57.7304 219.81 58.8301 219.609 58.5904 219.789C58.2905 219.89 57.9108 220.05 57.8507 219.97C58.391 220.189 61.0698 219.425 60.4306 219.906C58.2518 220.67 59.8111 220.247 58.0722 220.93L58.872 220.829L59.7114 220.447C59.9116 220.547 61.3309 220.105 60.8514 220.466L60.0318 220.707L60.6719 220.726L61.1513 220.365C62.1909 220.084 63.2898 219.382 63.0303 219.702C62.8103 219.743 63.0904 219.782 62.2312 220.303C62.8309 220.103 63.5105 219.841 63.1909 220.082C62.6513 220.363 61.3522 220.965 61.0326 221.205C62.4116 220.543 61.8127 221.244 63.2715 220.522C62.8918 220.682 62.1125 221.144 61.9527 221.264L63.0318 220.702C62.7921 220.883 62.6323 221.003 61.9329 221.404C61.9732 221.624 63.8111 220.241 63.232 220.802C63.1521 220.862 62.9923 220.982 62.7723 221.023C62.5729 221.423 63.9321 220.901 63.7327 221.301C62.3743 222.323 63.213 221.442 62.0943 222.284C62.7944 222.383 64.493 221.48 64.5737 221.92L64.5935 221.78C66.3712 220.317 63.9748 222.621 64.9938 221.979C64.834 222.099 64.0151 222.841 64.2549 222.66C64.2754 223.02 65.2746 222.519 66.0341 222.198L65.6148 222.638C65.4756 223.118 65.8355 223.098 65.8759 223.318C66.2952 222.877 66.2754 223.017 66.7343 222.296C66.0365 223.698 66.576 223.417 67.1156 223.136C67.6552 222.855 68.0745 222.414 67.6765 223.715L67.3371 224.096C67.557 224.055 67.7968 223.875 68.0167 223.834C68.3553 222.954 68.2359 223.294 68.4748 222.614C68.7541 222.153 69.0136 221.833 69.0935 221.773C68.7343 222.293 68.4756 223.114 68.3363 223.594C68.3759 223.314 68.5555 223.054 68.7351 222.793C68.2975 224.374 69.4725 221.112 69.3142 222.232L69.1148 222.633C69.2944 222.372 69.5737 221.912 69.6338 221.992C69.2754 223.013 69.3545 222.452 69.0357 223.193C69.1757 223.213 70.0729 221.411 69.7145 222.432C69.5349 222.692 69.4748 222.612 69.3553 222.952C69.0372 224.193 69.1567 223.853 69.1971 224.073L69.0182 224.833L69.1377 224.493C70.3538 221.951 69.6172 224.132 70.4946 222.471C69.6369 223.992 70.076 223.411 69.6377 224.492C69.5182 224.832 69.5388 225.192 69.4193 225.532C69.898 224.672 69.3006 226.372 69.9185 225.032C69.7991 225.372 69.9787 225.111 69.64 225.992C69.8798 225.812 69.879 225.312 70.0784 224.911C70.7366 223.79 69.981 226.611 70.9186 225.03C71.4376 224.389 71.8957 223.168 72.3949 222.668C72.2358 223.288 71.8569 223.949 71.8569 223.949C71.7777 224.509 71.8576 224.449 72.1971 224.068C72.0776 224.408 72.038 224.688 71.8386 225.089C71.9185 225.028 72.3767 223.808 72.2975 224.368C72.0981 224.768 71.8592 225.449 71.6598 225.849C71.9193 225.528 72.2184 224.928 72.4779 224.608C72.3189 225.228 72.0594 225.548 71.86 225.949C72.0396 225.688 72.3592 225.448 72.7777 224.507L72.8371 224.087C72.917 224.027 72.5784 224.907 72.4787 225.108C72.0799 225.908 72.4581 224.748 72.5175 224.327L72.6971 224.067C73.2936 221.866 72.2374 224.288 72.1172 224.128L72.6947 222.567L72.0167 223.828C72.076 223.408 72.4147 222.528 72.5943 222.267C72.713 221.427 72.2351 222.788 72.5136 221.827C72.5334 221.687 72.6133 221.627 72.5531 221.547L72.2739 222.008C72.3933 221.668 72.6521 220.847 72.6125 221.127C72.751 220.147 71.8941 222.168 72.2122 220.928L72.2921 220.868C71.8728 221.308 71.8538 221.949 71.0958 223.27L71.9313 220.388L71.493 221.469C71.493 221.469 71.5128 221.329 71.6521 220.849C71.2533 221.649 71.5128 221.329 71.194 222.07C71.4922 220.969 70.5745 222.411 71.3317 220.589C70.993 221.47 71.2327 221.289 70.7936 221.87C71.4306 219.889 70.474 222.111 70.6726 221.21C71.0912 220.27 71.012 220.83 71.2304 219.789C70.493 221.471 71.1497 219.35 70.8902 219.67C70.4123 221.031 70.4709 220.111 70.1315 220.491C70.3309 220.091 70.1102 219.631 70.1893 219.071L70.289 218.871C69.6711 220.212 69.7106 219.932 69.4709 220.112C69.8697 219.312 69.9891 218.971 70.2486 218.651L70.1885 218.571C69.9891 218.971 69.8095 219.232 69.7296 219.292L70.2281 218.291C70.1482 218.351 69.4298 219.392 69.6687 218.712C69.1102 219.633 68.3728 221.314 67.8134 221.735C68.0927 221.274 68.5714 220.414 68.7312 220.293C68.6513 220.353 68.3918 220.674 68.4915 220.474L69.0303 219.693C69.1497 219.353 68.5714 220.414 68.5912 220.274C68.9701 219.613 68.8704 219.813 69.1695 219.213C69.2494 219.153 69.05 219.553 69.2296 219.293C69.2494 219.153 69.4488 218.752 69.7479 218.152C69.5485 218.552 69.1893 219.073 69.1094 219.133C68.9694 219.113 69.6482 218.352 69.8476 217.952C69.5683 218.412 69.7874 217.872 69.069 218.913C69.069 218.913 69.3483 218.452 69.5279 218.192C69.1885 218.573 69.168 218.213 68.4496 219.254L68.3697 219.314C68.3697 219.314 68.3697 219.314 68.2898 219.374C67.7304 219.795 67.8301 219.595 67.8697 219.315C67.9694 219.115 68.0888 218.774 67.8491 218.955L68.1086 218.634C67.7091 218.935 67.6687 218.715 66.8697 219.316C66.8697 219.316 67.4488 218.755 67.8483 218.455C67.4686 218.615 67.069 218.916 67.5683 218.415C68.2677 218.014 68.1276 217.994 68.1078 218.134C68.2874 217.874 68.9267 217.393 67.8278 218.095C68.7867 217.373 69.0264 217.193 68.6466 217.353L68.0074 217.834C67.7874 217.875 67.8673 217.815 67.9472 217.755L69.2859 216.872C70.005 216.331 69.3057 216.732 68.6862 217.073C68.0667 217.414 67.467 217.615 68.9457 216.753C67.8666 217.315 68.3064 217.234 67.0873 217.776C67.187 217.576 69.2052 216.433 69.2052 216.433C69.9845 215.971 66.9069 217.536 67.3863 217.175C66.8468 217.456 65.3879 218.179 64.6482 218.36C64.7479 218.16 67.0264 217.196 67.486 216.975C67.5659 216.915 67.4061 217.035 67.1862 217.076C67.4061 217.035 67.706 216.935 68.3254 216.594L67.7859 216.875C68.3254 216.594 68.1854 216.574 69.2448 216.153C68.6451 216.353 68.2653 216.514 68.0256 216.694C68.865 216.313 67.9655 216.615 68.4251 216.394C68.2653 216.514 67.9655 216.615 67.7455 216.655C67.5066 217.335 67.2867 217.376 67.2867 217.376C67.9061 217.035 66.0074 217.838 65.6474 217.858C66.5667 217.417 68.0462 217.054 67.0865 217.276C67.7661 217.015 68.8057 216.733 69.4054 216.532C68.0659 216.914 70.1649 216.211 70.3848 216.171L70.9046 216.03C70.6047 216.13 70.6047 216.13 70.6047 216.13L69.2653 216.513C69.4853 216.472 69.4853 216.472 70.0849 216.271C69.1854 216.573 67.846 216.955 66.5066 217.337C67.1862 217.076 65.6268 217.498 67.486 216.975C66.8863 217.176 69.3452 216.452 69.7052 216.432C69.4853 216.472 69.4853 216.472 69.7052 216.432C69.9251 216.391 70.0849 216.271 70.225 216.291C71.8642 215.808 68.0659 216.914 68.0058 216.834C69.0454 216.553 70.0849 216.271 69.7851 216.372C69.7851 216.372 69.3452 216.452 68.7455 216.653C68.2258 216.794 67.5659 216.915 67.0462 217.056C67.8658 216.815 66.3864 217.177 66.3864 217.177L66.1261 216.997C64.9465 217.259 65.1063 217.139 64.6664 217.22C65.5462 217.058 65.3262 217.099 65.7661 217.018C63.7068 217.441 67.7653 216.515 66.3057 216.737C67.1854 216.576 68.365 216.314 69.0248 216.193C67.4251 216.395 70.6443 215.85 69.3247 216.092C67.6451 216.355 68.1451 216.354 66.4054 216.537L67.7052 216.435L65.2258 216.799C65.2258 216.799 66.3856 216.677 66.0857 216.777C64.7661 217.02 65.0659 216.919 63.8064 217.241C66.1656 216.717 62.2068 217.443 63.7661 217.021L67.9251 216.395C69.6846 216.072 65.6055 216.638 66.5652 216.417L65.9054 216.538C64.1656 216.72 65.6253 216.498 64.8255 216.599C66.2052 216.437 66.7851 216.376 67.725 216.295C66.5652 216.417 67.8049 216.235 64.7653 216.52L66.725 216.296C67.5248 216.195 62.1854 216.584 62.5652 216.423C64.365 216.32 65.3848 216.179 66.6649 216.217C66.6649 216.217 66.8848 216.176 65.8049 216.238C66.7448 216.156 63.585 216.281 65.0248 216.199C64.3049 216.24 62.585 216.283 62.725 216.303C63.085 216.282 63.585 216.281 63.585 216.281C62.6047 216.143 62.2448 216.163 60.5248 216.206C62.9845 215.982 62.8445 215.962 62.5644 215.923C62.2843 215.883 61.8642 215.824 64.1641 215.72C63.5241 215.701 62.8239 215.603 62.6237 215.503C63.1237 215.502 63.4837 215.482 63.3437 215.462C64.9236 215.399 58.1435 215.37 59.8635 215.327C62.7234 215.303 61.5636 215.424 62.5636 215.423C65.4837 215.478 65.3437 215.459 64.7836 215.379C64.2234 215.3 63.3635 215.322 65.0834 215.279L65.4434 215.258C67.5035 215.335 62.9632 215.122 63.3231 215.102C63.3231 215.102 63.8231 215.101 64.2432 215.16C60.9829 214.985 59.7227 214.807 58.7424 214.669C61.2828 214.885 60.0826 214.787 62.7029 214.943C62.2828 214.883 58.6024 214.649 57.7622 214.53C59.1024 214.648 60.2424 214.667 63.0027 214.842L63.2029 214.942C66.7432 215.156 63.0027 214.842 63.5628 214.921L65.1831 215.079C64.623 215 60.6024 214.646 60.6823 214.586L59.4023 214.548C55.1815 214.094 61.6625 214.724 58.502 214.349L62.6625 214.723C62.1024 214.644 61.1222 214.505 60.0621 214.427C59.2219 214.308 58.3817 214.189 57.8216 214.11C60.4822 214.486 62.5225 214.703 64.4228 214.9C64.4228 214.9 64.2828 214.88 63.9426 214.761C63.5225 214.701 63.0225 214.702 61.9822 214.484C62.4023 214.543 63.3825 214.682 62.6823 214.583C59.3817 214.188 57.9015 214.05 58.1214 214.01C62.1222 214.504 62.6823 214.583 63.0423 214.562C63.4022 214.542 63.5423 214.561 66.5628 214.917C65.1625 214.719 65.5826 214.778 66.2227 214.797C66.8627 214.816 67.763 215.015 67.623 214.995C62.0217 214.204 67.4829 214.975 61.7417 214.164C61.4616 214.125 61.5415 214.065 61.8817 214.184L65.3825 214.679C66.9228 214.896 66.7029 214.937 67.8231 215.095C69.4236 215.392 70.0636 215.411 71.6641 215.709C69.7036 215.432 68.8635 215.313 69.6435 215.352L67.0628 214.916C64.282 214.38 71.6641 215.709 68.8832 215.173L70.5636 215.411C70.4236 215.391 70.1435 215.351 69.8635 215.312C68.9631 215.113 68.123 214.994 66.5225 214.697C67.0826 214.776 68.263 215.014 68.8832 215.173C69.1633 215.213 68.1831 215.074 67.4228 214.895C66.6625 214.717 66.1823 214.577 67.3627 214.815L68.5431 215.054C68.2029 214.934 66.4624 214.617 67.6427 214.855C68.123 214.994 68.5431 215.054 68.8231 215.093C68.403 215.034 66.8825 214.676 67.5826 214.775L68.8231 215.093C70.3437 215.451 65.922 214.398 65.4616 214.118C67.9426 214.755 69.1831 215.073 70.0834 215.271L70.5035 215.331C70.8437 215.45 68.2424 214.654 67.3018 214.236C68.8026 214.733 69.0826 214.773 69.3627 214.812C69.5027 214.832 69.6427 214.852 70.3231 215.091C69.8429 214.952 68.5019 214.334 68.2219 214.294C68.7021 214.433 66.6808 213.577 68.8421 214.453C70.9434 215.25 70.403 215.031 70.4631 215.111L67.8413 213.955C69.8627 214.812 69.4624 214.612 69.2021 214.433C68.8817 214.173 68.6214 213.994 70.0826 214.771C69.5621 214.412 69.5621 214.412 69.0415 214.053L70.2226 214.791C70.5628 214.911 70.6831 215.07 70.5027 214.831L71.2835 215.369C71.3437 215.449 68.2401 213.154 68.32 213.094L69.8018 214.232C69.8817 214.172 71.1633 215.21 70.0415 214.051C70.1617 214.211 70.4822 214.471 70.6024 214.63C70.7424 214.65 71.4837 215.469 69.8809 213.672C71.0027 214.83 70.0811 213.771 69.7401 213.152L70.4015 214.031C69.5597 212.912 69.3192 212.592 69.1586 212.213C69.2789 212.372 69.6998 212.932 69.5194 212.692C69.96 213.111 68.9379 211.753 69.4387 212.252L69.8398 212.952C69.9798 212.971 69.7393 212.652 69.3382 211.952C69.1777 211.573 69.6784 212.072 70.1998 212.931C69.9189 212.392 69.5178 211.692 69.7781 211.872C70.0186 212.191 70.059 212.411 70.1191 212.491C70.68 213.07 69.877 211.172 70.5384 212.051C70.7789 212.37 70.8192 212.59 70.8794 212.67C70.6594 212.71 70.4996 212.831 70.4395 212.751C70.8809 213.67 71.161 213.71 71.763 215.009C71.5818 214.269 70.9593 212.61 71.3398 212.949C71.3999 213.029 71.46 213.109 71.5803 213.269L71.6404 213.349C71.7005 213.429 71.7203 213.289 71.6001 213.129C71.7203 213.289 71.8603 213.308 71.8603 213.308C72.2614 214.008 72.3208 213.588 72.4007 213.528C71.8192 212.589 72.0194 212.688 71.4181 211.889C71.4783 211.969 71.4783 211.969 71.4585 212.109C71.4585 212.109 71.4585 212.109 71.4387 212.249L71.3786 212.169C71.2987 212.229 71.2987 212.229 71.2188 212.289C70.9379 211.75 70.8572 211.31 71.218 211.789C70.877 211.17 70.616 210.49 70.3755 210.171C71.2576 211.509 71.8984 212.028 72.4996 212.827C72.3786 212.168 72.8185 212.087 71.7956 210.229C71.6951 209.929 72.1563 210.708 72.4166 210.888C72.4569 211.108 72.4569 211.108 72.5574 211.407C72.4166 210.888 72.8367 210.947 72.0147 209.688C72.5954 210.127 72.6967 210.927 72.756 210.507L72.9166 210.887C73.7979 211.725 73.4965 210.826 73.1152 209.987C72.7339 209.147 72.5527 208.407 73.6144 209.486C73.4942 209.326 73.3541 209.306 73.2339 209.146C74.5748 209.764 73.4911 207.326 75.3929 208.523C75.7932 208.722 75.2521 208.003 74.7711 207.364L75.5725 208.263L74.8107 207.084C74.3693 206.165 77.1935 208.92 76.071 207.262L75.5101 206.683C75.6501 206.703 75.4492 206.103 76.0702 206.762C76.0101 206.682 75.5093 206.183 75.8297 206.442L76.2703 206.862L75.6889 205.923C76.1691 206.062 77.4317 207.74 77.8115 207.579C77.711 207.279 76.749 206.001 76.4286 205.741C76.3487 205.802 76.0283 205.542 75.5876 205.123L75.4872 204.823C74.1652 203.565 72.863 202.167 71.6819 201.429L72.3433 202.308L71.6423 201.709L71.6621 201.569C71.0213 201.05 71.5221 201.549 71.8227 201.949C71.4422 201.609 71.1819 201.43 71.0617 201.27L72.2238 202.648C71.723 202.149 71.3022 201.589 70.9018 201.39C71.3828 202.029 72.1035 202.488 72.3844 203.028C71.7436 202.509 71.2428 202.009 71.6637 202.569C71.2831 202.229 71.1028 201.99 70.9825 201.83C71.3433 202.309 71.0031 202.19 71.6842 202.929C70.9232 202.25 71.7048 203.289 70.4627 201.971C70.7032 202.29 71.3045 203.089 71.2847 203.229C69.9422 201.611 70.9848 203.33 69.5221 201.552C70.7444 203.01 69.8235 202.452 70.3448 203.311C70.2246 203.151 70.0442 202.911 70.1043 202.991C69.9042 202.892 69.5236 202.552 69.2831 202.232C70.325 203.451 70.3456 203.811 70.9468 204.61C69.8852 203.532 69.8646 203.172 68.8828 202.033C69.7444 203.012 69.5845 203.132 70.1858 203.931C69.5648 203.272 69.8053 203.592 69.0039 202.693C70.2863 204.231 69.1043 202.993 69.8258 203.952C69.0648 203.273 68.6637 202.573 68.9445 203.113C68.9643 202.973 68.6233 202.354 68.6233 202.354ZM67.5108 207.195L67.6509 207.215C67.8914 207.535 68.052 207.914 68.052 207.914C67.8716 207.675 67.6912 207.435 67.5108 207.195ZM71.9608 213.608C72.0012 213.828 71.8208 213.589 71.7005 213.429C71.7005 213.429 71.7804 213.369 71.7203 213.289L71.6602 213.209C71.8604 213.308 71.9007 213.528 71.9608 213.608Z" fill="#71BA44"/>
<path d="M57.832 207.97L58.2323 208.17L57.9721 207.99L57.832 207.97Z" fill="#71BA44"/>
<path d="M68.2564 223.654C68.2366 223.794 68.1567 223.854 68.2169 223.934C68.1567 223.854 68.2366 223.794 68.2564 223.654Z" fill="#71BA44"/>
<path d="M69.0373 224.193L68.9779 224.613C68.9376 224.393 69.0175 224.333 69.0373 224.193Z" fill="#71BA44"/>
<path d="M69.3584 224.952C69.4581 224.752 69.4779 224.612 69.5578 224.552L69.3584 224.952Z" fill="#71BA44"/>
<path d="M55.3499 219.474C55.2099 219.454 55.2099 219.454 55.3499 219.474C54.8499 219.475 54.99 219.495 55.3499 219.474Z" fill="#71BA44"/>
<path d="M62.1513 220.363C61.8514 220.464 61.6315 220.504 61.4717 220.625C61.4717 220.625 61.4717 220.625 62.1513 220.363Z" fill="#71BA44"/>
<path d="M61.3514 220.465C61.1916 220.585 61.2517 220.665 61.5516 220.564C61.4915 220.485 61.5714 220.424 61.3514 220.465Z" fill="#71BA44"/>
<path d="M72.2199 225.928L72.0403 226.188C72.0403 226.188 72.1005 226.268 72.2199 225.928Z" fill="#71BA44"/>
<path d="M71.2595 225.649L71.14 225.99C71.0799 225.91 71.1598 225.85 71.2595 225.649Z" fill="#71BA44"/>
<path d="M70.9794 225.61C71.0396 225.69 70.8608 226.45 70.9604 226.25L71.0799 225.91C70.841 226.59 71.2785 225.009 70.9794 225.61Z" fill="#71BA44"/>
<path d="M71.6916 220.569L71.7723 221.009C71.8317 220.589 72.0508 220.048 72.1307 219.988C72.3286 218.588 71.872 220.809 71.6916 220.569Z" fill="#71BA44"/>
<path d="M71.3103 219.729C71.4701 219.609 71.5295 219.189 71.5691 218.909C71.4496 219.249 71.3697 219.309 71.3103 219.729Z" fill="#71BA44"/>
<path d="M68.2684 218.514L69.2273 217.793C69.0074 217.833 68.8278 218.093 68.2684 218.514Z" fill="#71BA44"/>
<path d="M62.6133 221.643L62.1141 222.144L63.0532 221.562L62.6133 221.643Z" fill="#71BA44"/>
<path d="M69.6459 216.852L69.8057 216.732L69.346 216.952L69.6459 216.852Z" fill="#71BA44"/>
<path d="M66.8041 215.736L64.0842 215.781C64.6443 215.86 67.5842 215.775 66.8041 215.736Z" fill="#71BA44"/>
<path d="M62.5027 214.843C64.123 215 65.1831 215.079 63.5027 214.841C63.2828 214.882 62.0027 214.844 62.5027 214.843Z" fill="#71BA44"/>
<path d="M69.8627 214.812L70.3231 215.091L69.9228 214.891L69.8627 214.812Z" fill="#71BA44"/>
</svg>
