<svg width="504" height="400" viewBox="0 0 504 400" fill="none" xmlns="http://www.w3.org/2000/svg">
<path opacity="0.1" d="M239.586 33.2035C299.82 50.4388 366.592 13.1948 425.637 33.7979C467.246 48.2596 495.58 90.2581 502.118 134.04C508.855 177.623 496.769 222.395 477.549 262.214C454.367 310.156 419.297 353.937 371.744 377.908C338.06 394.747 299.82 400.889 262.173 399.898C189.655 398.313 117.136 370.38 66.4131 318.476C16.0861 266.573 -10.0682 190.302 3.60336 119.182C9.74563 88.0789 23.4172 57.9668 45.6086 35.3827C67.9982 12.7986 99.304 -1.46503 131.006 0.119822C180.937 2.4971 225.32 42.3164 274.854 36.7695" fill="#71BA44"/>
</svg>
