<svg width="610" height="524" viewBox="0 0 610 524" fill="none" xmlns="http://www.w3.org/2000/svg">
<path opacity="0.05" d="M136.89 464.227C61.242 382.474 25.3829 265.858 42.0844 155.871C48.4703 114.626 62.7157 72.6443 92.9257 43.9201C135.416 3.16598 200.012 -3.95371 258.713 1.69294C293.098 5.13003 329.694 13.4773 353.272 38.7644C377.097 64.2971 383.237 102.596 407.552 128.129C434.815 156.853 478.779 162.254 511.691 184.595C537.971 202.272 556.392 230.505 565.48 260.948C584.883 324.534 564.006 396.958 518.814 445.814C473.621 494.67 407.061 520.694 340.501 523.149C273.94 525.358 192.643 524.376 136.89 464.227Z" fill="#1072BA"/>
<path opacity="0.05" d="M511.445 184.35C490.077 169.865 464.042 162.5 440.955 151.206C444.639 261.193 396.991 321.097 323.554 318.396C246.186 315.696 217.45 245.235 145.732 254.565C98.3291 260.702 76.7154 317.414 67.6278 355.222C84.3293 395.24 107.662 432.311 137.135 464.227C192.889 524.376 274.186 525.358 340.501 522.903C407.061 520.448 473.621 494.425 518.814 445.569C564.006 396.713 584.637 324.289 565.479 260.702C555.901 230.26 537.725 202.026 511.445 184.35Z" fill="#1072BA"/>
<path opacity="0.15" d="M565.234 260.702C564.251 257.511 563.269 254.565 562.041 251.373L495.726 340.492C495.726 340.492 362.114 287.217 362.36 285.99C362.36 284.762 309.063 205.709 309.063 205.709L307.835 187.296C307.835 187.296 339.518 194.17 351.307 162.5C351.307 162.5 390.851 175.757 390.851 132.793L204.433 127.147C204.433 127.147 202.222 147.278 223.836 155.38C223.836 155.38 232.432 204.727 281.554 188.278L278.116 207.919L188.714 294.582L149.416 377.073L75.4874 373.39C84.0837 391.557 94.1537 408.988 105.697 425.437C126.329 436.731 168.328 450.97 214.503 416.845C214.503 416.845 209.099 477.485 200.012 506.7C245.45 524.376 296.045 524.376 340.255 522.903C376.851 521.676 413.201 513.083 446.359 497.616C447.341 475.521 448.078 430.838 442.92 394.012C442.92 394.012 539.445 444.096 572.357 310.786C572.357 293.846 570.146 276.906 565.234 260.702Z" fill="#959497"/>
<path d="M417.622 370.689C429.903 378.054 443.166 383.21 457.166 385.665C482.463 390.084 510.217 383.947 529.375 366.516C540.673 356.204 548.778 342.701 555.164 328.708C569.164 299.001 578.006 266.84 580.707 234.188C587.584 230.505 593.479 227.804 598.637 224.367C600.111 223.385 601.83 221.912 601.584 219.948C601.339 218.966 600.602 217.984 599.619 217.739C598.883 217.493 598.391 217.493 597.654 217.248C600.356 215.775 603.304 214.056 606.005 212.337C607.233 211.355 608.707 210.373 608.953 208.655C608.953 207.182 607.724 205.954 606.496 205.709C605.023 205.218 603.795 205.463 602.321 205.709C598.391 206.445 594.216 207.182 590.286 208.655C593.233 206.445 596.181 204.236 599.128 201.781C600.111 201.044 600.847 200.062 600.847 199.08C600.847 198.098 599.865 197.116 598.883 196.871C597.9 196.38 596.918 196.625 595.69 196.625C588.321 197.362 581.444 200.553 575.058 204.236C577.269 200.062 579.234 195.889 580.462 191.224C580.707 190.242 580.953 189.014 580.953 187.787C580.953 186.559 580.216 185.577 579.234 185.086C578.251 184.595 576.778 184.841 575.795 185.577C574.813 186.314 574.076 187.296 573.339 188.278C569.655 193.433 566.216 198.835 561.795 203.254C557.374 207.673 551.725 211.601 545.585 212.828L534.287 217.493C527.901 243.026 517.094 266.594 503.095 288.199C498.428 295.319 492.288 302.929 483.691 303.666C475.341 304.402 468.709 298.51 464.043 291.145L417.622 370.689Z" fill="#FFE0CA"/>
<path d="M457.166 385.911C443.166 383.456 429.903 378.3 417.622 370.935L427.447 354.24C436.534 362.833 458.148 376.336 494.498 365.534C531.094 354.486 560.076 304.648 573.585 277.397C569.164 295.319 563.023 312.504 555.164 329.199C548.533 343.192 540.673 356.695 529.375 367.007C510.217 383.947 482.463 390.084 457.166 385.911Z" fill="#FFD7B9"/>
<path d="M575.304 204.236C571.865 206.2 568.427 208.655 564.988 210.864" stroke="#2E2854" stroke-miterlimit="10" stroke-linecap="round" stroke-linejoin="round"/>
<path d="M590.286 208.655C585.128 210.373 580.216 212.337 575.55 215.038" stroke="#2E2854" stroke-miterlimit="10" stroke-linecap="round" stroke-linejoin="round"/>
<path d="M580.216 222.403C585.62 219.948 591.023 217.739 596.918 217.493C597.163 217.493 597.654 217.493 597.9 217.493" stroke="#2E2854" stroke-miterlimit="10" stroke-linecap="round" stroke-linejoin="round"/>
<path d="M417.622 370.689C429.903 378.054 443.166 383.21 457.166 385.665C482.463 390.084 510.217 383.947 529.375 366.516C540.673 356.204 548.778 342.701 555.164 328.708C569.164 299.001 578.006 266.84 580.707 234.188C587.584 230.505 593.479 227.804 598.637 224.367C600.111 223.385 601.83 221.912 601.584 219.948C601.339 218.966 600.602 217.984 599.619 217.739C598.883 217.493 598.391 217.493 597.654 217.248C600.356 215.775 603.304 214.056 606.005 212.337C607.233 211.355 608.707 210.373 608.953 208.655C608.953 207.182 607.724 205.954 606.496 205.709C605.023 205.218 603.795 205.463 602.321 205.709C598.391 206.445 594.216 207.182 590.286 208.655C593.233 206.445 596.181 204.236 599.128 201.781C600.111 201.044 600.847 200.062 600.847 199.08C600.847 198.098 599.865 197.116 598.883 196.871C597.9 196.38 596.918 196.625 595.69 196.625C588.321 197.362 581.444 200.553 575.058 204.236C577.269 200.062 579.234 195.889 580.462 191.224C580.707 190.242 580.953 189.014 580.953 187.787C580.953 186.559 580.216 185.577 579.234 185.086C578.251 184.595 576.778 184.841 575.795 185.577C574.813 186.314 574.076 187.296 573.339 188.278C569.655 193.433 566.216 198.835 561.795 203.254C557.374 207.673 551.725 211.601 545.585 212.828" stroke="#2E2854" stroke-miterlimit="10" stroke-linecap="round" stroke-linejoin="round"/>
<path d="M501.867 364.306C500.639 367.743 497.446 370.689 494.007 371.671C490.323 372.899 486.393 372.162 483.2 369.953" stroke="#2E2854" stroke-miterlimit="10" stroke-linecap="round" stroke-linejoin="round"/>
<path d="M534.778 217.493C531.34 213.074 527.901 208.655 525.445 203.745C524.954 202.517 524.463 201.535 524.217 200.308C524.217 199.08 524.463 197.853 525.445 196.871C526.428 195.889 528.147 195.889 529.621 196.38C531.094 196.871 532.077 197.853 533.305 198.835C537.234 202.517 540.919 206.445 545.585 211.601C549.269 210.128 553.69 210.128 557.375 211.601C561.059 213.074 564.252 216.02 565.971 219.457" fill="#FFD7B9"/>
<path d="M534.778 217.493C531.34 213.074 527.901 208.655 525.445 203.745C524.954 202.517 524.463 201.535 524.217 200.308C524.217 199.08 524.463 197.853 525.445 196.871C526.428 195.889 528.147 195.889 529.621 196.38C531.094 196.871 532.077 197.853 533.305 198.835C537.234 202.517 540.919 206.445 545.585 211.601C549.269 210.128 553.69 210.128 557.375 211.601C561.059 213.074 564.252 216.02 565.971 219.457" stroke="#2E2854" stroke-miterlimit="10" stroke-linecap="round" stroke-linejoin="round"/>
<path d="M464.534 291.145C453.973 271.014 449.06 246.708 438.745 226.331C428.675 206.2 411.482 187.05 389.132 183.613C389.132 183.613 384.711 244.744 391.096 283.289C397.482 321.833 412.956 356.45 412.956 356.45L464.534 291.145Z" fill="#1072BA"/>
<path opacity="0.15" d="M425.482 327.726C425.482 327.726 418.113 296.301 401.412 268.804L389.868 272.241C390.36 275.924 390.851 279.606 391.342 283.043C397.728 321.588 413.201 356.204 413.201 356.204L426.219 339.755C425.482 336.564 425.236 332.39 425.482 327.726Z" fill="#402995"/>
<path d="M428.429 373.144C448.815 355.222 464.779 332.39 475.095 307.349C476.814 303.175 476.569 298.51 474.358 294.582C471.657 289.672 468.464 285.007 464.534 280.588C462.078 277.888 457.411 278.379 455.692 281.57C443.166 306.367 426.219 329.199 405.587 348.839C402.64 351.785 402.149 356.204 404.359 359.641C408.043 365.288 412.71 370.198 418.359 373.635C421.798 375.599 425.727 375.354 428.429 373.144Z" fill="#1B3765"/>
<path opacity="0.15" d="M425.482 327.726C419.342 335.091 412.956 341.965 405.833 348.839C402.886 351.785 402.394 356.204 404.605 359.642C408.289 365.288 412.956 370.198 418.605 373.635C421.798 375.599 425.727 375.354 428.429 372.899C432.113 369.462 435.797 366.025 439.236 362.342C438.745 362.097 424.008 353.258 425.482 327.726Z" fill="#1B3765"/>
<path d="M210.573 400.641C199.275 409.479 186.749 416.353 173.24 420.282C148.433 427.647 120.188 424.946 99.3115 410.216C86.7854 401.378 77.2066 388.857 69.1014 375.845C51.4175 348.103 38.8914 317.169 32.2599 285.007C24.8916 282.061 18.7514 280.343 13.1023 277.397C11.3831 276.66 9.66381 275.187 9.66381 273.223C9.66381 272.241 10.4006 271.259 11.3831 270.768C11.8743 270.523 12.6111 270.277 13.348 270.032C10.4006 268.804 7.45332 267.576 4.506 266.103C3.03234 265.367 1.55868 264.385 1.31307 262.912C1.06746 261.439 2.0499 260.211 3.52356 259.475C4.75161 258.984 6.22527 258.984 7.69893 258.984C11.8743 259.229 15.8041 259.475 19.9794 260.211C16.7865 258.493 13.5936 256.529 10.4006 254.565C9.4182 253.828 8.43576 253.092 8.19015 252.11C8.19015 251.128 8.92698 250.145 9.66381 249.654C10.6462 249.163 11.6287 249.163 12.8567 249.163C20.225 248.918 27.3477 251.373 34.2248 254.319C31.5231 250.637 29.067 246.463 27.3477 242.044C26.8565 241.062 26.6109 239.834 26.3653 238.852C26.3653 237.625 26.8565 236.643 27.839 235.906C28.8214 235.17 30.0494 235.415 31.2775 235.906C32.2599 236.397 33.2424 237.379 33.9792 238.116C38.1546 242.78 42.3299 247.69 47.2421 251.619C52.1543 255.547 58.049 258.493 64.4348 259.229L76.2241 262.421C85.8029 286.971 99.3115 309.067 115.767 328.953C121.171 335.582 128.293 342.21 136.89 341.965C145.241 341.719 151.135 334.845 155.065 327.235L210.573 400.641Z" fill="#FFE0CA"/>
<path d="M173.24 420.527C186.749 416.353 199.52 409.479 210.573 400.886L198.784 385.42C190.678 394.994 171.03 411.198 133.451 404.815C95.8729 398.431 60.9963 352.522 44.0492 326.989C50.6807 344.174 58.7858 360.623 68.6102 376.09C76.7153 389.102 86.2941 401.623 98.8203 410.461C120.434 425.192 148.679 427.892 173.24 420.527Z" fill="#FFD7B9"/>
<path d="M33.9792 254.565C37.6633 256.283 41.3475 258.002 45.0316 259.966" stroke="#2E2854" stroke-miterlimit="10" stroke-linecap="round" stroke-linejoin="round"/>
<path d="M19.7337 260.948C25.1371 261.93 30.2949 263.403 35.2071 265.367" stroke="#2E2854" stroke-miterlimit="10" stroke-linecap="round" stroke-linejoin="round"/>
<path d="M31.2775 273.223C25.6284 271.505 19.9794 269.786 14.0848 270.277C13.8392 270.277 13.3479 270.277 13.1023 270.277" stroke="#2E2854" stroke-miterlimit="10" stroke-linecap="round" stroke-linejoin="round"/>
<path d="M210.573 400.641C199.275 409.479 186.749 416.353 173.24 420.282C148.433 427.647 120.188 424.946 99.3115 410.216C86.7854 401.378 77.2066 388.857 69.1014 375.845C51.4175 348.103 38.8914 317.169 32.2599 285.007C24.8916 282.061 18.7514 280.343 13.1023 277.397C11.3831 276.66 9.66381 275.187 9.66381 273.223C9.66381 272.241 10.4006 271.259 11.3831 270.768C11.8743 270.523 12.6111 270.277 13.348 270.032C10.4006 268.804 7.45332 267.576 4.506 266.103C3.03234 265.367 1.55868 264.385 1.31307 262.912C1.06746 261.439 2.0499 260.211 3.52356 259.475C4.75161 258.984 6.22527 258.984 7.69893 258.984C11.8743 259.229 15.8041 259.475 19.9794 260.211C16.7865 258.493 13.5936 256.529 10.4006 254.565C9.4182 253.828 8.43576 253.092 8.19015 252.11C8.19015 251.128 8.92698 250.145 9.66381 249.654C10.6462 249.163 11.6287 249.163 12.8567 249.163C20.225 248.918 27.3477 251.373 34.2248 254.319C31.5231 250.637 29.067 246.463 27.3477 242.044C26.8565 241.062 26.6109 239.834 26.3653 238.852C26.3653 237.625 26.8565 236.643 27.839 235.906C28.8214 235.17 30.0494 235.415 31.2775 235.906C32.2599 236.397 33.2424 237.379 33.9792 238.116C38.1546 242.78 42.3299 247.69 47.2421 251.619C52.1543 255.547 58.049 258.493 64.4348 259.229" stroke="#2E2854" stroke-miterlimit="10" stroke-linecap="round" stroke-linejoin="round"/>
<path d="M126.329 404.569C128.048 408.006 131.486 410.216 135.171 410.952C138.855 411.689 142.784 410.461 145.732 408.006" stroke="#2E2854" stroke-miterlimit="10" stroke-linecap="round" stroke-linejoin="round"/>
<path d="M75.7329 262.666C78.6802 258.002 81.3819 253.092 83.3468 247.936C83.838 246.708 84.0836 245.481 84.0836 244.253C84.0836 243.026 83.5924 241.798 82.61 241.062C81.3819 240.325 79.6626 240.325 78.4346 241.062C77.2065 241.798 76.2241 242.78 75.2417 244.008C71.8031 248.181 68.6102 252.601 64.6804 258.247C60.7507 257.265 56.5753 258.002 52.8911 259.72C49.4526 261.684 46.5053 264.876 45.2772 268.559" fill="#FFD7B9"/>
<path d="M75.7329 262.666C78.6802 258.002 81.3819 253.092 83.3468 247.936C83.838 246.708 84.0836 245.481 84.0836 244.253C84.0836 243.026 83.5924 241.798 82.61 241.062C81.3819 240.325 79.6626 240.325 78.4346 241.062C77.2065 241.798 76.2241 242.78 75.2417 244.008C71.8031 248.181 68.6102 252.601 64.6804 258.247C60.7507 257.265 56.5753 258.002 52.8911 259.72C49.4526 261.684 46.5053 264.876 45.2772 268.559" stroke="#2E2854" stroke-miterlimit="10" stroke-linecap="round" stroke-linejoin="round"/>
<path d="M213.029 202.272C191.661 209.637 178.398 231.487 172.012 253.092C165.626 274.942 164.398 297.774 157.767 319.378C157.03 322.079 155.802 324.779 154.574 327.48C154.574 327.48 167.1 357.432 180.609 373.881C194.117 390.33 210.573 400.641 210.573 400.641C219.661 393.521 228.011 385.174 235.134 376.09C235.134 376.09 238.573 330.181 235.134 291.391C231.696 252.601 213.029 202.272 213.029 202.272Z" fill="#1072BA"/>
<path opacity="0.15" d="M220.643 282.552C225.801 337.791 209.591 372.899 209.591 372.899C208.854 383.21 203.45 388.611 198.293 391.557C205.415 397.449 210.573 400.641 210.573 400.641C219.661 393.521 228.011 385.174 235.134 376.09C235.134 376.09 238.573 330.426 235.134 291.391C234.397 281.816 232.432 271.75 230.468 261.93C223.59 260.211 218.924 264.876 220.643 282.552Z" fill="#402995"/>
<path d="M163.17 319.624C187.486 339.755 207.626 365.288 221.134 393.767C222.608 396.713 221.625 400.15 219.169 402.114C215.731 404.815 212.047 407.515 207.871 409.479C204.924 410.952 201.485 410.216 199.275 407.761C180.363 385.174 163.661 361.36 149.17 335.582C148.188 333.863 147.942 331.654 148.925 329.69L152.118 322.324C153.837 317.905 159.486 316.432 163.17 319.624Z" fill="#1B3765"/>
<path opacity="0.15" d="M199.275 407.761C201.485 410.216 204.924 410.952 207.871 409.479C212.046 407.515 215.976 404.815 219.169 402.114C221.625 400.15 222.362 396.713 221.134 393.767C217.696 386.647 213.766 379.527 209.59 372.899C208.362 393.03 188.959 394.749 188.714 394.749C192.152 399.168 195.591 403.587 199.275 407.761Z" fill="#402995"/>
<path d="M389.132 183.859C361.378 179.685 324.536 203.499 296.537 206.691C268.537 208.655 239.555 192.943 213.029 202.272L219.169 267.822C227.52 347.857 225.555 429.12 212.783 511.365C254.783 524.622 300.221 524.376 340.255 522.903C371.693 521.676 403.131 515.293 432.359 503.508C441.692 422.491 430.148 339.019 398.956 263.648L389.132 183.859Z" fill="#1072BA"/>
<path d="M427.201 357.677C422.78 334.6 416.64 312.013 409.026 289.672C350.079 310.54 286.221 317.414 222.608 311.031C224.081 334.845 224.327 358.905 224.081 382.965C292.361 393.767 363.588 384.929 427.201 357.677Z" fill="#1D81CB"/>
<path d="M399.202 263.648C430.64 339.019 442.183 422.491 432.604 503.508" stroke="#2E2854" stroke-miterlimit="10" stroke-linecap="round" stroke-linejoin="round"/>
<path d="M212.783 511.364C225.555 429.12 227.52 347.857 219.169 267.822" stroke="#2E2854" stroke-miterlimit="10" stroke-linecap="round" stroke-linejoin="round"/>
<path d="M299.975 226.086C299.484 225.84 248.642 201.044 248.151 200.799C245.449 200.308 242.993 200.062 240.292 199.817C241.765 215.038 247.414 230.014 257.73 241.307C268.537 253.092 284.256 260.211 299.975 259.229C317.413 258.002 333.132 246.954 342.465 232.224C350.816 219.212 354.5 203.745 355.483 188.278C352.29 189.26 348.851 190.487 345.413 191.715C345.167 191.715 300.466 226.086 299.975 226.086Z" fill="#1B3765"/>
<path d="M277.133 170.847C276.642 185.332 276.151 200.062 275.414 215.775C286.712 219.948 299.975 219.457 312.501 213.811C310.536 198.835 309.799 183.859 309.799 168.637L277.133 170.847Z" fill="#FFE0CA"/>
<path d="M309.799 168.883L277.133 170.847C276.887 177.476 276.642 184.104 276.396 190.978C280.08 189.996 285.729 189.014 291.624 188.769C298.01 188.523 305.133 189.505 310.29 190.242C310.045 183.122 309.799 176.003 309.799 168.883Z" fill="#FFD7B9"/>
<path d="M334.852 228.541C341.974 217.739 345.167 204.481 345.413 191.469C328.466 197.607 311.273 204.972 296.537 206.691C280.326 207.673 264.116 203.254 248.151 200.799C250.607 212.829 255.274 224.367 263.379 233.697C272.221 243.762 285.238 250.391 298.501 250.146C313.238 249.655 326.747 240.571 334.852 228.541Z" fill="#FFE0CA"/>
<path d="M222.362 99.4045C214.503 99.65 207.134 105.051 203.941 112.171C200.748 119.536 201.976 128.374 206.643 134.512C211.31 140.895 219.415 144.578 227.274 144.332L222.362 99.4045Z" fill="#FFE0CA"/>
<path d="M324.536 31.1537C325.518 18.3874 334.606 6.60307 346.886 2.67496C358.921 -1.25314 373.412 2.92047 381.517 12.7407C389.623 22.561 391.342 37.2914 385.202 48.5847C379.307 59.878 366.044 66.9977 353.272 65.5246L324.536 31.1537Z" fill="#232323"/>
<path opacity="0.15" d="M327.974 18.8784C326.01 22.561 324.781 26.7346 324.536 30.9082L353.518 65.2791C358.921 65.7701 364.325 64.7881 369.237 62.824C361.377 33.8543 340.009 23.052 327.974 18.8784Z" fill="black"/>
<path d="M361.377 107.752C372.921 104.069 386.43 110.943 390.851 122.237C395.272 133.53 390.605 147.278 380.781 154.152C370.956 161.027 356.711 160.781 346.15 153.661C344.185 136.967 345.167 112.907 361.377 107.752Z" fill="#FFE0CA"/>
<path d="M364.816 120.764C373.167 121.009 381.272 126.165 385.202 133.53" stroke="#2E2854" stroke-miterlimit="10" stroke-linecap="round" stroke-linejoin="round"/>
<path d="M362.114 139.422C368.255 135.985 373.167 130.338 376.114 123.955" stroke="#2E2854" stroke-miterlimit="10" stroke-linecap="round" stroke-linejoin="round"/>
<path d="M219.906 94.4944C220.888 106.524 220.397 118.799 221.38 130.829C222.362 142.859 224.818 155.134 230.958 165.446C237.344 175.757 247.906 184.104 259.94 185.086C270.01 185.823 279.835 181.895 289.905 180.913C300.712 179.931 312.01 182.877 322.571 179.931C333.869 176.739 342.465 166.919 347.132 155.871C351.799 145.069 353.027 133.039 354.255 121.009C364.57 110.943 368.5 95.7219 367.518 81.237C365.798 60.1234 353.027 40.2374 334.606 29.9261C316.185 19.3694 292.607 18.6328 272.221 30.1716C263.625 21.8244 249.379 21.0879 238.572 26.2435C227.765 31.3992 220.152 41.7105 215.485 53.0038C212.783 59.8779 211.064 67.2431 211.31 74.6083C211.801 82.219 214.503 89.5842 219.906 94.4944Z" fill="#232323"/>
<path d="M346.886 85.4106C351.799 97.4405 349.343 112.171 340.746 121.991C332.15 131.811 317.659 135.985 305.133 132.548C295.554 129.847 287.694 123.219 278.607 119.291C264.361 112.662 247.414 112.662 233.169 118.554C229.73 105.542 228.502 95.4764 230.222 81.9735C240.046 76.8179 247.66 68.2252 250.362 59.6324C274.431 83.2011 311.273 93.0213 346.886 85.4106Z" fill="#FFE0CA"/>
<path d="M331.413 129.111C329.694 124.201 324.782 120.518 319.378 120.518C312.501 120.518 306.852 125.919 306.607 132.548C314.957 134.757 324.045 133.284 331.413 129.111Z" fill="#FFD1AF"/>
<path d="M239.309 107.752C236.116 107.752 233.169 108.979 230.958 110.698C231.45 113.153 232.187 115.608 232.923 118.308C238.572 115.853 244.467 114.626 250.607 114.135C248.397 110.452 244.221 107.752 239.309 107.752Z" fill="#FFD1AF"/>
<path d="M277.87 98.668C273.94 103.087 269.274 107.261 264.116 110.698C267.309 112.416 270.993 113.644 274.432 114.135" stroke="black" stroke-miterlimit="10" stroke-linecap="round" stroke-linejoin="round"/>
<path d="M239.309 96.704C242.257 93.7579 246.678 92.2849 250.853 92.5304C255.028 92.7759 258.958 94.9854 261.414 98.4225" stroke="black" stroke-miterlimit="10" stroke-linecap="round" stroke-linejoin="round"/>
<path d="M301.449 106.033C305.87 103.578 311.519 102.842 316.431 104.315C321.343 105.542 325.764 108.979 328.466 113.398" stroke="black" stroke-miterlimit="10" stroke-linecap="round" stroke-linejoin="round"/>
<path d="M284.501 134.021C283.519 132.793 282.045 132.057 280.572 132.302C279.098 132.302 277.624 133.53 277.379 135.003C276.888 136.967 278.361 138.686 280.08 139.422C281.554 139.913 283.273 139.913 284.501 138.931C285.484 137.949 285.975 135.739 284.501 134.021Z" fill="#CEBCBC" stroke="black" stroke-miterlimit="10" stroke-linecap="round" stroke-linejoin="round"/>
</svg>
