<svg width="99" height="123" viewBox="0 0 99 123" fill="none" xmlns="http://www.w3.org/2000/svg">
<path d="M80.3646 101.153C76.7508 99.6209 72.8739 98.6161 69.1366 97.6422C76.0334 74.4267 81.5655 50.7625 85.702 26.7894C86.7515 20.7263 83.0878 14.791 77.2102 12.9041C63.3614 8.66668 49.5136 5.74717 35.5741 4.56423C29.9457 4.19653 24.77 7.7356 22.8671 13.0241C14.5139 37.5277 8.27111 64.4018 4.40195 93.1191C3.58466 98.7943 7.06193 104.249 12.3195 106.292C25.1764 111.041 38.6524 114.318 52.2051 116.586C58.1595 117.466 64.0639 113.941 65.7804 108.172C65.904 107.614 66.198 106.947 66.3216 106.389C71.1266 104.525 75.7301 102.909 80.3646 101.153Z" fill="white"/>
<path opacity="0.05" d="M65.9507 108.064C66.0743 107.505 66.3684 106.839 66.492 106.28C71.0955 104.664 75.73 102.909 80.3336 101.293C76.7198 99.7604 72.8429 98.7557 69.1056 97.7818C72.4768 86.5229 75.5997 75.0627 78.3039 63.5097C50.4895 83.9974 21.216 82.6404 6.40723 80.0938C5.75937 84.3425 5.08061 88.7308 4.40184 93.1191C3.58455 98.7943 7.06181 104.249 12.3194 106.292C25.1763 111.041 38.6523 114.318 52.2049 116.586C58.3298 117.357 64.0947 113.802 65.9507 108.064Z" fill="#1072BA"/>
<path d="M18.9079 25.6168C12.5054 46.5993 7.67014 69.1001 4.54155 93.15C3.72426 98.8252 7.20152 104.28 12.4591 106.323C25.316 111.072 38.792 114.349 52.3447 116.617C58.2991 117.496 64.2035 113.972 65.92 108.203C66.0436 107.645 66.3376 106.978 66.4612 106.42C71.0648 104.804 75.6993 103.048 80.3028 101.432C76.6891 99.9 72.8122 98.8952 69.0748 97.9214C75.9717 74.7058 81.5037 51.0417 85.6402 27.0685C86.6897 21.0055 83.026 15.0701 77.1484 13.1832C64.2765 9.16208 51.2662 6.42797 38.3964 5.04264" stroke="#71BA44" stroke-miterlimit="10" stroke-linecap="round" stroke-linejoin="round"/>
<path d="M21.3361 17.9557C20.8875 19.3204 20.4698 20.5456 20.0213 21.9104" stroke="#71BA44" stroke-miterlimit="10" stroke-linecap="round" stroke-linejoin="round"/>
<path d="M32.7371 4.81449C30.3186 5.15748 28.1644 6.291 26.3671 7.79633" stroke="#71BA44" stroke-miterlimit="10" stroke-linecap="round" stroke-linejoin="round"/>
<path d="M37.7149 65.6501C36.9702 65.046 36.4269 64.1937 35.9763 62.9227C35.5257 61.6517 35.3851 60.3029 35.725 58.7677C36.034 57.372 36.6998 56.3482 37.5522 55.8049C38.4045 55.2616 39.7842 54.9814 41.2725 54.8717L47.0245 54.6812C49.5207 54.6482 50.8844 53.7789 51.2552 52.1041C51.4406 51.2667 51.2073 50.3366 50.4935 49.593C49.8106 48.7098 48.3372 48.0907 46.2438 47.6272C44.2899 47.1946 42.5533 47.103 40.7858 47.1509C38.9875 47.3383 37.4682 47.5876 36.3677 47.9296C35.6539 47.1859 35.1415 46.194 34.7686 45.233C34.3957 44.272 34.3638 43.0937 34.611 41.9772C34.8891 40.7211 35.3845 39.806 36.2986 38.9835C37.2128 38.1611 38.3442 37.6796 39.7239 37.3994C41.1036 37.1192 42.5919 37.0095 44.3285 37.1012C46.0651 37.1929 48.0499 37.4859 50.0038 37.9185C55.4468 39.1236 59.3865 41.1671 61.6216 44.2973C63.8876 47.2878 64.5725 50.8068 63.816 54.8851C62.1783 62.282 55.9329 66.0235 45.0021 65.7994L37.7149 65.6501ZM33.3338 74.1965C33.7664 72.2426 34.6646 70.831 36.1988 69.853C37.5934 68.8441 39.3917 68.6567 41.4852 69.1201C43.5787 69.5836 45.1298 70.5127 45.9683 72.016C46.9462 73.5501 47.1646 75.209 46.732 77.1629C46.2994 79.1168 45.4013 80.5284 43.8671 81.5063C42.4725 82.5152 40.6741 82.7027 38.5806 82.2392C36.4872 81.7757 34.936 80.8466 34.0976 79.3434C33.2592 77.8401 33.0408 76.1813 33.3338 74.1965Z" fill="#1B3765"/>
</svg>
