<svg width="79" height="59" viewBox="0 0 79 59" fill="none" xmlns="http://www.w3.org/2000/svg">
<path fill-rule="evenodd" clip-rule="evenodd" d="M24.4346 11.2109C22.6244 10.4871 24.802 8.69107 24.4426 7.24999C26.9797 6.89501 27.7022 7.97673 27.3355 10.1365C27.3333 11.2168 24.7991 10.1314 24.4346 11.2109Z" fill="#1072BA"/>
<path fill-rule="evenodd" clip-rule="evenodd" d="M26.2413 13.7352C28.4175 12.6593 28.4168 13.0194 31.6778 13.0259C33.1199 16.6297 30.9423 18.4258 26.9544 19.498C28.4074 17.7005 25.1485 16.6137 26.2413 13.7352Z" fill="#1072BA"/>
<path fill-rule="evenodd" clip-rule="evenodd" d="M35.3089 9.07248C35.6727 8.35304 36.0365 7.6336 36.401 6.55407C37.1257 6.55553 36.7612 7.63506 37.122 8.35596C37.4844 8.35669 37.8474 7.99733 37.8482 7.63724C38.2105 7.63797 38.5721 7.99879 38.5714 8.35888C38.5707 8.71896 38.5699 9.07904 38.5692 9.43913C36.3938 10.1549 36.759 8.71531 35.3089 9.07248Z" fill="#1072BA"/>
<path fill-rule="evenodd" clip-rule="evenodd" d="M1.96975 11.1655C4.86844 11.1713 10.6738 7.22205 11.3854 13.7051C13.1964 14.0688 12.8362 12.9878 14.2856 12.9907C13.9196 14.7904 15.0073 14.4325 15.0044 15.8729C13.9182 15.5106 11.3796 16.5857 11.3825 15.1454C9.56722 16.9422 8.11352 19.0998 7.38377 21.6189C9.55924 20.9031 9.92375 19.8236 10.2803 22.705C12.4587 20.5489 17.8894 22.7203 18.6082 25.6025C18.9713 25.2431 20.059 24.8852 21.146 24.8874C21.5048 26.6886 22.5903 27.4109 23.3128 28.4927C23.6708 30.6539 20.7736 29.9279 20.4083 31.3675C18.959 31.3646 18.5988 30.2836 17.8756 29.562C16.7886 29.5598 16.4241 30.6393 16.7835 32.0804C14.6088 32.4361 14.2486 31.3551 13.163 30.6327C13.521 32.794 12.7949 33.5127 12.792 34.953C9.16718 35.6659 8.81065 32.7845 5.18293 34.9377C3.01399 32.4128 3.02269 28.0917 4.47711 25.574C-0.226745 22.3238 -1.30143 16.2001 1.96975 11.1655Z" fill="#1072BA"/>
<path fill-rule="evenodd" clip-rule="evenodd" d="M43.6421 9.44899C43.6399 10.5292 44.0015 10.8901 44.7254 11.2516C46.5393 10.175 46.1828 7.29358 47.635 5.85616C48.7206 6.57852 49.4474 5.49972 51.2569 6.58362C51.6236 4.42384 50.5366 4.42165 50.5402 2.62122C56.6949 5.15422 66.1338 -3.82897 68.2933 3.37713C77.0002 -2.00665 74.4305 14.5522 78.4075 18.8813C78.7626 22.4828 77.3111 23.5602 76.5814 26.0793C72.9587 25.7119 71.8637 29.6707 67.1534 29.6612C66.4308 28.5795 66.0707 27.4985 64.2597 27.1348C65.3518 24.6164 62.0988 20.6489 65.3583 21.3756C64.9989 19.9345 64.2764 18.8528 62.4647 18.8492C60.6516 19.5657 63.185 21.0111 62.4575 22.45C60.6443 23.1665 59.5537 24.9648 57.0202 23.5193C57.7601 15.959 50.1438 19.5445 47.6104 18.0991C47.2466 18.8185 46.8777 22.0586 47.5973 24.5806C43.2457 26.3723 41.4419 22.4077 39.2716 20.6029C37.0975 20.5985 37.8164 23.4807 35.2808 23.1155C38.1751 25.2818 34.546 28.1552 36.3489 32.4799C32.0009 32.4712 32.7285 31.0323 28.7435 30.6642C28.7522 26.3431 29.8406 25.6251 28.0377 21.3005C29.1276 19.8623 30.2175 18.4242 33.4778 18.7908C33.4807 17.3505 33.4836 15.9101 33.4858 14.8299C37.4765 12.3173 44.0015 10.8901 40.7535 4.40195C42.2072 2.24435 44.0189 2.248 47.2792 2.61465C48.3626 4.41727 46.5422 8.73465 43.6421 9.44899Z" fill="#1072BA"/>
<path fill-rule="evenodd" clip-rule="evenodd" d="M24.4267 15.1724C22.6165 14.4485 24.7941 12.6525 24.4347 11.2114C26.9718 10.8564 27.6943 11.9382 27.3276 14.0979C27.3254 15.1782 24.7912 14.0928 24.4267 15.1724Z" fill="#1072BA"/>
<path fill-rule="evenodd" clip-rule="evenodd" d="M26.2333 17.6961C28.4095 16.6202 28.4087 16.9803 31.6698 16.9869C33.1119 20.5907 30.9342 22.3867 26.9464 23.4589C28.3993 21.6614 25.1405 20.5746 26.2333 17.6961Z" fill="#1072BA"/>
<path fill-rule="evenodd" clip-rule="evenodd" d="M35.3017 12.6734C35.6654 11.9539 36.0292 11.2345 36.3937 10.155C37.1184 10.1564 36.7539 11.2359 37.1148 11.9568C37.4771 11.9576 37.8402 11.5982 37.8409 11.2381C38.2033 11.2389 38.5649 11.5997 38.5641 11.9598C38.5634 12.3198 38.5627 12.6799 38.562 13.04C36.3865 13.7558 36.751 12.6763 35.3017 12.6734Z" fill="#1072BA"/>
<path fill-rule="evenodd" clip-rule="evenodd" d="M1.96167 15.1266C4.86036 15.1325 10.6657 11.1832 11.3773 17.6662C13.1883 18.0299 12.8281 16.949 14.2775 16.9519C13.9115 18.7516 14.9993 18.3937 14.9964 19.834C13.9101 19.4718 11.3715 20.5469 11.3744 19.1066C9.55914 20.9033 8.46778 23.0617 7.37569 25.5801C9.55116 24.8643 9.91567 23.7848 10.2722 26.6662C12.4506 24.51 17.8813 26.6815 18.6001 29.5636C18.9625 29.5644 20.0502 29.2065 21.1372 29.2087C21.4967 30.6497 22.5822 31.3721 23.3054 32.0937C23.6627 34.6151 20.7655 33.8891 20.4002 35.3287C18.9509 35.3257 18.5907 34.2448 17.8675 33.5231C16.7805 33.5209 16.416 34.6005 16.7754 36.0415C14.6007 36.3973 14.2412 34.9562 13.155 34.5939C13.5137 36.3951 12.7868 37.4739 12.7846 38.5541C9.15983 39.267 8.80329 36.3856 5.17558 38.5388C3.00663 36.0138 3.01533 31.6928 4.46975 29.1751C-0.234825 26.2849 -1.30951 20.1613 1.96167 15.1266Z" fill="#1072BA"/>
<path fill-rule="evenodd" clip-rule="evenodd" d="M43.6339 13.4104C43.6317 14.4907 43.9933 14.8515 44.7173 15.213C46.5311 14.1364 46.1746 11.255 47.6268 9.81758C48.7124 10.5399 49.4392 9.46114 51.2487 10.545C51.6154 8.38526 50.5284 8.38308 50.532 6.58265C56.6867 9.11565 66.1256 0.132459 68.2851 7.33856C76.992 1.95477 74.4223 18.5136 78.3993 22.8427C78.7544 26.4443 77.3029 27.5216 76.5732 30.0408C72.9505 29.6734 71.8555 33.6321 67.1452 33.6227C66.4227 32.5409 66.0625 31.4599 64.2515 31.0962C65.3444 28.2177 62.092 23.8901 65.3516 24.6169C64.9922 23.1758 64.2697 22.0941 62.458 22.0904C60.6448 22.8069 63.1783 24.2524 62.4507 25.6913C60.6376 26.4078 59.547 28.206 57.0135 26.7606C57.7534 19.2002 50.1371 22.7858 47.6036 21.3403C47.2391 22.4199 46.8695 26.02 47.5899 28.182C43.6005 29.9744 41.4345 26.0091 39.2641 24.2042C37.0901 24.1999 37.8089 27.082 35.2733 26.7168C38.1669 29.2433 34.5378 32.1167 36.3407 36.4413C31.9927 36.4326 32.7203 34.9937 28.7353 34.6256C28.744 30.3046 29.8325 29.5866 28.0295 25.2619C29.1194 23.8237 30.21 22.0255 33.4696 22.7522C33.4725 21.3119 33.4754 19.8715 33.4776 18.7913C37.4684 16.2787 43.9933 14.8515 40.7453 8.36338C42.199 6.20578 44.0107 6.20943 47.271 6.57608C48.3544 8.3787 46.5347 12.336 43.6339 13.4104Z" fill="#1072BA"/>
<path fill-rule="evenodd" clip-rule="evenodd" d="M24.4187 19.1331C22.6085 18.4092 24.7861 16.6132 24.4267 15.1721C26.9637 14.8171 27.6862 15.8989 27.3196 18.0586C27.3181 18.7788 24.7839 17.6934 24.4187 19.1331Z" fill="#1072BA"/>
<path fill-rule="evenodd" clip-rule="evenodd" d="M26.226 21.2969C28.4022 20.2211 28.4014 20.5811 31.6625 20.5877C33.1046 24.1915 30.9269 25.9875 26.939 27.0598C28.3913 25.6223 25.1324 24.5355 26.226 21.2969Z" fill="#1072BA"/>
<path fill-rule="evenodd" clip-rule="evenodd" d="M35.2936 16.6341C35.6574 15.9146 36.0212 15.1952 36.3857 14.1156C37.1104 14.1171 36.7459 15.1966 37.1068 15.9175C37.4691 15.9183 37.8322 15.5589 37.8329 15.1988C38.1952 15.1995 38.5568 15.5604 38.5561 15.9204C38.5554 16.2805 38.5547 16.6406 38.5539 17.0007C36.3785 17.7165 36.743 16.637 35.2936 16.6341Z" fill="#1072BA"/>
<path fill-rule="evenodd" clip-rule="evenodd" d="M1.95365 19.0876C4.85234 19.0934 10.6577 15.1441 11.3693 21.6272C13.1803 21.9909 12.8201 20.9099 14.2695 20.9128C13.9042 22.3524 15.3536 22.3553 14.9883 23.795C13.9021 23.4327 11.3635 24.5078 11.3664 23.0675C9.55112 24.8643 8.45976 27.0226 7.36767 29.541C9.54314 28.8252 9.90765 27.7457 10.2642 30.6271C12.4426 28.471 17.8733 30.6424 18.5921 33.5246C18.9552 33.1652 20.0422 33.1674 21.1292 33.1696C21.4894 34.2506 22.5742 35.333 23.2974 36.0547C23.6547 38.576 20.7582 37.4899 20.3929 38.9295C18.9436 38.9266 18.5834 37.8456 17.8602 37.124C16.7732 37.1218 16.4087 38.2013 16.7681 39.6424C14.5934 39.9981 14.2332 38.9171 13.1469 38.5548C13.5056 40.356 12.7795 41.0747 12.7766 42.5151C9.15181 43.2279 8.79527 40.3465 5.16756 42.4997C2.99861 39.9748 2.64498 35.653 4.46173 33.136C-0.242843 30.2459 -1.3168 23.7621 1.95365 19.0876Z" fill="#1072BA"/>
<path fill-rule="evenodd" clip-rule="evenodd" d="M43.6259 17.3711C43.6237 18.4514 43.9853 18.8122 44.7092 19.1737C46.5231 18.0971 46.1666 15.2157 47.6188 13.7783C48.7044 14.5006 49.4312 13.4218 51.2407 14.5057C51.6074 12.346 50.5204 12.3438 50.524 10.5433C56.6787 13.0763 66.1175 4.09315 68.2771 11.2993C76.984 5.91547 74.4143 22.4743 78.3913 26.8034C78.7464 30.405 77.2949 31.4823 76.5651 34.0014C72.9425 33.6341 71.8475 37.5928 67.1371 37.5833C66.4146 36.5016 66.0545 35.4206 64.2435 35.0569C65.3363 32.1784 62.084 27.8508 65.3436 28.5775C64.9841 27.1365 64.2616 26.0548 62.45 26.0511C60.6368 26.7676 63.1703 28.2131 62.4427 29.652C60.6296 30.3685 59.5389 32.1667 57.0055 30.7213C57.7454 23.1609 50.1291 26.7465 47.5956 25.301C47.2318 26.0205 46.863 29.2605 47.5826 31.7826C43.2309 33.5743 41.4272 29.6097 39.2568 27.8049C37.0828 27.8005 37.8016 30.6826 35.266 30.3174C38.1589 33.204 34.5297 36.0774 36.3327 40.402C31.9847 40.3933 32.7123 38.9544 28.7273 38.5863C28.736 34.2652 29.8244 33.5473 28.0215 29.2226C29.1114 27.7844 30.202 25.9862 33.4616 26.7129C33.4645 25.2726 33.4674 23.8322 33.4696 22.752C37.4603 20.2394 43.9853 18.8122 40.7373 12.3241C42.191 10.1665 44.0027 10.1701 47.263 10.5368C48.3464 12.3394 46.5267 16.2967 43.6259 17.3711Z" fill="#1072BA"/>
<path fill-rule="evenodd" clip-rule="evenodd" d="M24.4108 23.094C22.6005 22.3702 24.7782 20.5741 24.4187 19.1331C26.9558 18.7781 27.6783 19.8598 27.3116 22.0196C27.3102 22.7397 24.776 21.6544 24.4108 23.094Z" fill="#1072BA"/>
<path fill-rule="evenodd" clip-rule="evenodd" d="M26.218 25.2579C28.3942 24.182 28.3935 24.5421 31.6545 24.5486C33.0966 28.1524 30.919 29.9485 26.9311 31.0207C28.3834 29.5833 25.1245 28.4965 26.218 25.2579Z" fill="#1072BA"/>
<path fill-rule="evenodd" clip-rule="evenodd" d="M35.2858 20.5949C35.6496 19.8755 36.0133 19.1561 36.3779 18.0765C37.1025 18.078 36.738 19.1575 37.0989 19.8784C37.4612 19.8791 37.8243 19.5198 37.825 19.1597C38.1874 19.1604 38.549 19.5212 38.5483 19.8813C38.5475 20.2414 38.5468 20.6015 38.5461 20.9616C36.3706 21.6774 36.7358 20.2378 35.2858 20.5949Z" fill="#1072BA"/>
<path fill-rule="evenodd" clip-rule="evenodd" d="M1.94572 23.0483C4.84442 23.0541 10.6498 19.1048 11.3614 25.5878C13.1724 25.9516 13.1753 24.5112 14.6239 24.8742C13.8963 26.3131 15.3457 26.316 14.9804 27.7557C13.8941 27.3934 11.3556 28.4685 11.3585 27.0282C9.54319 28.825 8.45183 30.9833 7.35975 33.5017C9.53522 32.7859 9.89973 31.7064 10.2563 34.5878C12.4346 32.4317 17.8653 34.6031 18.5842 37.4853C18.9473 37.1259 20.035 36.768 21.122 36.7702C21.4815 38.2113 22.5663 39.2937 23.2895 40.0154C23.6468 42.5367 20.7503 41.4506 20.385 42.8902C18.9357 42.8873 18.5755 41.8063 17.8523 41.0847C16.7653 41.0825 16.4008 42.162 16.7602 43.6031C14.5855 43.9588 14.2253 42.8778 13.139 42.5155C13.4977 44.3167 12.7716 45.0354 12.7687 46.4758C9.14389 47.1886 8.78735 44.3072 5.15963 46.4604C2.99069 43.9355 2.63705 39.6137 4.45381 37.0967C-0.250766 34.2066 -1.32473 27.7228 1.94572 23.0483Z" fill="#1072BA"/>
<path fill-rule="evenodd" clip-rule="evenodd" d="M43.6179 21.3321C43.6158 22.4123 43.9774 22.7731 44.7013 23.1347C46.5152 22.0581 46.1586 19.1766 47.6109 17.7392C48.6964 18.4616 49.4233 17.3828 51.2328 18.4667C51.5995 16.3069 50.5125 16.3047 50.5161 14.5043C56.6707 17.0373 66.1096 8.05409 68.2691 15.2602C76.9761 9.8764 74.4064 26.4353 78.3834 30.7643C78.7385 34.3659 77.2869 35.4432 76.5572 37.9624C72.9346 37.595 71.8396 41.5538 67.1292 41.5443C66.4067 40.4626 66.0465 39.3816 64.2356 39.0178C65.3291 35.7793 62.0761 31.8117 65.3356 32.5385C64.9762 31.0974 64.2537 30.0157 62.442 30.012C60.6289 30.7286 63.1624 32.174 62.4348 33.6129C60.6216 34.3294 59.531 36.1277 56.9976 34.6822C57.7375 27.1219 50.1211 30.7074 47.5877 29.262C47.2239 29.9814 46.855 33.2215 47.5746 35.7435C43.223 37.5352 41.4193 33.5706 39.2489 31.7658C37.0748 31.7614 37.7937 34.6436 35.2581 34.2784C38.151 37.1649 34.5218 40.0383 36.3248 44.363C31.9768 44.3542 32.7043 42.9153 28.7194 42.5472C28.7281 38.2262 29.8165 37.5082 28.0135 33.1835C29.1034 31.7454 30.1941 29.9471 33.4537 30.6739C33.4566 29.2335 33.4595 27.7932 33.4616 26.7129C37.4524 24.2003 43.9774 22.7731 40.7294 16.285C42.1831 14.1274 43.9948 14.1311 47.2551 14.4977C48.3385 16.3003 46.5188 20.2576 43.6179 21.3321Z" fill="#1072BA"/>
<path fill-rule="evenodd" clip-rule="evenodd" d="M24.4035 26.6951C22.5932 25.9713 24.7709 24.1752 24.4114 22.7341C26.9485 22.3791 28.0334 23.4616 27.6667 25.6214C27.3022 26.7009 24.768 25.6155 24.4035 26.6951Z" fill="#1072BA"/>
<path fill-rule="evenodd" clip-rule="evenodd" d="M26.2102 29.2193C28.3864 28.1434 28.3856 28.5035 31.6467 28.5101C33.0888 32.1139 30.9111 33.9099 26.9232 34.9821C28.3762 33.1846 25.1166 32.4579 26.2102 29.2193Z" fill="#1072BA"/>
<path fill-rule="evenodd" clip-rule="evenodd" d="M35.2778 24.5566C35.6416 23.8372 36.0053 23.1177 36.3698 22.0382C37.0945 22.0397 36.73 23.1192 37.0909 23.8401C37.4532 23.8408 37.8163 23.4815 37.817 23.1214C38.1794 23.1221 38.541 23.4829 38.5402 23.843C38.5395 24.2031 38.5388 24.5632 38.5381 24.9233C36.3626 25.6391 36.7278 24.1994 35.2778 24.5566Z" fill="#1072BA"/>
<path fill-rule="evenodd" clip-rule="evenodd" d="M1.93858 26.6499C4.83727 26.6557 10.6426 22.7064 11.3543 29.1894C13.1652 29.5532 13.1674 28.4729 14.6167 28.4758C13.8884 30.2748 15.3378 30.2777 14.9725 31.7173C13.8863 31.3551 11.3477 32.4302 11.3506 30.9899C9.53532 32.7866 8.44396 34.945 7.35188 37.4634C9.52735 36.7476 9.89186 35.6681 10.2484 38.5495C12.4268 36.3933 17.8575 38.5648 18.5763 41.4469C18.9394 41.0876 20.0271 40.7297 21.1141 40.7319C21.4736 42.173 22.5591 42.8953 23.2816 43.977C23.6396 46.1383 20.7424 45.4123 20.3771 46.8519C18.9278 46.849 18.5676 45.768 17.8444 45.0463C16.7574 45.0442 16.3929 46.1237 16.7523 47.5648C14.5776 47.9205 14.2174 46.8395 13.1319 46.1171C13.4899 48.2784 12.7637 48.9971 12.7608 50.4374C9.13601 51.1503 8.77948 48.2689 5.15176 50.4221C2.98354 47.537 2.6299 43.2153 4.44594 41.0584C-0.257915 37.8082 -1.3326 31.6845 1.93858 26.6499Z" fill="#1072BA"/>
<path fill-rule="evenodd" clip-rule="evenodd" d="M43.6102 25.2932C43.608 26.3735 43.9696 26.7343 44.6936 27.0958C46.5074 26.0192 46.1509 23.1378 47.6031 21.7004C48.6887 22.4227 49.4155 21.3439 51.2251 22.4278C51.5917 20.2681 50.5047 20.2659 50.5084 18.4654C56.663 20.9984 66.1019 12.0153 68.2614 19.2214C76.9683 13.8376 74.3987 30.3964 78.3757 34.7255C78.7307 38.3271 77.2792 39.4044 76.5495 41.9235C72.9268 41.5562 71.8318 45.5149 67.1215 45.5054C66.399 44.4237 66.0388 43.3427 64.2279 42.979C65.3214 39.7404 62.0683 35.7729 65.3279 36.4996C64.9685 35.0586 64.246 33.9769 62.4343 33.9732C60.6212 34.6897 63.1546 36.1352 62.427 37.5741C60.6139 38.2906 59.5233 40.0888 56.9898 38.6434C57.7297 31.083 50.1134 34.6686 47.5799 33.2231C47.2162 33.9426 46.8473 37.1826 47.5669 39.7047C43.2152 41.4964 41.4115 37.5318 39.2411 35.727C37.0671 35.7226 37.786 38.6047 35.2503 38.2395C38.1432 41.1261 34.5148 43.6394 36.3178 47.964C31.9697 47.9553 32.6973 46.5164 28.7123 46.1483C28.721 41.8273 29.8095 41.1093 28.0065 36.7846C29.0964 35.3464 30.1863 33.9083 33.4459 34.635C33.4488 33.1947 33.4517 31.7543 33.4539 30.6741C37.4447 28.1615 43.9696 26.7343 40.7216 20.2462C42.1753 18.0886 43.987 18.0922 47.2473 18.4589C48.3307 20.2615 46.5111 24.2188 43.6102 25.2932Z" fill="#1072BA"/>
<path fill-rule="evenodd" clip-rule="evenodd" d="M24.3954 30.6558C22.5852 29.9319 24.7629 28.1359 24.4034 26.6948C26.9405 26.3398 28.0261 27.0622 27.6587 29.5821C27.2941 30.6616 24.76 29.5762 24.3954 30.6558Z" fill="#1072BA"/>
<path fill-rule="evenodd" clip-rule="evenodd" d="M26.2022 33.1802C28.3783 32.1044 28.3776 32.4644 31.6386 32.471C33.0807 36.0748 30.9031 37.8708 26.9152 38.9431C28.3682 37.1456 25.1086 36.4188 26.2022 33.1802Z" fill="#1072BA"/>
<path fill-rule="evenodd" clip-rule="evenodd" d="M35.2697 28.5173C35.6343 27.4378 35.9973 27.0784 36.3618 25.9989C37.0865 26.0003 36.722 27.0799 37.0829 27.8008C37.4452 27.8015 37.8083 27.4421 37.809 27.0821C38.1713 27.0828 38.533 27.4436 38.5322 27.8037C38.5315 28.1638 38.5308 28.5239 38.5301 28.884C36.3546 29.5997 36.7198 28.1601 35.2697 28.5173Z" fill="#1072BA"/>
<path fill-rule="evenodd" clip-rule="evenodd" d="M1.93054 30.6106C4.82923 30.6164 10.6346 26.6671 11.3462 33.1501C13.1572 33.5139 13.1593 32.4336 14.6087 32.4365C13.8804 34.2355 15.3305 33.8783 14.9652 35.3179C13.8789 34.9557 11.3404 36.0308 11.3433 34.5905C9.52728 36.7473 8.43592 38.9057 7.34384 41.4241C9.51931 40.7083 9.88382 39.6288 10.2404 42.5102C12.4187 40.354 17.8494 42.5255 18.5683 45.4076C18.9314 45.0483 20.0191 44.6904 21.1061 44.6926C21.4655 46.1336 22.5511 46.856 23.2736 47.9377C23.6316 50.099 20.7343 49.373 20.3691 50.8126C18.9198 50.8097 18.5596 49.7287 17.8364 49.007C16.7494 49.0049 16.3849 50.0844 16.7443 51.5255C14.5695 51.8812 14.2094 50.8002 13.1238 50.0778C13.4818 52.2391 12.7557 52.9578 12.7528 54.3981C9.12798 55.111 8.77144 52.2296 5.14372 54.3828C2.97478 51.8578 2.98348 47.5368 4.4379 45.0191C-0.265953 41.7688 -1.34064 35.6452 1.93054 30.6106Z" fill="#1072BA"/>
<path fill-rule="evenodd" clip-rule="evenodd" d="M43.6029 28.8938C43.6007 29.9741 43.9623 30.3349 44.6863 30.6964C46.5001 29.6198 46.1436 26.7384 47.5958 25.301C48.6814 26.0233 49.4082 24.9445 51.2178 26.0284C51.5844 23.8687 50.4974 23.8665 50.5011 22.066C56.6557 24.599 66.0946 15.6159 68.2541 22.822C76.961 17.4382 74.3913 33.997 78.3683 38.3261C78.7234 41.9277 77.2719 43.005 76.5422 45.5242C72.9195 45.1568 71.8245 49.1155 67.1142 49.106C66.3917 48.0243 66.0315 46.9433 64.2206 46.5796C65.3134 43.7011 62.061 39.3735 65.3206 40.1002C64.9612 38.6592 64.2387 37.5775 62.427 37.5738C60.6139 38.2903 63.1473 39.7358 62.4197 41.1747C60.6066 41.8912 59.516 43.6894 56.9825 42.244C57.7224 34.6836 50.1061 38.2692 47.5726 36.8237C47.2089 37.5432 46.84 40.7832 47.5596 43.3053C43.2079 45.097 41.4042 41.1324 39.2338 39.3276C37.0598 39.3232 37.7787 42.2053 35.2431 41.8401C38.1359 44.7267 34.5068 47.6001 36.3098 51.9247C31.9617 51.916 32.6893 50.4771 28.7043 50.109C28.713 45.788 29.8015 45.07 27.9985 40.7453C29.0884 39.3071 30.1783 37.869 33.4379 38.5957C33.4408 37.1554 33.4437 35.715 33.4459 34.6348C37.4366 32.1222 43.9616 30.695 40.7136 24.2069C42.1673 22.0493 43.979 22.0529 47.2393 22.4196C48.3227 24.2222 46.503 28.1795 43.6029 28.8938Z" fill="#1072BA"/>
<path fill-rule="evenodd" clip-rule="evenodd" d="M24.3875 34.6167C22.5773 33.8929 24.7549 32.0968 24.3955 30.6558C26.9326 30.3008 27.6551 31.3825 27.2884 33.5423C27.2862 34.6225 24.752 33.5372 24.3875 34.6167Z" fill="#1072BA"/>
<path fill-rule="evenodd" clip-rule="evenodd" d="M26.1941 37.1412C28.3703 36.0653 28.3696 36.4254 31.6306 36.4319C33.0727 40.0357 30.895 41.8318 26.9072 42.904C28.3601 41.1065 25.1013 40.0197 26.1941 37.1412Z" fill="#1072BA"/>
<path fill-rule="evenodd" clip-rule="evenodd" d="M35.2618 32.4782C35.6263 31.3987 35.9901 30.6793 36.3539 29.9598C37.0786 29.9613 36.7141 31.0408 37.075 31.7617C37.4373 31.7624 37.8004 31.4031 37.8011 31.043C38.1634 31.0437 38.525 31.4045 38.5243 31.7646C38.5236 32.1247 38.5229 32.4848 38.5221 32.8449C36.3467 33.5607 36.7119 32.1211 35.2618 32.4782Z" fill="#1072BA"/>
<path fill-rule="evenodd" clip-rule="evenodd" d="M1.92319 34.5715C4.82188 34.5773 10.6272 30.6281 11.3389 37.1111C13.1498 37.4748 13.1527 36.0345 14.6013 36.3975C13.873 38.1964 15.3231 37.8393 14.9579 39.2789C13.8716 38.9166 11.3331 39.9917 11.336 38.5514C9.52066 40.3482 8.4293 42.5065 7.33649 45.385C9.51196 44.6692 9.87647 43.5897 10.233 46.4711C12.4114 44.315 17.8421 46.4864 18.5609 49.3686C18.924 49.0092 20.0117 48.6513 21.0988 48.6535C21.4582 50.0946 22.5437 50.8169 23.2662 51.8987C23.6242 54.0599 20.727 53.3339 20.3618 54.7735C18.9124 54.7706 18.5522 53.6896 17.829 52.968C16.742 52.9658 16.3775 54.0453 16.7369 55.4864C14.5622 55.8421 14.202 54.7611 13.1165 54.0388C13.4752 55.8399 12.7483 56.9187 12.7454 58.3591C9.12062 59.0719 8.76409 56.1905 5.13637 58.3437C2.96815 55.4587 2.61451 51.1369 4.43127 48.62C-0.273303 45.7298 -1.34799 39.6061 1.92319 34.5715Z" fill="#1072BA"/>
<path fill-rule="evenodd" clip-rule="evenodd" d="M43.5948 32.8547C43.5926 33.935 43.9543 34.2958 44.6782 34.6574C46.4921 33.5808 46.1355 30.6993 47.5878 29.2619C48.6733 29.9843 49.4002 28.9055 51.2097 29.9894C51.5764 27.8296 50.4894 27.8274 50.493 26.027C56.6476 28.56 66.0865 19.5768 68.246 26.7829C76.953 21.3991 74.3833 37.958 78.3603 42.287C78.7154 45.8886 77.2639 46.9659 76.5341 49.4851C72.9115 49.1177 71.8165 53.0765 67.1061 53.067C66.3836 51.9853 66.0234 50.9043 64.2125 50.5405C65.3053 47.662 62.053 43.3344 65.3125 44.0612C64.9531 42.6201 64.2306 41.5384 62.4189 41.5347C60.6058 42.2513 63.1393 43.6967 62.4117 45.1356C60.5985 45.8521 59.5079 47.6504 56.9745 46.2049C57.7144 38.6446 50.098 42.2301 47.5646 40.7847C47.2008 41.5041 46.8319 44.7442 47.5515 47.2662C43.1999 49.0579 41.3962 45.0933 39.2258 43.2885C37.0517 43.2841 37.7706 46.1663 35.235 45.8011C38.1279 48.6876 34.4987 51.561 36.3017 55.8857C31.9537 55.8769 32.6812 54.438 28.6963 54.0699C28.705 49.7489 29.7934 49.0309 27.9904 44.7062C29.0803 43.2681 30.1702 41.8299 33.4306 42.1966C33.4335 40.7562 33.4364 39.3159 33.4385 38.2356C37.4293 35.723 43.9543 34.2958 40.7063 27.8077C42.1607 25.29 43.6093 25.653 46.8696 26.0197C48.3153 27.823 46.495 32.1404 43.5948 32.8547Z" fill="#1072BA"/>
</svg>
